{
.appVersion = "1330";
classes = (
{
automatic = 1;

glyphs = (
{
glyphname = A;
layers = (
{
anchors = (
{
name = bottom;
position = "{336, 0}";
},
{
name = ogonek;
position = "{548, 12}";
},
{
name = top;
position = "{336, 1600}";
}
);
layerId = "3B122060-26E0-4730-9241-82784E6CB359";
paths = (
{
closed = 1;
nodes = (
"162 0 LINE",
"206 518 LINE",
"376 518 LINE",
"396 594 LINE",
"212 594 LINE",
"240 922 LINE",
"292 1524 LINE",
"456 1524 LINE",
"450 1600 LINE",
"224 1600 LINE",
"80 0 LINE"
);
},
{
closed = 1;
nodes = (
"592 0 LINE",
"460 1452 LINE",
"384 1452 LINE",
"432 926 LINE",
"510 0 LINE"
);
}
);
width = 672;
},
{
anchors = (
{
name = bottom;
position = "{518, 0}";
},
{
name = ogonek;
position = "{800, 0}";
},
{
name = top;
position = "{518, 1600}";
}
);
color = -1;
layerId = "1DFA7D5B-2E97-4B89-827F-FB43F8066DC1";
paths = (
{
closed = 1;
nodes = (
"348 0 LINE",
"402 334 LINE",
"498 334 LINE",
"568 598 LINE",
"430 598 LINE",
"476 960 LINE",
"484 1336 LINE",
"812 1336 LINE",
"780 1600 LINE",
"262 1600 LINE",
"40 0 LINE"
);
},
{
closed = 1;
nodes = (
"996 0 LINE",
"820 1234 LINE",
"564 1234 LINE",
"570 960 LINE",
"688 0 LINE"
);
}
);
width = 1036;
},
{
anchors = (
{
name = bottom;
position = "{498, 0}";
},
{
name = ogonek;
position = "{762, 0}";
},
{
name = top;
position = "{498, 1600}";
}
);
color = -1;
layerId = "5013C991-8699-46CB-BB1C-82E334DBD38B";
paths = (
{
closed = 1;
nodes = (
"348 0 LINE",
"402 334 LINE",
"472 334 LINE",
"542 598 LINE",
"420 598 LINE",
"462 912 LINE",
"484 1336 LINE",
"792 1336 LINE",
"758 1600 LINE",
"262 1600 LINE",
"40 0 LINE"
);
},
{
closed = 1;
nodes = (
"976 0 LINE",
"798 1236 LINE",
"550 1236 LINE",
"560 914 LINE",
"668 0 LINE"
);
}
);
width = 1016;
},
{
anchors = (
{
name = bottom;
position = "{266, 0}";
},
{
name = ogonek;
position = "{452, 0}";
},
{
name = top;
position = "{266, 1600}";
}
);
layerId = "3D06B89B-468F-44E0-A3D7-A5BC6911123E";
paths = (
{
closed = 1;
nodes = (
"100 0 LINE",
"146 536 LINE",
"320 536 LINE",
"330 576 LINE",
"150 576 LINE",
"180 920 LINE",
"234 1560 LINE",
"330 1560 LINE",
"328 1600 LINE",
"202 1600 LINE",
"60 0 LINE"
);
},
{
closed = 1;
nodes = (
"468 0 LINE",
"332 1520 LINE",
"296 1520 LINE",
"348 922 LINE",
"428 0 LINE"
);
}
);
width = 528;
},
{
anchors = (
{
name = bottom;
position = "{382, 0}";
},
{
name = ogonek;
position = "{611, 9}";
},
{
name = top;
position = "{382, 1600}";
}
);
layerId = "EB6D3A46-95FC-4F29-8169-EF2A3FEDBD5C";
paths = (
{
closed = 1;
nodes = (
"209 0 LINE",
"255 472 LINE",
"407 472 LINE",
"439 595 LINE",
"267 595 LINE",
"299 932 LINE",
"340 1477 LINE",
"545 1477 LINE",
"533 1600 LINE",
"234 1600 LINE",
"70 0 LINE"
);
},
{
closed = 1;
nodes = (
"693 0 LINE",
"550 1398 LINE",
"429 1398 LINE",
"467 935 LINE",
"555 0 LINE"
);
}
);
width = 763;
},
{
anchors = (
{
name = bottom;
position = "{324, 0}";
},
{
name = ogonek;
position = "{529, 0}";
},
{
name = top;
position = "{324, 1600}";
}
);
color = -1;
layerId = "C388322D-F001-4130-A10A-708FB59AF746";
paths = (
{
closed = 1;
nodes = (
"162 0 LINE",
"210 486 LINE",
"358 486 LINE",
"383 582 LINE",
"218 582 LINE",
"251 918 LINE",
"297 1504 LINE",
"446 1504 LINE",
"436 1600 LINE",
"217 1600 LINE",
"55 0 LINE"
);
},
{
closed = 1;
nodes = (
"595 0 LINE",
"449 1449 LINE",
"360 1449 LINE",
"401 920 LINE",
"488 0 LINE"
);
}
);
width = 650;
}
);
leftKerningGroup = A;
rightKerningGroup = A;
unicode = 0041;
},
{
glyphname = AE;
layers = (
{
anchors = (
{
name = bottom;
position = "{474, 0}";
},
{
name = top;
position = "{558, 1600}";
}
);
layerId = "3B122060-26E0-4730-9241-82784E6CB359";
paths = (
{
closed = 1;
nodes = (
"164 0 LINE",
"248 504 LINE",
"388 504 LINE",
"410 580 LINE",
"262 580 LINE",
"318 914 LINE",
"414 1526 LINE",
"908 1526 LINE",
"908 1600 LINE",
"348 1600 LINE",
"80 0 LINE"
);
},
{
closed = 1;
nodes = (
"908 0 LINE",
"908 76 LINE",
"662 76 LINE",
"662 0 LINE"
);
},
{
closed = 1;
nodes = (
"570 0 LINE",
"570 1434 LINE",
"490 1434 LINE",
"490 0 LINE"
);
},
{
closed = 1;
nodes = (
"888 762 LINE",
"888 838 LINE",
"662 838 LINE",
"662 762 LINE"
);
}
);
width = 1008;
},
{
anchors = (
{
name = bottom;
position = "{762, 0}";
},
{
name = top;
position = "{862, 1600}";
}
);
color = -1;
layerId = "1DFA7D5B-2E97-4B89-827F-FB43F8066DC1";
paths = (
{
closed = 1;
nodes = (
"368 0 LINE",
"440 334 LINE",
"566 334 LINE",
"636 598 LINE",
"496 598 LINE",
"556 872 LINE",
"600 1336 LINE",
"1424 1336 LINE",
"1424 1600 LINE",
"372 1600 LINE",
"40 0 LINE"
);
},
{
closed = 1;
nodes = (
"1424 0 LINE",
"1424 264 LINE",
"1126 264 LINE",
"1126 0 LINE"
);
},
{
closed = 1;
nodes = (
"992 0 LINE",
"992 1204 LINE",
"692 1204 LINE",
"692 0 LINE"
);
},
{
closed = 1;
nodes = (
"1404 682 LINE",
"1404 946 LINE",
"1126 946 LINE",
"1126 682 LINE"
);
}
);
width = 1464;
},
{
anchors = (
{
name = bottom;
position = "{722, 0}";
},
{
name = top;
position = "{822, 1600}";
}
);
color = -1;
layerId = "5013C991-8699-46CB-BB1C-82E334DBD38B";
paths = (
{
closed = 1;
nodes = (
"40 0 LINE",
"368 0 LINE",
"440 334 LINE",
"546 334 LINE",
"620 598 LINE",
"496 598 LINE",
"556 872 LINE",
"600 1336 LINE",
"1344 1336 LINE",
"1344 1600 LINE",
"372 1600 LINE"
);
},
{
closed = 1;
nodes = (
"952 0 LINE",
"952 1236 LINE",
"652 1236 LINE",
"652 0 LINE"
);
},
{
closed = 1;
nodes = (
"1050 682 LINE",
"1324 682 LINE",
"1324 946 LINE",
"1050 946 LINE"
);
},
{
closed = 1;
nodes = (
"1344 0 LINE",
"1344 264 LINE",
"1050 264 LINE",
"1050 0 LINE"
);
}
);
width = 1384;
},
{
anchors = (
{
name = bottom;
position = "{340, 0}";
},
{
name = top;
position = "{410, 1600}";
}
);
layerId = "3D06B89B-468F-44E0-A3D7-A5BC6911123E";
paths = (
{
closed = 1;
nodes = (
"60 0 LINE",
"100 0 LINE",
"174 536 LINE",
"286 536 LINE",
"298 576 LINE",
"178 576 LINE",
"226 922 LINE",
"316 1560 LINE",
"674 1560 LINE",
"674 1600 LINE",
"282 1600 LINE"
);
},
{
closed = 1;
nodes = (
"396 0 LINE",
"396 1480 LINE",
"356 1480 LINE",
"356 0 LINE"
);
},
{
closed = 1;
nodes = (
"476 780 LINE",
"654 780 LINE",
"654 820 LINE",
"476 820 LINE"
);
},
{
closed = 1;
nodes = (
"674 0 LINE",
"674 40 LINE",
"476 40 LINE",
"476 0 LINE"
);
}
);
width = 754;
},
{
anchors = (
{
name = bottom;
position = "{546, 0}";
},
{
name = top;
position = "{634, 1600}";
}
);
layerId = "EB6D3A46-95FC-4F29-8169-EF2A3FEDBD5C";
paths = (
{
closed = 1;
nodes = (
"215 0 LINE",
"296 462 LINE",
"433 462 LINE",
"467 585 LINE",
"321 585 LINE",
"378 904 LINE",
"461 1479 LINE",
"1037 1479 LINE",
"1037 1600 LINE",
"354 1600 LINE",
"70 0 LINE"
);
},
{
closed = 1;
nodes = (
"1037 0 LINE",
"1037 123 LINE",
"778 123 LINE",
"778 0 LINE"
);
},
{
closed = 1;
nodes = (
"676 0 LINE",
"676 1377 LINE",
"541 1377 LINE",
"541 0 LINE"
);
},
{
closed = 1;
nodes = (
"1017 742 LINE",
"1017 865 LINE",
"778 865 LINE",
"778 742 LINE"
);
}
);
width = 1122;
},
{
anchors = (
{
name = bottom;
position = "{436, 0}";
},
{
name = top;
position = "{513, 1600}";
}
);
color = -1;
layerId = "C388322D-F001-4130-A10A-708FB59AF746";
paths = (
{
closed = 1;
nodes = (
"55 0 LINE",
"167 0 LINE",
"241 486 LINE",
"351 486 LINE",
"379 582 LINE",
"258 582 LINE",
"309 910 LINE",
"387 1504 LINE",
"842 1504 LINE",
"842 1600 LINE",
"305 1600 LINE"
);
},
{
closed = 1;
nodes = (
"535 0 LINE",
"535 1419 LINE",
"430 1419 LINE",
"430 0 LINE"
);
},
{
closed = 1;
nodes = (
"620 756 LINE",
"822 756 LINE",
"822 852 LINE",
"620 852 LINE"
);
},
{
closed = 1;
nodes = (
"842 0 LINE",
"842 96 LINE",
"620 96 LINE",
"620 0 LINE"
);
}
);
width = 912;
}
);
leftKerningGroup = A;
leftMetricsKey = A;
rightKerningGroup = E;
rightMetricsKey = E;
unicode = 00C6;
},
{
glyphname = B;
layers = (
{
layerId = "3B122060-26E0-4730-9241-82784E6CB359";
paths = (
{
closed = 1;
nodes = (
"220 0 LINE",
"220 1600 LINE",
"140 1600 LINE",
"140 0 LINE"
);
},
{
closed = 1;
nodes = (
"386 0 LINE SMOOTH",
"548 0 OFFCURVE",
"614 56 OFFCURVE",
"618 196 CURVE SMOOTH",
"622 352 OFFCURVE",
"624 466 OFFCURVE",
"618 624 CURVE SMOOTH",
"614 718 OFFCURVE",
"578 770 OFFCURVE",
"490 790 CURVE",
"490 810 LINE",
"574 828 OFFCURVE",
"606 880 OFFCURVE",
"610 976 CURVE SMOOTH",
"614 1102 OFFCURVE",
"612 1218 OFFCURVE",
"610 1404 CURVE SMOOTH",
"608 1544 OFFCURVE",
"542 1600 OFFCURVE",
"378 1600 CURVE SMOOTH",
"312 1600 LINE",
"312 1524 LINE",
"378 1524 LINE SMOOTH",
"496 1524 OFFCURVE",
"528 1498 OFFCURVE",
"530 1404 CURVE SMOOTH",
"534 1248 OFFCURVE",
"536 1132 OFFCURVE",
"530 976 CURVE SMOOTH",
"526 870 OFFCURVE",
"502 840 OFFCURVE",
"402 840 CURVE SMOOTH",
"312 840 LINE",
"312 760 LINE",
"394 760 LINE SMOOTH",
"502 760 OFFCURVE",
"534 730 OFFCURVE",
"538 624 CURVE SMOOTH",
"544 468 OFFCURVE",
"544 352 OFFCURVE",
"538 196 CURVE SMOOTH",
"534 104 OFFCURVE",
"504 80 OFFCURVE",
"386 80 CURVE SMOOTH",
"312 80 LINE",
"312 0 LINE"
);
}
);
width = 742;
},
{
layerId = "1DFA7D5B-2E97-4B89-827F-FB43F8066DC1";
paths = (
{
closed = 1;
nodes = (
"380 0 LINE",
"380 1600 LINE",
"80 1600 LINE",
"80 0 LINE"
);
},
{
closed = 1;
nodes = (
"514 0 LINE SMOOTH",
"812 0 OFFCURVE",
"932 112 OFFCURVE",
"944 390 CURVE SMOOTH",
"946 436 OFFCURVE",
"946 470 OFFCURVE",
"944 514 CURVE SMOOTH",
"938 664 OFFCURVE",
"884 748 OFFCURVE",
"762 788 CURVE",
"762 836 LINE",
"880 876 OFFCURVE",
"934 958 OFFCURVE",
"942 1104 CURVE SMOOTH",
"944 1138 OFFCURVE",
"944 1172 OFFCURVE",
"944 1210 CURVE SMOOTH",
"944 1488 OFFCURVE",
"812 1600 OFFCURVE",
"514 1600 CURVE SMOOTH",
"512 1600 LINE",
"512 1336 LINE",
"514 1336 LINE SMOOTH",
"598 1336 OFFCURVE",
"644 1296 OFFCURVE",
"644 1226 CURVE SMOOTH",
"644 1188 OFFCURVE",
"644 1150 OFFCURVE",
"644 1112 CURVE SMOOTH",
"644 1006 OFFCURVE",
"598 946 OFFCURVE",
"514 946 CURVE SMOOTH",
"512 946 LINE",
"512 682 LINE",
"514 682 LINE SMOOTH",
"606 682 OFFCURVE",
"644 632 OFFCURVE",
"644 500 CURVE SMOOTH",
"644 464 OFFCURVE",
"644 430 OFFCURVE",
"644 394 CURVE SMOOTH",
"644 310 OFFCURVE",
"598 264 OFFCURVE",
"514 264 CURVE SMOOTH",
"512 264 LINE",
"512 0 LINE"
);
}
);
width = 986;
},
{
layerId = "5013C991-8699-46CB-BB1C-82E334DBD38B";
paths = (
{
closed = 1;
nodes = (
"380 0 LINE",
"380 1600 LINE",
"80 1600 LINE",
"80 0 LINE"
);
},
{
closed = 1;
nodes = (
"490 0 LINE SMOOTH",
"788 0 OFFCURVE",
"908 112 OFFCURVE",
"920 390 CURVE SMOOTH",
"922 436 OFFCURVE",
"922 470 OFFCURVE",
"920 514 CURVE SMOOTH",
"914 664 OFFCURVE",
"860 748 OFFCURVE",
"738 788 CURVE",
"738 836 LINE",
"856 876 OFFCURVE",
"910 958 OFFCURVE",
"918 1104 CURVE SMOOTH",
"920 1138 OFFCURVE",
"920 1172 OFFCURVE",
"920 1210 CURVE SMOOTH",
"920 1488 OFFCURVE",
"788 1600 OFFCURVE",
"490 1600 CURVE SMOOTH",
"480 1600 LINE",
"480 1336 LINE",
"490 1336 LINE SMOOTH",
"574 1336 OFFCURVE",
"620 1296 OFFCURVE",
"620 1226 CURVE SMOOTH",
"620 1188 OFFCURVE",
"620 1150 OFFCURVE",
"620 1112 CURVE SMOOTH",
"620 1006 OFFCURVE",
"574 946 OFFCURVE",
"490 946 CURVE SMOOTH",
"480 946 LINE",
"480 682 LINE",
"490 682 LINE SMOOTH",
"582 682 OFFCURVE",
"620 632 OFFCURVE",
"620 500 CURVE SMOOTH",
"620 464 OFFCURVE",
"620 430 OFFCURVE",
"620 394 CURVE SMOOTH",
"620 310 OFFCURVE",
"574 264 OFFCURVE",
"490 264 CURVE SMOOTH",
"480 264 LINE",
"480 0 LINE"
);
}
);
width = 962;
},
{
layerId = "3D06B89B-468F-44E0-A3D7-A5BC6911123E";
paths = (
{
closed = 1;
nodes = (
"160 0 LINE",
"160 1600 LINE",
"120 1600 LINE",
"120 0 LINE"
);
},
{
closed = 1;
nodes = (
"286 0 LINE SMOOTH",
"404 0 OFFCURVE",
"454 54 OFFCURVE",
"458 186 CURVE SMOOTH",
"462 342 OFFCURVE",
"462 466 OFFCURVE",
"458 624 CURVE SMOOTH",
"456 714 OFFCURVE",
"430 764 OFFCURVE",
"370 784 CURVE",
"370 814 LINE",
"428 836 OFFCURVE",
"454 884 OFFCURVE",
"456 976 CURVE SMOOTH",
"460 1102 OFFCURVE",
"460 1228 OFFCURVE",
"456 1414 CURVE SMOOTH",
"452 1546 OFFCURVE",
"402 1600 OFFCURVE",
"284 1600 CURVE SMOOTH",
"240 1600 LINE",
"240 1560 LINE",
"284 1560 LINE SMOOTH",
"374 1560 OFFCURVE",
"412 1518 OFFCURVE",
"416 1414 CURVE SMOOTH",
"422 1258 OFFCURVE",
"422 1132 OFFCURVE",
"416 976 CURVE SMOOTH",
"412 864 OFFCURVE",
"374 820 OFFCURVE",
"282 820 CURVE SMOOTH",
"240 820 LINE",
"240 780 LINE",
"274 780 LINE SMOOTH",
"372 780 OFFCURVE",
"414 736 OFFCURVE",
"418 624 CURVE SMOOTH",
"424 468 OFFCURVE",
"424 342 OFFCURVE",
"418 186 CURVE SMOOTH",
"414 82 OFFCURVE",
"376 40 OFFCURVE",
"286 40 CURVE SMOOTH",
"240 40 LINE",
"240 0 LINE"
);
}
);
width = 560;
},
{
layerId = "EB6D3A46-95FC-4F29-8169-EF2A3FEDBD5C";
paths = (
{
closed = 1;
nodes = (
"260 0 LINE",
"260 1600 LINE",
"125 1600 LINE",
"125 0 LINE"
);
},
{
closed = 1;
nodes = (
"418 0 LINE SMOOTH",
"614 0 OFFCURVE",
"694 70 OFFCURVE",
"700 245 CURVE SMOOTH",
"703 373 OFFCURVE",
"705 467 OFFCURVE",
"700 597 CURVE SMOOTH",
"695 705 OFFCURVE",
"655 765 OFFCURVE",
"558 790 CURVE",
"558 817 LINE",
"651 840 OFFCURVE",
"688 900 OFFCURVE",
"693 1008 CURVE SMOOTH",
"697 1111 OFFCURVE",
"695 1207 OFFCURVE",
"694 1356 CURVE SMOOTH",
"692 1530 OFFCURVE",
"610 1600 OFFCURVE",
"412 1600 CURVE SMOOTH",
"362 1600 LINE",
"362 1477 LINE",
"412 1477 LINE SMOOTH",
"522 1477 OFFCURVE",
"557 1448 OFFCURVE",
"559 1360 CURVE SMOOTH",
"562 1233 OFFCURVE",
"563 1137 OFFCURVE",
"559 1010 CURVE SMOOTH",
"556 904 OFFCURVE",
"526 867 OFFCURVE",
"430 867 CURVE SMOOTH",
"362 867 LINE",
"362 741 LINE",
"424 741 LINE SMOOTH",
"528 741 OFFCURVE",
"562 706 OFFCURVE",
"565 593 CURVE SMOOTH",
"569 467 OFFCURVE",
"569 372 OFFCURVE",
"565 246 CURVE SMOOTH",
"562 156 OFFCURVE",
"528 126 OFFCURVE",
"418 126 CURVE SMOOTH",
"362 126 LINE",
"362 0 LINE"
);
}
);
width = 803;
},
{
layerId = "C388322D-F001-4130-A10A-708FB59AF746";
paths = (
{
closed = 1;
nodes = (
"215 0 LINE",
"215 1600 LINE",
"110 1600 LINE",
"110 0 LINE"
);
},
{
closed = 1;
nodes = (
"337 0 LINE SMOOTH",
"500 0 OFFCURVE",
"568 69 OFFCURVE",
"574 237 CURVE SMOOTH",
"577 366 OFFCURVE",
"577 467 OFFCURVE",
"574 597 CURVE SMOOTH",
"571 702 OFFCURVE",
"538 760 OFFCURVE",
"462 785 CURVE",
"462 820 LINE",
"535 846 OFFCURVE",
"568 903 OFFCURVE",
"572 1008 CURVE SMOOTH",
"575 1111 OFFCURVE",
"575 1214 OFFCURVE",
"572 1363 CURVE SMOOTH",
"569 1532 OFFCURVE",
"499 1600 OFFCURVE",
"336 1600 CURVE SMOOTH",
"300 1600 LINE",
"300 1504 LINE",
"336 1504 LINE SMOOTH",
"424 1504 OFFCURVE",
"464 1463 OFFCURVE",
"467 1367 CURVE SMOOTH",
"472 1241 OFFCURVE",
"472 1137 OFFCURVE",
"467 1010 CURVE SMOOTH",
"464 900 OFFCURVE",
"424 852 OFFCURVE",
"334 852 CURVE SMOOTH",
"300 852 LINE",
"300 756 LINE",
"328 756 LINE SMOOTH",
"425 756 OFFCURVE",
"466 710 OFFCURVE",
"469 593 CURVE SMOOTH",
"473 467 OFFCURVE",
"473 364 OFFCURVE",
"469 238 CURVE SMOOTH",
"466 139 OFFCURVE",
"426 96 OFFCURVE",
"337 96 CURVE SMOOTH",
"300 96 LINE",
"300 0 LINE"
);
}
);
width = 661;
}
);
leftKerningGroup = H;
rightKerningGroup = B;
unicode = 0042;
},
{
glyphname = C;
layers = (
{
anchors = (
{
name = bottom;
position = "{382, 0}";
},
{
name = top;
position = "{382, 1600}";
}
);
background = {
paths = (
{
closed = 1;
nodes = (
"480 -20 OFFCURVE",
"562 66 OFFCURVE",
"562 180 CURVE SMOOTH",
"562 480 LINE",
"522 480 LINE",
"522 180 LINE SMOOTH",
"522 88 OFFCURVE",
"458 20 OFFCURVE",
"372 20 CURVE SMOOTH",
"286 20 OFFCURVE",
"222 88 OFFCURVE",
"222 180 CURVE SMOOTH",
"222 1400 LINE SMOOTH",
"222 1492 OFFCURVE",
"286 1580 OFFCURVE",
"372 1580 CURVE SMOOTH",
"458 1580 OFFCURVE",
"522 1492 OFFCURVE",
"522 1400 CURVE SMOOTH",
"522 1140 LINE",
"562 1140 LINE",
"562 1400 LINE SMOOTH",
"562 1514 OFFCURVE",
"480 1620 OFFCURVE",
"372 1620 CURVE SMOOTH",
"264 1620 OFFCURVE",
"182 1514 OFFCURVE",
"182 1400 CURVE SMOOTH",
"182 180 LINE SMOOTH",
"182 66 OFFCURVE",
"264 -20 OFFCURVE",
"372 -20 CURVE SMOOTH"
);
}
);
};
layerId = "3B122060-26E0-4730-9241-82784E6CB359";
paths = (
{
closed = 1;
nodes = (
"344 65 LINE",
"258 72 OFFCURVE",
"226 104 OFFCURVE",
"224 194 CURVE SMOOTH",
"214 686 OFFCURVE",
"214 912 OFFCURVE",
"224 1402 CURVE SMOOTH",
"226 1492 OFFCURVE",
"259 1525 OFFCURVE",
"344 1531 CURVE",
"344 1607 LINE",
"209 1598 OFFCURVE",
"146 1538 OFFCURVE",
"144 1402 CURVE SMOOTH",
"138 958 OFFCURVE",
"138 640 OFFCURVE",
"144 194 CURVE SMOOTH",
"146 58 OFFCURVE",
"210 -2 OFFCURVE",
"344 -11 CURVE"
);
},
{
closed = 1;
nodes = (
"568 2 OFFCURVE",
"629 63 OFFCURVE",
"636 194 CURVE SMOOTH",
"642 308 OFFCURVE",
"640 400 OFFCURVE",
"634 564 CURVE",
"554 564 LINE",
"558 378 OFFCURVE",
"560 286 OFFCURVE",
"556 194 CURVE SMOOTH",
"553 108 OFFCURVE",
"521 75 OFFCURVE",
"436 66 CURVE",
"436 -10 LINE"
);
},
{
closed = 1;
nodes = (
"628 1068 LINE",
"634 1194 OFFCURVE",
"634 1276 OFFCURVE",
"628 1402 CURVE SMOOTH",
"621 1532 OFFCURVE",
"563 1593 OFFCURVE",
"436 1605 CURVE",
"436 1529 LINE",
"515 1520 OFFCURVE",
"545 1486 OFFCURVE",
"548 1402 CURVE SMOOTH",
"552 1276 OFFCURVE",
"552 1194 OFFCURVE",
"548 1068 CURVE"
);
}
);
width = 760;
},
{
anchors = (
{
name = bottom;
position = "{518, 0}";
},
{
name = top;
position = "{518, 1600}";
}
);
layerId = "1DFA7D5B-2E97-4B89-827F-FB43F8066DC1";
paths = (
{
closed = 1;
nodes = (
"460 233 LINE",
"409 249 OFFCURVE",
"385 291 OFFCURVE",
"384 366 CURVE SMOOTH",
"376 658 OFFCURVE",
"376 942 OFFCURVE",
"384 1236 CURVE SMOOTH",
"385 1310 OFFCURVE",
"409 1351 OFFCURVE",
"460 1367 CURVE",
"460 1618 LINE",
"204 1601 OFFCURVE",
"88 1477 OFFCURVE",
"84 1222 CURVE SMOOTH",
"78 920 OFFCURVE",
"78 680 OFFCURVE",
"84 382 CURVE SMOOTH",
"90 115 OFFCURVE",
"198 -2 OFFCURVE",
"460 -18 CURVE"
);
},
{
closed = 1;
nodes = (
"854 -2 OFFCURVE",
"963 115 OFFCURVE",
"970 382 CURVE SMOOTH",
"972 446 OFFCURVE",
"972 536 OFFCURVE",
"970 600 CURVE",
"670 600 LINE",
"674 510 OFFCURVE",
"674 452 OFFCURVE",
"670 366 CURVE SMOOTH",
"667 290 OFFCURVE",
"644 249 OFFCURVE",
"592 232 CURVE",
"592 -18 LINE"
);
},
{
closed = 1;
nodes = (
"960 1000 LINE",
"962 1066 OFFCURVE",
"964 1154 OFFCURVE",
"962 1220 CURVE SMOOTH",
"955 1471 OFFCURVE",
"840 1599 OFFCURVE",
"592 1618 CURVE",
"592 1366 LINE",
"639 1349 OFFCURVE",
"661 1308 OFFCURVE",
"662 1236 CURVE SMOOTH",
"664 1162 OFFCURVE",
"662 1074 OFFCURVE",
"660 1000 CURVE"
);
}
);
width = 1012;
},
{
anchors = (
{
name = bottom;
position = "{496, 0}";
},
{
name = top;
position = "{496, 1600}";
}
);
layerId = "5013C991-8699-46CB-BB1C-82E334DBD38B";
paths = (
{
closed = 1;
nodes = (
"454 230 LINE",
"409 243 OFFCURVE",
"384 276 OFFCURVE",
"382 326 CURVE SMOOTH",
"372 604 OFFCURVE",
"372 996 OFFCURVE",
"382 1276 CURVE SMOOTH",
"384 1324 OFFCURVE",
"409 1357 OFFCURVE",
"454 1370 CURVE",
"454 1618 LINE",
"196 1602 OFFCURVE",
"86 1452 OFFCURVE",
"82 1222 CURVE SMOOTH",
"78 996 OFFCURVE",
"78 604 OFFCURVE",
"82 382 CURVE SMOOTH",
"88 110 OFFCURVE",
"189 -6 OFFCURVE",
"454 -19 CURVE"
);
},
{
closed = 1;
nodes = (
"812 -6 OFFCURVE",
"920 111 OFFCURVE",
"928 382 CURVE SMOOTH",
"930 446 OFFCURVE",
"930 536 OFFCURVE",
"928 600 CURVE",
"628 600 LINE",
"630 528 OFFCURVE",
"630 398 OFFCURVE",
"628 326 CURVE SMOOTH",
"626 276 OFFCURVE",
"601 243 OFFCURVE",
"554 230 CURVE",
"554 -19 LINE"
);
},
{
closed = 1;
nodes = (
"918 1000 LINE",
"920 1066 OFFCURVE",
"922 1154 OFFCURVE",
"920 1220 CURVE SMOOTH",
"912 1489 OFFCURVE",
"806 1606 OFFCURVE",
"554 1619 CURVE",
"554 1369 LINE",
"595 1355 OFFCURVE",
"619 1323 OFFCURVE",
"620 1276 CURVE SMOOTH",
"622 1202 OFFCURVE",
"620 1074 OFFCURVE",
"618 1000 CURVE"
);
}
);
width = 970;
},
{
anchors = (
{
name = bottom;
position = "{290, 0}";
},
{
name = top;
position = "{290, 1600}";
}
);
background = {
paths = (
{
closed = 1;
nodes = (
"422 -20 OFFCURVE",
"504 66 OFFCURVE",
"504 180 CURVE SMOOTH",
"504 480 LINE",
"464 480 LINE",
"464 180 LINE SMOOTH",
"464 88 OFFCURVE",
"400 20 OFFCURVE",
"314 20 CURVE SMOOTH",
"228 20 OFFCURVE",
"164 88 OFFCURVE",
"164 180 CURVE SMOOTH",
"164 1400 LINE SMOOTH",
"164 1492 OFFCURVE",
"228 1580 OFFCURVE",
"314 1580 CURVE SMOOTH",
"400 1580 OFFCURVE",
"464 1492 OFFCURVE",
"464 1400 CURVE SMOOTH",
"464 1140 LINE",
"504 1140 LINE",
"504 1400 LINE SMOOTH",
"504 1514 OFFCURVE",
"422 1620 OFFCURVE",
"314 1620 CURVE SMOOTH",
"206 1620 OFFCURVE",
"124 1514 OFFCURVE",
"124 1400 CURVE SMOOTH",
"124 180 LINE SMOOTH",
"124 66 OFFCURVE",
"206 -20 OFFCURVE",
"314 -20 CURVE SMOOTH"
);
}
);
};
layerId = "3D06B89B-468F-44E0-A3D7-A5BC6911123E";
paths = (
{
closed = 1;
nodes = (
"260 30 LINE",
"192 39 OFFCURVE",
"168 80 OFFCURVE",
"166 174 CURVE SMOOTH",
"158 636 OFFCURVE",
"158 962 OFFCURVE",
"166 1422 CURVE SMOOTH",
"168 1518 OFFCURVE",
"192 1558 OFFCURVE",
"260 1566 CURVE",
"260 1606 LINE",
"167 1597 OFFCURVE",
"128 1543 OFFCURVE",
"126 1422 CURVE SMOOTH",
"118 962 OFFCURVE",
"118 636 OFFCURVE",
"126 174 CURVE SMOOTH",
"128 55 OFFCURVE",
"167 0 OFFCURVE",
"260 -10 CURVE"
);
},
{
closed = 1;
nodes = (
"435 3 OFFCURVE",
"475 59 OFFCURVE",
"478 174 CURVE SMOOTH",
"482 314 OFFCURVE",
"480 424 OFFCURVE",
"476 564 CURVE",
"436 564 LINE",
"438 434 OFFCURVE",
"440 304 OFFCURVE",
"438 174 CURVE SMOOTH",
"436 83 OFFCURVE",
"411 42 OFFCURVE",
"340 31 CURVE",
"340 -9 LINE"
);
},
{
closed = 1;
nodes = (
"470 1068 LINE",
"472 1150 OFFCURVE",
"472 1340 OFFCURVE",
"470 1422 CURVE SMOOTH",
"467 1535 OFFCURVE",
"428 1591 OFFCURVE",
"340 1605 CURVE",
"340 1564 LINE",
"405 1553 OFFCURVE",
"428 1513 OFFCURVE",
"430 1422 CURVE SMOOTH",
"432 1304 OFFCURVE",
"432 1186 OFFCURVE",
"430 1068 CURVE"
);
}
);
width = 580;
},
{
anchors = (
{
name = bottom;
position = "{416, 0}";
},
{
name = top;
position = "{416, 1600}";
}
);
layerId = "EB6D3A46-95FC-4F29-8169-EF2A3FEDBD5C";
paths = (
{
closed = 1;
nodes = (
"373 107 LINE",
"296 116 OFFCURVE",
"266 151 OFFCURVE",
"264 237 CURVE SMOOTH",
"255 679 OFFCURVE",
"255 920 OFFCURVE",
"264 1361 CURVE SMOOTH",
"266 1447 OFFCURVE",
"296 1481 OFFCURVE",
"373 1490 CURVE",
"373 1610 LINE",
"208 1599 OFFCURVE",
"131 1523 OFFCURVE",
"129 1357 CURVE SMOOTH",
"123 949 OFFCURVE",
"123 650 OFFCURVE",
"129 241 CURVE SMOOTH",
"132 73 OFFCURVE",
"207 -2 OFFCURVE",
"373 -13 CURVE"
);
},
{
closed = 1;
nodes = (
"640 1 OFFCURVE",
"712 76 OFFCURVE",
"720 241 CURVE SMOOTH",
"725 343 OFFCURVE",
"723 434 OFFCURVE",
"718 573 CURVE",
"583 573 LINE",
"587 411 OFFCURVE",
"589 328 OFFCURVE",
"585 237 CURVE SMOOTH",
"581 154 OFFCURVE",
"552 118 OFFCURVE",
"475 108 CURVE",
"475 -12 LINE"
);
},
{
closed = 1;
nodes = (
"711 1051 LINE",
"716 1162 OFFCURVE",
"717 1246 OFFCURVE",
"712 1357 CURVE SMOOTH",
"704 1517 OFFCURVE",
"632 1594 OFFCURVE",
"475 1608 CURVE",
"475 1489 LINE",
"546 1477 OFFCURVE",
"574 1442 OFFCURVE",
"577 1361 CURVE SMOOTH",
"580 1248 OFFCURVE",
"580 1164 OFFCURVE",
"576 1051 CURVE"
);
}
);
width = 823;
},
{
anchors = (
{
name = bottom;
position = "{342, 0}";
},
{
name = top;
position = "{342, 1600}";
}
);
layerId = "C388322D-F001-4130-A10A-708FB59AF746";
paths = (
{
closed = 1;
nodes = (
"309 80 LINE",
"246 90 OFFCURVE",
"222 129 OFFCURVE",
"220 212 CURVE SMOOTH",
"212 628 OFFCURVE",
"212 971 OFFCURVE",
"220 1386 CURVE SMOOTH",
"222 1470 OFFCURVE",
"247 1507 OFFCURVE",
"309 1517 CURVE",
"309 1609 LINE",
"174 1598 OFFCURVE",
"117 1520 OFFCURVE",
"115 1372 CURVE SMOOTH",
"108 971 OFFCURVE",
"108 628 OFFCURVE",
"115 226 CURVE SMOOTH",
"118 69 OFFCURVE",
"172 -2 OFFCURVE",
"309 -12 CURVE"
);
},
{
closed = 1;
nodes = (
"529 1 OFFCURVE",
"586 72 OFFCURVE",
"591 226 CURVE SMOOTH",
"594 347 OFFCURVE",
"593 452 OFFCURVE",
"589 573 CURVE",
"484 573 LINE",
"486 458 OFFCURVE",
"488 328 OFFCURVE",
"486 212 CURVE SMOOTH",
"484 132 OFFCURVE",
"458 92 OFFCURVE",
"394 81 CURVE",
"394 -12 LINE"
);
},
{
closed = 1;
nodes = (
"582 1051 LINE",
"584 1129 OFFCURVE",
"585 1294 OFFCURVE",
"583 1372 CURVE SMOOTH",
"578 1524 OFFCURVE",
"522 1595 OFFCURVE",
"394 1608 CURVE",
"394 1516 LINE",
"453 1504 OFFCURVE",
"476 1465 OFFCURVE",
"478 1386 CURVE SMOOTH",
"480 1279 OFFCURVE",
"479 1158 OFFCURVE",
"477 1051 CURVE"
);
}
);
width = 678;
}
);
leftKerningGroup = O;
rightKerningGroup = O;
unicode = 0043;
},
{
glyphname = D;
layers = (
{
anchors = (
{
name = bottom;
position = "{370, 0}";
},
{
name = center;
position = "{374, 800}";
},
{
name = top;
position = "{352, 1600}";
}
);
layerId = "3B122060-26E0-4730-9241-82784E6CB359";
paths = (
{
closed = 1;
nodes = (
"220 0 LINE",
"220 1600 LINE",
"140 1600 LINE",
"140 0 LINE"
);
},
{
closed = 1;
nodes = (
"390 0 LINE SMOOTH",
"540 0 OFFCURVE",
"602 54 OFFCURVE",
"604 186 CURVE SMOOTH",
"610 624 OFFCURVE",
"610 974 OFFCURVE",
"604 1414 CURVE SMOOTH",
"602 1546 OFFCURVE",
"536 1600 OFFCURVE",
"372 1600 CURVE SMOOTH",
"312 1600 LINE",
"312 1524 LINE",
"372 1524 LINE SMOOTH",
"490 1524 OFFCURVE",
"522 1498 OFFCURVE",
"524 1414 CURVE SMOOTH",
"534 932 OFFCURVE",
"534 668 OFFCURVE",
"524 186 CURVE SMOOTH",
"522 102 OFFCURVE",
"494 76 OFFCURVE",
"390 76 CURVE SMOOTH",
"312 76 LINE",
"312 0 LINE"
);
}
);
width = 748;
},
{
anchors = (
{
name = bottom;
position = "{460, 0}";
},
{
name = center;
position = "{500, 800}";
},
{
name = top;
position = "{500, 1600}";
}
);
layerId = "1DFA7D5B-2E97-4B89-827F-FB43F8066DC1";
paths = (
{
closed = 1;
nodes = (
"380 0 LINE",
"380 1600 LINE",
"80 1600 LINE",
"80 0 LINE"
);
},
{
closed = 1;
nodes = (
"514 0 LINE SMOOTH",
"814 0 OFFCURVE",
"938 118 OFFCURVE",
"944 412 CURVE SMOOTH",
"950 690 OFFCURVE",
"950 912 OFFCURVE",
"944 1190 CURVE SMOOTH",
"938 1482 OFFCURVE",
"814 1600 OFFCURVE",
"514 1600 CURVE SMOOTH",
"512 1600 LINE",
"512 1336 LINE",
"514 1336 LINE SMOOTH",
"598 1336 OFFCURVE",
"642 1296 OFFCURVE",
"644 1226 CURVE SMOOTH",
"652 942 OFFCURVE",
"652 660 OFFCURVE",
"644 376 CURVE SMOOTH",
"642 304 OFFCURVE",
"598 264 OFFCURVE",
"514 264 CURVE SMOOTH",
"512 264 LINE",
"512 0 LINE"
);
}
);
width = 1028;
},
{
anchors = (
{
name = bottom;
position = "{460, 0}";
},
{
name = center;
position = "{500, 800}";
},
{
name = top;
position = "{500, 1600}";
}
);
layerId = "5013C991-8699-46CB-BB1C-82E334DBD38B";
paths = (
{
closed = 1;
nodes = (
"380 0 LINE",
"380 1600 LINE",
"80 1600 LINE",
"80 0 LINE"
);
},
{
closed = 1;
nodes = (
"486 0 LINE SMOOTH",
"786 0 OFFCURVE",
"910 118 OFFCURVE",
"916 412 CURVE SMOOTH",
"922 690 OFFCURVE",
"922 912 OFFCURVE",
"916 1190 CURVE SMOOTH",
"910 1482 OFFCURVE",
"786 1600 OFFCURVE",
"486 1600 CURVE SMOOTH",
"480 1600 LINE",
"480 1336 LINE",
"486 1336 LINE SMOOTH",
"570 1336 OFFCURVE",
"614 1296 OFFCURVE",
"616 1226 CURVE SMOOTH",
"624 942 OFFCURVE",
"624 660 OFFCURVE",
"616 376 CURVE SMOOTH",
"614 304 OFFCURVE",
"570 264 OFFCURVE",
"486 264 CURVE SMOOTH",
"480 264 LINE",
"480 0 LINE"
);
}
);
width = 1000;
},
{
anchors = (
{
name = bottom;
position = "{290, 0}";
},
{
name = center;
position = "{294, 800}";
},
{
name = top;
position = "{274, 1600}";
}
);
layerId = "3D06B89B-468F-44E0-A3D7-A5BC6911123E";
paths = (
{
closed = 1;
nodes = (
"160 0 LINE",
"160 1600 LINE",
"120 1600 LINE",
"120 0 LINE"
);
},
{
closed = 1;
nodes = (
"290 0 LINE SMOOTH",
"412 0 OFFCURVE",
"462 54 OFFCURVE",
"464 186 CURVE SMOOTH",
"470 624 OFFCURVE",
"470 974 OFFCURVE",
"464 1414 CURVE SMOOTH",
"462 1546 OFFCURVE",
"412 1600 OFFCURVE",
"292 1600 CURVE SMOOTH",
"240 1600 LINE",
"240 1560 LINE",
"292 1560 LINE SMOOTH",
"386 1560 OFFCURVE",
"422 1518 OFFCURVE",
"424 1414 CURVE SMOOTH",
"428 1004 OFFCURVE",
"428 596 OFFCURVE",
"424 186 CURVE SMOOTH",
"422 82 OFFCURVE",
"386 40 OFFCURVE",
"290 40 CURVE SMOOTH",
"240 40 LINE",
"240 0 LINE"
);
}
);
width = 588;
},
{
anchors = (
{
name = bottom;
position = "{393, 0}";
},
{
name = center;
position = "{406, 800}";
},
{
name = top;
position = "{389, 1600}";
}
);
layerId = "EB6D3A46-95FC-4F29-8169-EF2A3FEDBD5C";
paths = (
{
closed = 1;
nodes = (
"260 0 LINE",
"260 1600 LINE",
"125 1600 LINE",
"125 0 LINE"
);
},
{
closed = 1;
nodes = (
"421 0 LINE SMOOTH",
"609 0 OFFCURVE",
"686 70 OFFCURVE",
"689 243 CURVE SMOOTH",
"695 641 OFFCURVE",
"695 959 OFFCURVE",
"689 1358 CURVE SMOOTH",
"686 1530 OFFCURVE",
"606 1600 OFFCURVE",
"408 1600 CURVE SMOOTH",
"362 1600 LINE",
"362 1477 LINE",
"408 1477 LINE SMOOTH",
"517 1477 OFFCURVE",
"552 1448 OFFCURVE",
"554 1367 CURVE SMOOTH",
"564 935 OFFCURVE",
"564 666 OFFCURVE",
"554 234 CURVE SMOOTH",
"552 153 OFFCURVE",
"520 123 OFFCURVE",
"421 123 CURVE SMOOTH",
"362 123 LINE",
"362 0 LINE"
);
}
);
width = 818;
},
{
anchors = (
{
name = bottom;
position = "{333, 0}";
},
{
name = center;
position = "{346, 800}";
},
{
name = top;
position = "{331, 1600}";
}
);
layerId = "C388322D-F001-4130-A10A-708FB59AF746";
paths = (
{
closed = 1;
nodes = (
"215 0 LINE",
"215 1600 LINE",
"110 1600 LINE",
"110 0 LINE"
);
},
{
closed = 1;
nodes = (
"339 0 LINE SMOOTH",
"506 0 OFFCURVE",
"574 70 OFFCURVE",
"577 243 CURVE SMOOTH",
"583 641 OFFCURVE",
"583 959 OFFCURVE",
"577 1358 CURVE SMOOTH",
"574 1530 OFFCURVE",
"506 1600 OFFCURVE",
"341 1600 CURVE SMOOTH",
"300 1600 LINE",
"300 1504 LINE",
"341 1504 LINE SMOOTH",
"432 1504 OFFCURVE",
"470 1463 OFFCURVE",
"472 1367 CURVE SMOOTH",
"477 989 OFFCURVE",
"477 612 OFFCURVE",
"472 234 CURVE SMOOTH",
"470 138 OFFCURVE",
"432 96 OFFCURVE",
"339 96 CURVE SMOOTH",
"300 96 LINE",
"300 0 LINE"
);
}
);
width = 691;
}
);
leftKerningGroup = H;
rightKerningGroup = O;
unicode = 0044;
},
{
glyphname = Eth;
layers = (
{
components = (
{
name = D;
transform = "{1, 0, 0, 1, 58, 0}";
}
);
layerId = "3B122060-26E0-4730-9241-82784E6CB359";
paths = (
{
closed = 1;
nodes = (
"120 878 LINE",
"244 878 LINE",
"244 946 LINE",
"120 946 LINE"
);
},
{
closed = 1;
nodes = (
"342 878 LINE",
"466 878 LINE",
"466 946 LINE",
"342 946 LINE"
);
}
);
width = 806;
},
{
components = (
{
name = D;
transform = "{1, 0, 0, 1, 98, 0}";
}
);
layerId = "1DFA7D5B-2E97-4B89-827F-FB43F8066DC1";
paths = (
{
closed = 1;
nodes = (
"100 720 LINE",
"256 720 LINE",
"256 946 LINE",
"100 946 LINE"
);
},
{
closed = 1;
nodes = (
"542 720 LINE",
"676 720 LINE",
"676 946 LINE",
"542 946 LINE"
);
}
);
width = 1126;
},
{
components = (
{
name = D;
transform = "{1, 0, 0, 1, 98, 0}";
}
);
layerId = "5013C991-8699-46CB-BB1C-82E334DBD38B";
paths = (
{
closed = 1;
nodes = (
"100 720 LINE",
"334 720 LINE",
"334 946 LINE",
"100 946 LINE"
);
},
{
closed = 1;
nodes = (
"552 720 LINE",
"652 720 LINE",
"652 946 LINE",
"552 946 LINE"
);
}
);
width = 1098;
},
{
components = (
{
name = D;
transform = "{1, 0, 0, 1, 58, 0}";
}
);
layerId = "3D06B89B-468F-44E0-A3D7-A5BC6911123E";
paths = (
{
closed = 1;
nodes = (
"100 906 LINE",
"202 906 LINE",
"202 946 LINE",
"100 946 LINE"
);
},
{
closed = 1;
nodes = (
"280 906 LINE",
"382 906 LINE",
"382 946 LINE",
"280 946 LINE"
);
}
);
width = 646;
},
{
components = (
{
alignment = -1;
name = D;
transform = "{1, 0, 0, 1, 68, 0}";
}
);
layerId = "EB6D3A46-95FC-4F29-8169-EF2A3FEDBD5C";
paths = (
{
closed = 1;
nodes = (
"115 839 LINE",
"247 839 LINE",
"247 946 LINE",
"115 946 LINE"
);
},
{
closed = 1;
nodes = (
"392 839 LINE",
"519 839 LINE",
"519 946 LINE",
"392 946 LINE"
);
}
);
width = 886;
},
{
components = (
{
alignment = -1;
name = D;
transform = "{1, 0, 0, 1, 68, 0}";
}
);
layerId = "C388322D-F001-4130-A10A-708FB59AF746";
paths = (
{
closed = 1;
nodes = (
"100 860 LINE",
"235 860 LINE",
"235 946 LINE",
"100 946 LINE"
);
},
{
closed = 1;
nodes = (
"348 860 LINE",
"450 860 LINE",
"450 946 LINE",
"348 946 LINE"
);
}
);
width = 759;
}
);
leftKerningGroup = H;
rightKerningGroup = O;
rightMetricsKey = D;
unicode = 00D0;
},
{
glyphname = E;
layers = (
{
anchors = (
{
name = bottom;
position = "{362, -4}";
},
{
name = ogonek;
position = "{512, 0}";
},
{
name = top;
position = "{342, 1596}";
},
{
name = topleft;
position = "{160, 1600}";
}
);
layerId = "3B122060-26E0-4730-9241-82784E6CB359";
paths = (
{
closed = 1;
nodes = (
"220 0 LINE",
"220 1600 LINE",
"140 1600 LINE",
"140 0 LINE"
);
},
{
closed = 1;
nodes = (
"558 0 LINE",
"558 76 LINE",
"312 76 LINE",
"312 0 LINE"
);
},
{
closed = 1;
nodes = (
"538 762 LINE",
"538 838 LINE",
"312 838 LINE",
"312 762 LINE"
);
},
{
closed = 1;
nodes = (
"558 1524 LINE",
"558 1600 LINE",
"312 1600 LINE",
"312 1524 LINE"
);
}
);
width = 658;
},
{
anchors = (
{
name = bottom;
position = "{476, 0}";
},
{
name = ogonek;
position = "{608, 0}";
},
{
name = top;
position = "{448, 1600}";
},
{
name = topleft;
position = "{80, 1600}";
}
);
layerId = "1DFA7D5B-2E97-4B89-827F-FB43F8066DC1";
paths = (
{
closed = 1;
nodes = (
"380 0 LINE",
"380 1600 LINE",
"80 1600 LINE",
"80 0 LINE"
);
},
{
closed = 1;
nodes = (
"812 0 LINE",
"812 264 LINE",
"514 264 LINE",
"514 0 LINE"
);
},
{
closed = 1;
nodes = (
"792 682 LINE",
"792 946 LINE",
"514 946 LINE",
"514 682 LINE"
);
},
{
closed = 1;
nodes = (
"812 1336 LINE",
"812 1600 LINE",
"514 1600 LINE",
"514 1336 LINE"
);
}
);
width = 852;
},
{
anchors = (
{
name = bottom;
position = "{436, 0}";
},
{
name = ogonek;
position = "{560, 0}";
},
{
name = top;
position = "{430, 1600}";
},
{
name = topleft;
position = "{40, 1600}";
}
);
layerId = "5013C991-8699-46CB-BB1C-82E334DBD38B";
paths = (
{
closed = 1;
nodes = (
"380 0 LINE",
"380 1600 LINE",
"80 1600 LINE",
"80 0 LINE"
);
},
{
closed = 1;
nodes = (
"772 0 LINE",
"772 264 LINE",
"478 264 LINE",
"478 0 LINE"
);
},
{
closed = 1;
nodes = (
"752 682 LINE",
"752 946 LINE",
"478 946 LINE",
"478 682 LINE"
);
},
{
closed = 1;
nodes = (
"772 1336 LINE",
"772 1600 LINE",
"478 1600 LINE",
"478 1336 LINE"
);
}
);
width = 812;
},
{
anchors = (
{
name = bottom;
position = "{270, 0}";
},
{
name = ogonek;
position = "{392, 0}";
},
{
name = top;
position = "{270, 1600}";
},
{
name = topleft;
position = "{80, 1600}";
}
);
layerId = "3D06B89B-468F-44E0-A3D7-A5BC6911123E";
paths = (
{
closed = 1;
nodes = (
"160 0 LINE",
"160 1600 LINE",
"120 1600 LINE",
"120 0 LINE"
);
},
{
closed = 1;
nodes = (
"438 0 LINE",
"438 40 LINE",
"240 40 LINE",
"240 0 LINE"
);
},
{
closed = 1;
nodes = (
"418 780 LINE",
"418 820 LINE",
"240 820 LINE",
"240 780 LINE"
);
},
{
closed = 1;
nodes = (
"438 1560 LINE",
"438 1600 LINE",
"240 1600 LINE",
"240 1560 LINE"
);
}
);
width = 518;
},
{
anchors = (
{
name = bottom;
position = "{391, -3}";
},
{
name = ogonek;
position = "{536, 0}";
},
{
name = top;
position = "{369, 1597}";
},
{
name = topleft;
position = "{140, 1600}";
}
);
layerId = "EB6D3A46-95FC-4F29-8169-EF2A3FEDBD5C";
paths = (
{
closed = 1;
nodes = (
"260 0 LINE",
"260 1600 LINE",
"125 1600 LINE",
"125 0 LINE"
);
},
{
closed = 1;
nodes = (
"622 0 LINE",
"622 123 LINE",
"363 123 LINE",
"363 0 LINE"
);
},
{
closed = 1;
nodes = (
"602 742 LINE",
"602 865 LINE",
"363 865 LINE",
"363 742 LINE"
);
},
{
closed = 1;
nodes = (
"622 1477 LINE",
"622 1600 LINE",
"363 1600 LINE",
"363 1477 LINE"
);
}
);
width = 707;
},
{
anchors = (
{
name = bottom;
position = "{312, 0}";
},
{
name = ogonek;
position = "{434, 0}";
},
{
name = top;
position = "{310, 1600}";
},
{
name = topleft;
position = "{70, 1600}";
}
);
layerId = "C388322D-F001-4130-A10A-708FB59AF746";
paths = (
{
closed = 1;
nodes = (
"215 0 LINE",
"215 1600 LINE",
"110 1600 LINE",
"110 0 LINE"
);
},
{
closed = 1;
nodes = (
"522 0 LINE",
"522 96 LINE",
"300 96 LINE",
"300 0 LINE"
);
},
{
closed = 1;
nodes = (
"502 756 LINE",
"502 852 LINE",
"300 852 LINE",
"300 756 LINE"
);
},
{
closed = 1;
nodes = (
"522 1504 LINE",
"522 1600 LINE",
"300 1600 LINE",
"300 1504 LINE"
);
}
);
width = 592;
}
);
leftKerningGroup = H;
rightKerningGroup = E;
unicode = 0045;
},
{
glyphname = F;
layers = (
{
layerId = "3B122060-26E0-4730-9241-82784E6CB359";
paths = (
{
closed = 1;
nodes = (
"220 0 LINE",
"220 1600 LINE",
"140 1600 LINE",
"140 0 LINE"
);
},
{
closed = 1;
nodes = (
"558 762 LINE",
"558 838 LINE",
"312 838 LINE",
"312 762 LINE"
);
},
{
closed = 1;
nodes = (
"578 1524 LINE",
"578 1600 LINE",
"312 1600 LINE",
"312 1524 LINE"
);
}
);
width = 678;
},
{
layerId = "1DFA7D5B-2E97-4B89-827F-FB43F8066DC1";
paths = (
{
closed = 1;
nodes = (
"380 0 LINE",
"380 1600 LINE",
"80 1600 LINE",
"80 0 LINE"
);
},
{
closed = 1;
nodes = (
"792 682 LINE",
"792 946 LINE",
"512 946 LINE",
"512 682 LINE"
);
},
{
closed = 1;
nodes = (
"812 1336 LINE",
"812 1600 LINE",
"512 1600 LINE",
"512 1336 LINE"
);
}
);
width = 852;
},
{
layerId = "5013C991-8699-46CB-BB1C-82E334DBD38B";
paths = (
{
closed = 1;
nodes = (
"380 0 LINE",
"380 1600 LINE",
"80 1600 LINE",
"80 0 LINE"
);
},
{
closed = 1;
nodes = (
"752 682 LINE",
"752 946 LINE",
"480 946 LINE",
"480 682 LINE"
);
},
{
closed = 1;
nodes = (
"772 1336 LINE",
"772 1600 LINE",
"480 1600 LINE",
"480 1336 LINE"
);
}
);
width = 812;
},
{
layerId = "3D06B89B-468F-44E0-A3D7-A5BC6911123E";
paths = (
{
closed = 1;
nodes = (
"160 0 LINE",
"160 1600 LINE",
"120 1600 LINE",
"120 0 LINE"
);
},
{
closed = 1;
nodes = (
"418 780 LINE",
"418 820 LINE",
"220 820 LINE",
"220 780 LINE"
);
},
{
closed = 1;
nodes = (
"438 1560 LINE",
"438 1600 LINE",
"220 1600 LINE",
"220 1560 LINE"
);
}
);
width = 518;
},
{
layerId = "EB6D3A46-95FC-4F29-8169-EF2A3FEDBD5C";
paths = (
{
closed = 1;
nodes = (
"260 0 LINE",
"260 1600 LINE",
"125 1600 LINE",
"125 0 LINE"
);
},
{
closed = 1;
nodes = (
"617 742 LINE",
"617 865 LINE",
"362 865 LINE",
"362 742 LINE"
);
},
{
closed = 1;
nodes = (
"637 1477 LINE",
"637 1600 LINE",
"362 1600 LINE",
"362 1477 LINE"
);
}
);
width = 722;
},
{
layerId = "C388322D-F001-4130-A10A-708FB59AF746";
paths = (
{
closed = 1;
nodes = (
"215 0 LINE",
"215 1600 LINE",
"110 1600 LINE",
"110 0 LINE"
);
},
{
closed = 1;
nodes = (
"502 756 LINE",
"502 852 LINE",
"285 852 LINE",
"285 756 LINE"
);
},
{
closed = 1;
nodes = (
"522 1504 LINE",
"522 1600 LINE",
"285 1600 LINE",
"285 1504 LINE"
);
}
);
width = 592;
}
);
leftKerningGroup = H;
rightKerningGroup = F;
unicode = 0046;
},
{
glyphname = G;
layers = (
{
anchors = (
{
name = bottom;
position = "{386, 0}";
},
{
name = top;
position = "{386, 1600}";
}
);
background = {
paths = (
{
closed = 1;
nodes = (
"498 -20 OFFCURVE",
"580 66 OFFCURVE",
"580 180 CURVE SMOOTH",
"580 596 LINE",
"540 596 LINE",
"540 180 LINE SMOOTH",
"540 88 OFFCURVE",
"476 20 OFFCURVE",
"390 20 CURVE SMOOTH",
"304 20 OFFCURVE",
"240 88 OFFCURVE",
"240 180 CURVE SMOOTH",
"240 1420 LINE SMOOTH",
"240 1512 OFFCURVE",
"304 1580 OFFCURVE",
"390 1580 CURVE SMOOTH",
"476 1580 OFFCURVE",
"540 1512 OFFCURVE",
"540 1420 CURVE SMOOTH",
"540 1140 LINE",
"580 1140 LINE",
"580 1420 LINE SMOOTH",
"580 1534 OFFCURVE",
"498 1620 OFFCURVE",
"390 1620 CURVE SMOOTH",
"282 1620 OFFCURVE",
"200 1534 OFFCURVE",
"200 1420 CURVE SMOOTH",
"200 180 LINE SMOOTH",
"200 66 OFFCURVE",
"282 -20 OFFCURVE",
"390 -20 CURVE SMOOTH"
);
},
{
closed = 1;
nodes = (
"364 596 LINE",
"580 596 LINE",
"580 636 LINE",
"364 636 LINE"
);
}
);
};
layerId = "3B122060-26E0-4730-9241-82784E6CB359";
paths = (
{
closed = 1;
nodes = (
"342 67 LINE",
"247 74 OFFCURVE",
"226 107 OFFCURVE",
"224 196 CURVE SMOOTH",
"216 670 OFFCURVE",
"216 930 OFFCURVE",
"224 1404 CURVE SMOOTH",
"226 1493 OFFCURVE",
"248 1526 OFFCURVE",
"342 1533 CURVE",
"342 1609 LINE",
"198 1599 OFFCURVE",
"146 1539 OFFCURVE",
"144 1404 CURVE SMOOTH",
"138 972 OFFCURVE",
"138 628 OFFCURVE",
"144 196 CURVE SMOOTH",
"146 61 OFFCURVE",
"197 1 OFFCURVE",
"342 -9 CURVE"
);
},
{
closed = 1;
nodes = (
"580 1 OFFCURVE",
"634 61 OFFCURVE",
"636 196 CURVE SMOOTH",
"638 318 OFFCURVE",
"638 422 OFFCURVE",
"636 614 CURVE",
"370 614 LINE",
"370 534 LINE",
"556 534 LINE",
"558 406 OFFCURVE",
"558 324 OFFCURVE",
"556 196 CURVE SMOOTH",
"554 106 OFFCURVE",
"532 74 OFFCURVE",
"432 67 CURVE",
"432 -9 LINE"
);
},
{
closed = 1;
nodes = (
"628 1070 LINE",
"632 1196 OFFCURVE",
"632 1278 OFFCURVE",
"628 1404 CURVE SMOOTH",
"624 1538 OFFCURVE",
"573 1598 OFFCURVE",
"432 1608 CURVE",
"432 1532 LINE",
"523 1525 OFFCURVE",
"545 1493 OFFCURVE",
"548 1404 CURVE SMOOTH",
"552 1278 OFFCURVE",
"552 1196 OFFCURVE",
"548 1070 CURVE"
);
}
);
width = 738;
},
{
anchors = (
{
name = bottom;
position = "{520, 0}";
},
{
name = top;
position = "{520, 1600}";
}
);
background = {
paths = (
{
closed = 1;
nodes = (
"540 -20 OFFCURVE",
"666 108 OFFCURVE",
"666 280 CURVE SMOOTH",
"666 600 LINE",
"466 600 LINE",
"466 280 LINE SMOOTH",
"466 222 OFFCURVE",
"426 180 OFFCURVE",
"374 180 CURVE SMOOTH",
"324 180 OFFCURVE",
"286 222 OFFCURVE",
"286 280 CURVE SMOOTH",
"286 1320 LINE SMOOTH",
"286 1378 OFFCURVE",
"324 1420 OFFCURVE",
"374 1420 CURVE SMOOTH",
"426 1420 OFFCURVE",
"466 1378 OFFCURVE",
"466 1320 CURVE SMOOTH",
"466 1000 LINE",
"666 1000 LINE",
"666 1320 LINE SMOOTH",
"666 1492 OFFCURVE",
"540 1620 OFFCURVE",
"374 1620 CURVE SMOOTH",
"210 1620 OFFCURVE",
"86 1492 OFFCURVE",
"86 1320 CURVE SMOOTH",
"86 280 LINE SMOOTH",
"86 108 OFFCURVE",
"210 -20 OFFCURVE",
"374 -20 CURVE SMOOTH"
);
},
{
closed = 1;
nodes = (
"372 600 LINE",
"666 600 LINE",
"666 800 LINE",
"372 800 LINE"
);
}
);
};
layerId = "1DFA7D5B-2E97-4B89-827F-FB43F8066DC1";
paths = (
{
closed = 1;
nodes = (
"462 232 LINE",
"413 246 OFFCURVE",
"390 282 OFFCURVE",
"386 346 CURVE SMOOTH",
"370 626 OFFCURVE",
"370 976 OFFCURVE",
"386 1256 CURVE SMOOTH",
"390 1319 OFFCURVE",
"413 1354 OFFCURVE",
"462 1368 CURVE",
"462 1618 LINE",
"206 1601 OFFCURVE",
"97 1477 OFFCURVE",
"86 1202 CURVE SMOOTH",
"78 986 OFFCURVE",
"78 606 OFFCURVE",
"86 382 CURVE SMOOTH",
"95 116 OFFCURVE",
"204 -2 OFFCURVE",
"462 -18 CURVE"
);
},
{
closed = 1;
nodes = (
"847 -1 OFFCURVE",
"955 116 OFFCURVE",
"968 382 CURVE SMOOTH",
"974 504 OFFCURVE",
"976 660 OFFCURVE",
"970 782 CURVE",
"568 782 LINE",
"568 522 LINE",
"678 522 LINE",
"682 476 OFFCURVE",
"682 392 OFFCURVE",
"678 346 CURVE SMOOTH",
"672 281 OFFCURVE",
"647 245 OFFCURVE",
"594 231 CURVE",
"594 -18 LINE"
);
},
{
closed = 1;
nodes = (
"964 1000 LINE",
"968 1062 OFFCURVE",
"968 1158 OFFCURVE",
"964 1220 CURVE SMOOTH",
"947 1484 OFFCURVE",
"841 1601 OFFCURVE",
"594 1618 CURVE",
"594 1367 LINE",
"639 1352 OFFCURVE",
"660 1317 OFFCURVE",
"664 1256 CURVE SMOOTH",
"668 1168 OFFCURVE",
"668 1088 OFFCURVE",
"664 1000 CURVE"
);
}
);
width = 1014;
},
{
anchors = (
{
name = bottom;
position = "{500, 0}";
},
{
name = top;
position = "{500, 1600}";
}
);
background = {
paths = (
{
closed = 1;
nodes = (
"520 -20 OFFCURVE",
"646 108 OFFCURVE",
"646 280 CURVE SMOOTH",
"646 600 LINE",
"446 600 LINE",
"446 280 LINE SMOOTH",
"446 222 OFFCURVE",
"406 180 OFFCURVE",
"354 180 CURVE SMOOTH",
"304 180 OFFCURVE",
"266 222 OFFCURVE",
"266 280 CURVE SMOOTH",
"266 1320 LINE SMOOTH",
"266 1378 OFFCURVE",
"304 1420 OFFCURVE",
"354 1420 CURVE SMOOTH",
"406 1420 OFFCURVE",
"446 1378 OFFCURVE",
"446 1320 CURVE SMOOTH",
"446 1000 LINE",
"646 1000 LINE",
"646 1320 LINE SMOOTH",
"646 1492 OFFCURVE",
"520 1620 OFFCURVE",
"354 1620 CURVE SMOOTH",
"190 1620 OFFCURVE",
"66 1492 OFFCURVE",
"66 1320 CURVE SMOOTH",
"66 280 LINE SMOOTH",
"66 108 OFFCURVE",
"190 -20 OFFCURVE",
"354 -20 CURVE SMOOTH"
);
},
{
closed = 1;
nodes = (
"352 600 LINE",
"646 600 LINE",
"646 800 LINE",
"352 800 LINE"
);
}
);
};
layerId = "5013C991-8699-46CB-BB1C-82E334DBD38B";
paths = (
{
closed = 1;
nodes = (
"458 230 LINE",
"413 243 OFFCURVE",
"389 276 OFFCURVE",
"386 326 CURVE SMOOTH",
"370 606 OFFCURVE",
"370 996 OFFCURVE",
"386 1276 CURVE SMOOTH",
"389 1325 OFFCURVE",
"413 1357 OFFCURVE",
"458 1370 CURVE",
"458 1619 LINE",
"199 1606 OFFCURVE",
"97 1488 OFFCURVE",
"86 1202 CURVE SMOOTH",
"78 986 OFFCURVE",
"78 606 OFFCURVE",
"86 382 CURVE SMOOTH",
"95 110 OFFCURVE",
"194 -6 OFFCURVE",
"458 -19 CURVE"
);
},
{
closed = 1;
nodes = (
"808 -6 OFFCURVE",
"915 111 OFFCURVE",
"928 382 CURVE SMOOTH",
"934 504 OFFCURVE",
"936 660 OFFCURVE",
"930 782 CURVE",
"528 782 LINE",
"528 522 LINE",
"638 522 LINE",
"642 476 OFFCURVE",
"642 372 OFFCURVE",
"638 326 CURVE SMOOTH",
"633 276 OFFCURVE",
"605 243 OFFCURVE",
"558 230 CURVE",
"558 -19 LINE"
);
},
{
closed = 1;
nodes = (
"924 1000 LINE",
"928 1062 OFFCURVE",
"928 1158 OFFCURVE",
"924 1220 CURVE SMOOTH",
"907 1488 OFFCURVE",
"802 1605 OFFCURVE",
"558 1619 CURVE",
"558 1368 LINE",
"598 1355 OFFCURVE",
"621 1323 OFFCURVE",
"624 1276 CURVE SMOOTH",
"628 1202 OFFCURVE",
"628 1074 OFFCURVE",
"624 1000 CURVE"
);
}
);
width = 974;
},
{
anchors = (
{
name = bottom;
position = "{290, 0}";
},
{
name = top;
position = "{290, 1600}";
}
);
background = {
paths = (
{
closed = 1;
nodes = (
"438 -20 OFFCURVE",
"520 66 OFFCURVE",
"520 180 CURVE SMOOTH",
"520 596 LINE",
"480 596 LINE",
"480 180 LINE SMOOTH",
"480 88 OFFCURVE",
"416 20 OFFCURVE",
"330 20 CURVE SMOOTH",
"244 20 OFFCURVE",
"180 88 OFFCURVE",
"180 180 CURVE SMOOTH",
"180 1420 LINE SMOOTH",
"180 1512 OFFCURVE",
"244 1580 OFFCURVE",
"330 1580 CURVE SMOOTH",
"416 1580 OFFCURVE",
"480 1512 OFFCURVE",
"480 1420 CURVE SMOOTH",
"480 1140 LINE",
"520 1140 LINE",
"520 1420 LINE SMOOTH",
"520 1534 OFFCURVE",
"438 1620 OFFCURVE",
"330 1620 CURVE SMOOTH",
"222 1620 OFFCURVE",
"140 1534 OFFCURVE",
"140 1420 CURVE SMOOTH",
"140 180 LINE SMOOTH",
"140 66 OFFCURVE",
"222 -20 OFFCURVE",
"330 -20 CURVE SMOOTH"
);
},
{
closed = 1;
nodes = (
"304 596 LINE",
"520 596 LINE",
"520 636 LINE",
"304 636 LINE"
);
}
);
};
layerId = "3D06B89B-468F-44E0-A3D7-A5BC6911123E";
paths = (
{
closed = 1;
nodes = (
"256 33 LINE",
"191 45 OFFCURVE",
"164 89 OFFCURVE",
"164 176 CURVE SMOOTH",
"160 622 OFFCURVE",
"160 978 OFFCURVE",
"164 1424 CURVE SMOOTH",
"166 1511 OFFCURVE",
"193 1555 OFFCURVE",
"256 1567 CURVE",
"256 1608 LINE",
"165 1596 OFFCURVE",
"126 1540 OFFCURVE",
"124 1424 CURVE SMOOTH",
"118 978 OFFCURVE",
"118 622 OFFCURVE",
"124 176 CURVE SMOOTH",
"126 60 OFFCURVE",
"164 5 OFFCURVE",
"256 -7 CURVE"
);
},
{
closed = 1;
nodes = (
"433 3 OFFCURVE",
"474 58 OFFCURVE",
"476 176 CURVE SMOOTH",
"478 398 OFFCURVE",
"478 522 OFFCURVE",
"476 614 CURVE",
"290 614 LINE",
"290 574 LINE",
"436 574 LINE",
"438 432 OFFCURVE",
"438 318 OFFCURVE",
"436 176 CURVE SMOOTH",
"434 87 OFFCURVE",
"405 43 OFFCURVE",
"336 33 CURVE",
"336 -8 LINE"
);
},
{
closed = 1;
nodes = (
"468 1070 LINE",
"472 1196 OFFCURVE",
"472 1298 OFFCURVE",
"468 1424 CURVE SMOOTH",
"464 1540 OFFCURVE",
"425 1596 OFFCURVE",
"336 1608 CURVE",
"336 1567 LINE",
"398 1555 OFFCURVE",
"425 1511 OFFCURVE",
"428 1424 CURVE SMOOTH",
"432 1298 OFFCURVE",
"432 1196 OFFCURVE",
"428 1070 CURVE"
);
}
);
width = 558;
},
{
anchors = (
{
name = bottom;
position = "{420, 0}";
},
{
name = top;
position = "{420, 1600}";
}
);
layerId = "EB6D3A46-95FC-4F29-8169-EF2A3FEDBD5C";
paths = (
{
closed = 1;
nodes = (
"372 109 LINE",
"289 117 OFFCURVE",
"267 151 OFFCURVE",
"265 234 CURVE SMOOTH",
"255 659 OFFCURVE",
"255 942 OFFCURVE",
"265 1367 CURVE SMOOTH",
"267 1450 OFFCURVE",
"289 1483 OFFCURVE",
"372 1492 CURVE",
"372 1611 LINE",
"200 1600 OFFCURVE",
"134 1524 OFFCURVE",
"130 1354 CURVE SMOOTH",
"123 976 OFFCURVE",
"123 623 OFFCURVE",
"130 243 CURVE SMOOTH",
"133 75 OFFCURVE",
"199 0 OFFCURVE",
"372 -11 CURVE"
);
},
{
closed = 1;
nodes = (
"647 0 OFFCURVE",
"714 74 OFFCURVE",
"719 243 CURVE SMOOTH",
"722 365 OFFCURVE",
"723 482 OFFCURVE",
"720 656 CURVE",
"420 656 LINE",
"420 531 LINE",
"587 531 LINE",
"589 424 OFFCURVE",
"589 341 OFFCURVE",
"587 234 CURVE SMOOTH",
"584 150 OFFCURVE",
"561 116 OFFCURVE",
"473 108 CURVE",
"473 -11 LINE"
);
},
{
closed = 1;
nodes = (
"712 1053 LINE",
"716 1163 OFFCURVE",
"716 1248 OFFCURVE",
"712 1358 CURVE SMOOTH",
"705 1525 OFFCURVE",
"640 1599 OFFCURVE",
"473 1611 CURVE",
"473 1491 LINE",
"552 1482 OFFCURVE",
"573 1449 OFFCURVE",
"577 1367 CURVE SMOOTH",
"581 1251 OFFCURVE",
"581 1169 OFFCURVE",
"577 1053 CURVE"
);
}
);
width = 807;
},
{
anchors = (
{
name = bottom;
position = "{343, 0}";
},
{
name = top;
position = "{343, 1600}";
}
);
layerId = "C388322D-F001-4130-A10A-708FB59AF746";
paths = (
{
closed = 1;
nodes = (
"307 83 LINE",
"246 95 OFFCURVE",
"220 136 OFFCURVE",
"220 214 CURVE SMOOTH",
"213 618 OFFCURVE",
"213 983 OFFCURVE",
"220 1387 CURVE SMOOTH",
"222 1465 OFFCURVE",
"248 1505 OFFCURVE",
"307 1517 CURVE",
"307 1610 LINE",
"173 1599 OFFCURVE",
"119 1527 OFFCURVE",
"115 1369 CURVE SMOOTH",
"108 980 OFFCURVE",
"108 618 OFFCURVE",
"115 228 CURVE SMOOTH",
"118 73 OFFCURVE",
"172 2 OFFCURVE",
"307 -10 CURVE"
);
},
{
closed = 1;
nodes = (
"527 1 OFFCURVE",
"584 72 OFFCURVE",
"589 228 CURVE SMOOTH",
"592 425 OFFCURVE",
"593 557 OFFCURVE",
"590 656 CURVE",
"350 656 LINE",
"350 561 LINE",
"487 561 LINE",
"489 443 OFFCURVE",
"489 332 OFFCURVE",
"487 214 CURVE SMOOTH",
"484 134 OFFCURVE",
"455 93 OFFCURVE",
"392 82 CURVE",
"392 -11 LINE"
);
},
{
closed = 1;
nodes = (
"582 1053 LINE",
"586 1163 OFFCURVE",
"586 1263 OFFCURVE",
"582 1373 CURVE SMOOTH",
"575 1527 OFFCURVE",
"520 1598 OFFCURVE",
"392 1610 CURVE",
"392 1517 LINE",
"448 1505 OFFCURVE",
"474 1464 OFFCURVE",
"477 1387 CURVE SMOOTH",
"481 1274 OFFCURVE",
"481 1166 OFFCURVE",
"477 1053 CURVE"
);
}
);
width = 662;
}
);
leftKerningGroup = O;
rightKerningGroup = O;
unicode = 0047;
},
{
glyphname = H;
layers = (
{
anchors = (
{
name = bottom;
position = "{380, 0}";
},
{
name = center;
position = "{380, 800}";
},
{
name = top;
position = "{380, 1600}";
},
{
name = topleft;
position = "{100, 1600}";
}
);
layerId = "3B122060-26E0-4730-9241-82784E6CB359";
paths = (
{
closed = 1;
nodes = (
"220 0 LINE",
"220 1600 LINE",
"140 1600 LINE",
"140 0 LINE"
);
},
{
closed = 1;
nodes = (
"448 762 LINE",
"468 838 LINE",
"162 838 LINE",
"162 762 LINE"
);
},
{
closed = 1;
nodes = (
"620 0 LINE",
"620 1600 LINE",
"540 1600 LINE",
"540 0 LINE"
);
}
);
width = 760;
},
{
anchors = (
{
name = bottom;
position = "{506, 0}";
},
{
name = center;
position = "{506, 800}";
},
{
name = top;
position = "{506, 1600}";
},
{
name = topleft;
position = "{40, 1600}";
}
);
layerId = "1DFA7D5B-2E97-4B89-827F-FB43F8066DC1";
paths = (
{
closed = 1;
nodes = (
"380 0 LINE",
"380 1600 LINE",
"80 1600 LINE",
"80 0 LINE"
);
},
{
closed = 1;
nodes = (
"496 682 LINE",
"566 946 LINE",
"300 946 LINE",
"300 682 LINE"
);
},
{
closed = 1;
nodes = (
"930 0 LINE",
"930 1600 LINE",
"630 1600 LINE",
"630 0 LINE"
);
}
);
width = 1010;
},
{
anchors = (
{
name = bottom;
position = "{486, 0}";
},
{
name = center;
position = "{486, 800}";
},
{
name = top;
position = "{486, 1600}";
},
{
name = topleft;
position = "{40, 1600}";
}
);
layerId = "5013C991-8699-46CB-BB1C-82E334DBD38B";
paths = (
{
closed = 1;
nodes = (
"380 0 LINE",
"380 1600 LINE",
"80 1600 LINE",
"80 0 LINE"
);
},
{
closed = 1;
nodes = (
"460 682 LINE",
"530 946 LINE",
"260 946 LINE",
"260 682 LINE"
);
},
{
closed = 1;
nodes = (
"890 0 LINE",
"890 1600 LINE",
"590 1600 LINE",
"590 0 LINE"
);
}
);
width = 970;
},
{
anchors = (
{
name = bottom;
position = "{300, 0}";
},
{
name = center;
position = "{300, 800}";
},
{
name = top;
position = "{300, 1600}";
},
{
name = topleft;
position = "{520, 1600}";
}
);
layerId = "3D06B89B-468F-44E0-A3D7-A5BC6911123E";
paths = (
{
closed = 1;
nodes = (
"160 0 LINE",
"160 1600 LINE",
"120 1600 LINE",
"120 0 LINE"
);
},
{
closed = 1;
nodes = (
"370 780 LINE",
"380 820 LINE",
"142 820 LINE",
"142 780 LINE"
);
},
{
closed = 1;
nodes = (
"480 0 LINE",
"480 1600 LINE",
"440 1600 LINE",
"440 0 LINE"
);
}
);
width = 600;
},
{
anchors = (
{
name = bottom;
position = "{412, 0}";
},
{
name = center;
position = "{412, 800}";
},
{
name = top;
position = "{412, 1600}";
},
{
name = topleft;
position = "{85, 1600}";
}
);
layerId = "EB6D3A46-95FC-4F29-8169-EF2A3FEDBD5C";
paths = (
{
closed = 1;
nodes = (
"260 0 LINE",
"260 1600 LINE",
"125 1600 LINE",
"125 0 LINE"
);
},
{
closed = 1;
nodes = (
"460 742 LINE",
"493 865 LINE",
"197 865 LINE",
"197 742 LINE"
);
},
{
closed = 1;
nodes = (
"698 0 LINE",
"698 1600 LINE",
"563 1600 LINE",
"563 0 LINE"
);
}
);
width = 823;
},
{
anchors = (
{
name = bottom;
position = "{347, 0}";
},
{
name = center;
position = "{347, 800}";
},
{
name = top;
position = "{347, 1600}";
},
{
name = topleft;
position = "{400, 1600}";
}
);
layerId = "C388322D-F001-4130-A10A-708FB59AF746";
paths = (
{
closed = 1;
nodes = (
"215 0 LINE",
"215 1600 LINE",
"110 1600 LINE",
"110 0 LINE"
);
},
{
closed = 1;
nodes = (
"393 756 LINE",
"418 852 LINE",
"172 852 LINE",
"172 756 LINE"
);
},
{
closed = 1;
nodes = (
"583 0 LINE",
"583 1600 LINE",
"478 1600 LINE",
"478 0 LINE"
);
}
);
width = 693;
}
);
leftKerningGroup = H;
rightKerningGroup = H;
unicode = 0048;
},
{
glyphname = Hbar;
layers = (
{
components = (
{
name = H;
transform = "{1, 0, 0, 1, -59, 0}";
}
);
layerId = "3B122060-26E0-4730-9241-82784E6CB359";
leftMetricsKey = "=15";
rightMetricsKey = "=15";
paths = (
{
closed = 1;
nodes = (
"15 1142 LINE",
"159 1142 LINE",
"159 1210 LINE",
"15 1210 LINE"
);
},
{
closed = 1;
nodes = (
"217 1142 LINE",
"627 1142 LINE",
"627 1210 LINE",
"217 1210 LINE"
);
}
);
width = 642;
},
{
components = (
{
name = H;
transform = "{1, 0, 0, 1, 46, 0}";
}
);
layerId = "1DFA7D5B-2E97-4B89-827F-FB43F8066DC1";
leftMetricsKey = "=30";
rightMetricsKey = "=30";
paths = (
{
closed = 1;
nodes = (
"30 1054 LINE",
"352 1054 LINE",
"352 1280 LINE",
"30 1280 LINE"
);
},
{
closed = 1;
nodes = (
"526 1054 LINE",
"1072 1054 LINE",
"1072 1280 LINE",
"526 1280 LINE"
);
}
);
width = 1102;
},
{
components = (
{
name = H;
transform = "{1, 0, 0, 1, 66, 0}";
}
);
layerId = "5013C991-8699-46CB-BB1C-82E334DBD38B";
leftMetricsKey = "=30";
rightMetricsKey = "=30";
paths = (
{
closed = 1;
nodes = (
"30 1054 LINE",
"326 1054 LINE",
"326 1280 LINE",
"30 1280 LINE"
);
},
{
closed = 1;
nodes = (
"538 1054 LINE",
"1062 1054 LINE",
"1062 1280 LINE",
"538 1280 LINE"
);
}
);
width = 1092;
},
{
components = (
{
name = H;
transform = "{1, 0, 0, 1, -19, 0}";
}
);
layerId = "3D06B89B-468F-44E0-A3D7-A5BC6911123E";
leftMetricsKey = "=15";
rightMetricsKey = "=15";
paths = (
{
closed = 1;
nodes = (
"15 1160 LINE",
"115 1160 LINE",
"115 1200 LINE",
"15 1200 LINE"
);
},
{
closed = 1;
nodes = (
"223 1160 LINE",
"545 1160 LINE",
"545 1200 LINE",
"223 1200 LINE"
);
}
);
width = 560;
},
{
components = (
{
alignment = -1;
name = H;
transform = "{1, 0, 0, 1, 10, 0}";
}
);
layerId = "EB6D3A46-95FC-4F29-8169-EF2A3FEDBD5C";
leftMetricsKey = "=62";
rightMetricsKey = "=62";
paths = (
{
closed = 1;
nodes = (
"62 1120 LINE",
"250 1120 LINE",
"250 1228 LINE",
"62 1228 LINE"
);
},
{
closed = 1;
nodes = (
"338 1120 LINE",
"782 1120 LINE",
"782 1228 LINE",
"338 1228 LINE"
);
}
);
width = 844;
},
{
components = (
{
alignment = -1;
name = H;
transform = "{1, 0, 0, 1, 39, 0}";
}
);
layerId = "C388322D-F001-4130-A10A-708FB59AF746";
leftMetricsKey = "=55";
paths = (
{
closed = 1;
nodes = (
"55 1134 LINE",
"203 1134 LINE",
"203 1220 LINE",
"55 1220 LINE"
);
},
{
closed = 1;
nodes = (
"337 1134 LINE",
"711 1134 LINE",
"711 1220 LINE",
"337 1220 LINE"
);
}
);
width = 821;
}
);
leftKerningGroup = H;
leftMetricsKey = "H-45";
rightKerningGroup = H;
rightMetricsKey = H;
unicode = 0126;
},
{
glyphname = I;
layers = (
{
anchors = (
{
name = bottom;
position = "{180, 0}";
},
{
name = ogonek;
position = "{178, 0}";
},
{
name = top;
position = "{180, 1600}";
},
{
name = topleft;
position = "{100, 1600}";
}
);
layerId = "3B122060-26E0-4730-9241-82784E6CB359";
paths = (
{
closed = 1;
nodes = (
"220 0 LINE",
"220 1600 LINE",
"140 1600 LINE",
"140 0 LINE"
);
}
);
width = 360;
},
{
anchors = (
{
name = bottom;
position = "{230, 0}";
},
{
name = ogonek;
position = "{188, 0}";
},
{
name = top;
position = "{230, 1600}";
},
{
name = topleft;
position = "{40, 1600}";
}
);
layerId = "1DFA7D5B-2E97-4B89-827F-FB43F8066DC1";
paths = (
{
closed = 1;
nodes = (
"380 0 LINE",
"380 1600 LINE",
"80 1600 LINE",
"80 0 LINE"
);
}
);
width = 460;
},
{
anchors = (
{
name = bottom;
position = "{230, 0}";
},
{
name = ogonek;
position = "{181, 0}";
},
{
name = top;
position = "{230, 1600}";
},
{
name = topleft;
position = "{40, 1600}";
}
);
layerId = "5013C991-8699-46CB-BB1C-82E334DBD38B";
paths = (
{
closed = 1;
nodes = (
"380 0 LINE",
"380 1600 LINE",
"80 1600 LINE",
"80 0 LINE"
);
}
);
width = 460;
},
{
anchors = (
{
name = bottom;
position = "{140, 0}";
},
{
name = ogonek;
position = "{142, 0}";
},
{
name = top;
position = "{140, 1600}";
},
{
name = topleft;
position = "{80, 1600}";
}
);
layerId = "3D06B89B-468F-44E0-A3D7-A5BC6911123E";
paths = (
{
closed = 1;
nodes = (
"160 0 LINE",
"160 1600 LINE",
"120 1600 LINE",
"120 0 LINE"
);
}
);
width = 280;
},
{
anchors = (
{
name = bottom;
position = "{193, 0}";
},
{
name = ogonek;
position = "{181, 0}";
},
{
name = top;
position = "{193, 1600}";
},
{
name = topleft;
position = "{85, 1600}";
}
);
layerId = "EB6D3A46-95FC-4F29-8169-EF2A3FEDBD5C";
paths = (
{
closed = 1;
nodes = (
"260 0 LINE",
"260 1600 LINE",
"125 1600 LINE",
"125 0 LINE"
);
}
);
width = 385;
},
{
anchors = (
{
name = bottom;
position = "{163, 0}";
},
{
name = ogonek;
position = "{152, 0}";
},
{
name = top;
position = "{163, 1600}";
},
{
name = topleft;
position = "{70, 1600}";
}
);
layerId = "C388322D-F001-4130-A10A-708FB59AF746";
paths = (
{
closed = 1;
nodes = (
"215 0 LINE",
"215 1600 LINE",
"110 1600 LINE",
"110 0 LINE"
);
}
);
width = 325;
}
);
leftKerningGroup = H;
rightKerningGroup = H;
unicode = 0049;
},
{
glyphname = J;
layers = (
{
anchors = (
{
name = bottom;
position = "{266, 0}";
},
{
name = top;
position = "{306, 1600}";
}
);
layerId = "3B122060-26E0-4730-9241-82784E6CB359";
paths = (
{
closed = 1;
nodes = (
"212 69 LINE",
"145 79 OFFCURVE",
"125 114 OFFCURVE",
"122 196 CURVE SMOOTH",
"116 326 OFFCURVE",
"118 436 OFFCURVE",
"122 566 CURVE",
"42 566 LINE",
"38 426 OFFCURVE",
"38 336 OFFCURVE",
"42 196 CURVE SMOOTH",
"46 64 OFFCURVE",
"95 4 OFFCURVE",
"212 -8 CURVE"
);
},
{
closed = 1;
nodes = (
"436 2 OFFCURVE",
"490 63 OFFCURVE",
"490 196 CURVE SMOOTH",
"490 1600 LINE",
"410 1600 LINE",
"410 196 LINE SMOOTH",
"410 112 OFFCURVE",
"386 76 OFFCURVE",
"304 68 CURVE",
"304 -8 LINE"
);
}
);
width = 570;
},
{
anchors = (
{
name = bottom;
position = "{460, -20}";
},
{
name = top;
position = "{516, 1600}";
}
);
layerId = "1DFA7D5B-2E97-4B89-827F-FB43F8066DC1";
paths = (
{
closed = 1;
nodes = (
"394 232 LINE",
"347 247 OFFCURVE",
"325 282 OFFCURVE",
"324 346 CURVE SMOOTH",
"322 418 OFFCURVE",
"322 528 OFFCURVE",
"324 600 CURVE",
"42 600 LINE",
"40 536 OFFCURVE",
"40 446 OFFCURVE",
"42 382 CURVE SMOOTH",
"49 117 OFFCURVE",
"152 -1 OFFCURVE",
"394 -18 CURVE"
);
},
{
closed = 1;
nodes = (
"786 -2 OFFCURVE",
"890 116 OFFCURVE",
"890 382 CURVE SMOOTH",
"890 1600 LINE",
"590 1600 LINE",
"590 346 LINE SMOOTH",
"590 283 OFFCURVE",
"571 248 OFFCURVE",
"526 233 CURVE",
"526 -18 LINE"
);
}
);
width = 950;
},
{
anchors = (
{
name = bottom;
position = "{460, -20}";
},
{
name = top;
position = "{516, 1600}";
}
);
layerId = "5013C991-8699-46CB-BB1C-82E334DBD38B";
paths = (
{
closed = 1;
nodes = (
"410 230 LINE",
"366 243 OFFCURVE",
"346 276 OFFCURVE",
"344 326 CURVE SMOOTH",
"342 398 OFFCURVE",
"342 528 OFFCURVE",
"344 600 CURVE",
"62 600 LINE",
"60 536 OFFCURVE",
"60 446 OFFCURVE",
"62 382 CURVE SMOOTH",
"70 111 OFFCURVE",
"155 -6 OFFCURVE",
"410 -19 CURVE"
);
},
{
closed = 1;
nodes = (
"774 -6 OFFCURVE",
"870 110 OFFCURVE",
"870 382 CURVE SMOOTH",
"870 1600 LINE",
"570 1600 LINE",
"570 326 LINE SMOOTH",
"570 276 OFFCURVE",
"552 244 OFFCURVE",
"510 231 CURVE",
"510 -19 LINE"
);
}
);
width = 950;
},
{
anchors = (
{
name = bottom;
position = "{246, 0}";
},
{
name = top;
position = "{286, 1600}";
}
);
layerId = "3D06B89B-468F-44E0-A3D7-A5BC6911123E";
paths = (
{
closed = 1;
nodes = (
"198 33 LINE",
"130 44 OFFCURVE",
"105 88 OFFCURVE",
"102 176 CURVE SMOOTH",
"98 306 OFFCURVE",
"98 436 OFFCURVE",
"102 566 CURVE",
"62 566 LINE",
"58 426 OFFCURVE",
"58 316 OFFCURVE",
"62 176 CURVE SMOOTH",
"64 59 OFFCURVE",
"103 3 OFFCURVE",
"198 -8 CURVE"
);
},
{
closed = 1;
nodes = (
"371 4 OFFCURVE",
"410 59 OFFCURVE",
"410 176 CURVE SMOOTH",
"410 1600 LINE",
"370 1600 LINE",
"370 176 LINE SMOOTH",
"370 88 OFFCURVE",
"343 45 OFFCURVE",
"278 33 CURVE",
"278 -8 LINE"
);
}
);
width = 530;
},
{
anchors = (
{
name = bottom;
position = "{315, -5}";
},
{
name = top;
position = "{359, 1600}";
}
);
layerId = "EB6D3A46-95FC-4F29-8169-EF2A3FEDBD5C";
paths = (
{
closed = 1;
nodes = (
"258 110 LINE",
"196 121 OFFCURVE",
"175 156 OFFCURVE",
"173 234 CURVE SMOOTH",
"168 349 OFFCURVE",
"169 459 OFFCURVE",
"173 575 CURVE",
"42 575 LINE",
"39 454 OFFCURVE",
"39 364 OFFCURVE",
"42 243 CURVE SMOOTH",
"47 77 OFFCURVE",
"109 3 OFFCURVE",
"258 -10 CURVE"
);
},
{
closed = 1;
nodes = (
"524 1 OFFCURVE",
"590 76 OFFCURVE",
"590 243 CURVE SMOOTH",
"590 1600 LINE",
"455 1600 LINE",
"455 234 LINE SMOOTH",
"455 155 OFFCURVE",
"432 119 OFFCURVE",
"360 109 CURVE",
"360 -11 LINE"
);
}
);
width = 665;
},
{
anchors = (
{
name = bottom;
position = "{300, -5}";
},
{
name = top;
position = "{344, 1600}";
}
);
layerId = "C388322D-F001-4130-A10A-708FB59AF746";
paths = (
{
closed = 1;
nodes = (
"251 82 LINE",
"189 94 OFFCURVE",
"165 135 OFFCURVE",
"163 214 CURVE SMOOTH",
"159 329 OFFCURVE",
"159 459 OFFCURVE",
"163 575 CURVE",
"62 575 LINE",
"59 454 OFFCURVE",
"59 349 OFFCURVE",
"62 228 CURVE SMOOTH",
"65 72 OFFCURVE",
"116 1 OFFCURVE",
"251 -11 CURVE"
);
},
{
closed = 1;
nodes = (
"472 1 OFFCURVE",
"525 72 OFFCURVE",
"525 228 CURVE SMOOTH",
"525 1600 LINE",
"420 1600 LINE",
"420 214 LINE SMOOTH",
"420 135 OFFCURVE",
"395 94 OFFCURVE",
"336 83 CURVE",
"336 -11 LINE"
);
}
);
width = 635;
}
);
leftKerningGroup = J;
rightKerningGroup = O;
unicode = 004A;
},
{
glyphname = K;
layers = (
{
anchors = (
{
name = bottom;
position = "{370, 0}";
},
{
name = top;
position = "{350, 1600}";
}
);
background = {
paths = (
{
closed = 1;
nodes = (
"342 722 LINE",
"378 838 LINE",
"604 1600 LINE",
"520 1600 LINE",
"426 1282 LINE",
"256 698 LINE",
"210 698 LINE",
"206 318 LINE"
);
},
{
closed = 1;
nodes = (
"220 0 LINE",
"220 774 LINE",
"220 796 LINE",
"220 1284 LINE",
"220 1600 LINE",
"140 1600 LINE",
"140 0 LINE"
);
},
{
closed = 1;
nodes = (
"636 0 LINE",
"382 854 LINE",
"304 844 LINE",
"550 0 LINE"
);
}
);
};
layerId = "3B122060-26E0-4730-9241-82784E6CB359";
paths = (
{
closed = 1;
nodes = (
"220 0 LINE",
"220 304 LINE",
"604 1600 LINE",
"520 1600 LINE",
"426 1282 LINE",
"256 698 LINE",
"140 698 LINE",
"140 0 LINE"
);
},
{
closed = 1;
nodes = (
"636 0 LINE",
"424 716 LINE",
"382 572 LINE",
"550 0 LINE"
);
},
{
closed = 1;
nodes = (
"220 790 LINE",
"220 1278 LINE",
"220 1600 LINE",
"140 1600 LINE",
"140 790 LINE"
);
}
);
width = 716;
},
{
anchors = (
{
name = bottom;
position = "{530, 0}";
},
{
name = top;
position = "{530, 1600}";
}
);
background = {
paths = (
{
closed = 1;
nodes = (
"574 726 LINE",
"702 850 LINE",
"1004 1600 LINE",
"676 1600 LINE",
"532 1212 LINE",
"436 854 LINE",
"306 854 LINE",
"346 282 LINE"
);
},
{
closed = 1;
nodes = (
"386 0 LINE",
"386 544 LINE",
"362 854 LINE",
"396 1212 LINE",
"400 1600 LINE",
"80 1600 LINE",
"80 0 LINE"
);
},
{
closed = 1;
nodes = (
"1016 0 LINE",
"722 998 LINE",
"508 714 LINE",
"712 0 LINE"
);
}
);
};
layerId = "1DFA7D5B-2E97-4B89-827F-FB43F8066DC1";
paths = (
{
closed = 1;
nodes = (
"386 0 LINE",
"386 240 LINE",
"1004 1600 LINE",
"676 1600 LINE",
"532 1212 LINE",
"436 854 LINE",
"80 854 LINE",
"80 0 LINE"
);
},
{
closed = 1;
nodes = (
"1016 0 LINE",
"774 819 LINE",
"592 414 LINE",
"712 0 LINE"
);
},
{
closed = 1;
nodes = (
"356 956 LINE",
"398 1218 LINE",
"400 1600 LINE",
"80 1600 LINE",
"80 956 LINE"
);
}
);
width = 1056;
},
{
anchors = (
{
name = bottom;
position = "{530, 0}";
},
{
name = top;
position = "{530, 1600}";
}
);
background = {
paths = (
{
closed = 1;
nodes = (
"610 854 LINE",
"662 850 LINE",
"964 1600 LINE",
"636 1600 LINE",
"492 1212 LINE",
"396 854 LINE",
"306 854 LINE",
"346 282 LINE"
);
},
{
closed = 1;
nodes = (
"386 0 LINE",
"386 544 LINE",
"342 854 LINE",
"396 1212 LINE",
"400 1600 LINE",
"80 1600 LINE",
"80 0 LINE"
);
},
{
closed = 1;
nodes = (
"976 0 LINE",
"682 998 LINE",
"468 714 LINE",
"672 0 LINE"
);
}
);
};
layerId = "5013C991-8699-46CB-BB1C-82E334DBD38B";
paths = (
{
closed = 1;
nodes = (
"386 0 LINE",
"386 240 LINE",
"964 1600 LINE",
"636 1600 LINE",
"492 1212 LINE",
"396 854 LINE",
"80 854 LINE",
"80 0 LINE"
);
},
{
closed = 1;
nodes = (
"976 0 LINE",
"734 826 LINE",
"558 404 LINE",
"672 0 LINE"
);
},
{
closed = 1;
nodes = (
"338 946 LINE",
"396 1212 LINE",
"400 1600 LINE",
"80 1600 LINE",
"80 946 LINE"
);
}
);
width = 1016;
},
{
anchors = (
{
name = bottom;
position = "{298, 0}";
},
{
name = top;
position = "{278, 1600}";
}
);
background = {
paths = (
{
closed = 1;
nodes = (
"230 820 LINE",
"238 838 LINE",
"464 1600 LINE",
"420 1600 LINE",
"326 1282 LINE",
"182 790 LINE",
"158 790 LINE",
"154 580 LINE"
);
},
{
closed = 1;
nodes = (
"160 0 LINE",
"160 774 LINE",
"160 796 LINE",
"160 1284 LINE",
"160 1600 LINE",
"120 1600 LINE",
"120 0 LINE"
);
},
{
closed = 1;
nodes = (
"496 0 LINE",
"242 854 LINE",
"204 844 LINE",
"450 0 LINE"
);
}
);
};
layerId = "3D06B89B-468F-44E0-A3D7-A5BC6911123E";
paths = (
{
closed = 1;
nodes = (
"160 0 LINE",
"160 558 LINE",
"464 1600 LINE",
"420 1600 LINE",
"326 1282 LINE",
"182 790 LINE",
"120 790 LINE",
"120 0 LINE"
);
},
{
closed = 1;
nodes = (
"496 0 LINE",
"270 754 LINE",
"248 690 LINE",
"450 0 LINE"
);
},
{
closed = 1;
nodes = (
"160 830 LINE",
"160 1276 LINE",
"160 1600 LINE",
"120 1600 LINE",
"120 830 LINE"
);
}
);
width = 556;
},
{
anchors = (
{
name = bottom;
position = "{410, 0}";
},
{
name = top;
position = "{395, 1600}";
}
);
layerId = "EB6D3A46-95FC-4F29-8169-EF2A3FEDBD5C";
paths = (
{
closed = 1;
nodes = (
"262 0 LINE",
"262 288 LINE",
"704 1600 LINE",
"559 1600 LINE",
"453 1265 LINE",
"301 737 LINE",
"125 737 LINE",
"125 0 LINE"
);
},
{
closed = 1;
nodes = (
"731 0 LINE",
"512 742 LINE",
"435 532 LINE",
"591 0 LINE"
);
},
{
closed = 1;
nodes = (
"254 832 LINE",
"265 1263 LINE",
"265 1600 LINE",
"125 1600 LINE",
"125 832 LINE"
);
}
);
width = 801;
},
{
anchors = (
{
name = bottom;
position = "{356, 0}";
},
{
name = top;
position = "{341, 1600}";
}
);
layerId = "C388322D-F001-4130-A10A-708FB59AF746";
paths = (
{
closed = 1;
nodes = (
"217 0 LINE",
"217 479 LINE",
"589 1600 LINE",
"474 1600 LINE",
"368 1265 LINE",
"236 806 LINE",
"110 806 LINE",
"110 0 LINE"
);
},
{
closed = 1;
nodes = (
"616 0 LINE",
"386 772 LINE",
"326 619 LINE",
"506 0 LINE"
);
},
{
closed = 1;
nodes = (
"205 859 LINE",
"219 1260 LINE",
"220 1600 LINE",
"110 1600 LINE",
"110 859 LINE"
);
}
);
width = 671;
}
);
leftKerningGroup = H;
rightKerningGroup = K;
unicode = 004B;
},
{
glyphname = L;
layers = (
{
anchors = (
{
name = bottom;
position = "{362, 0}";
},
{
name = center;
position = "{330, 800}";
},
{
name = top;
position = "{330, 1600}";
},
{
name = topright;
position = "{498, 1600}";
}
);
layerId = "3B122060-26E0-4730-9241-82784E6CB359";
paths = (
{
closed = 1;
nodes = (
"220 0 LINE",
"220 1600 LINE",
"140 1600 LINE",
"140 0 LINE"
);
},
{
closed = 1;
nodes = (
"578 0 LINE",
"578 76 LINE",
"312 76 LINE",
"312 0 LINE"
);
}
);
width = 658;
},
{
anchors = (
{
name = bottom;
position = "{386, 0}";
},
{
name = center;
position = "{438, 800}";
},
{
name = top;
position = "{438, 1600}";
},
{
name = topright;
position = "{834, 1600}";
}
);
layerId = "1DFA7D5B-2E97-4B89-827F-FB43F8066DC1";
paths = (
{
closed = 1;
nodes = (
"380 0 LINE",
"380 1600 LINE",
"80 1600 LINE",
"80 0 LINE"
);
},
{
closed = 1;
nodes = (
"774 0 LINE",
"774 264 LINE",
"512 264 LINE",
"512 0 LINE"
);
}
);
width = 814;
},
{
anchors = (
{
name = bottom;
position = "{408, 0}";
},
{
name = center;
position = "{438, 800}";
},
{
name = top;
position = "{438, 1600}";
},
{
name = topright;
position = "{834, 1600}";
}
);
layerId = "5013C991-8699-46CB-BB1C-82E334DBD38B";
paths = (
{
closed = 1;
nodes = (
"380 0 LINE",
"380 1600 LINE",
"80 1600 LINE",
"80 0 LINE"
);
},
{
closed = 1;
nodes = (
"774 0 LINE",
"774 264 LINE",
"480 264 LINE",
"480 0 LINE"
);
}
);
width = 814;
},
{
anchors = (
{
name = bottom;
position = "{282, 0}";
},
{
name = center;
position = "{250, 800}";
},
{
name = top;
position = "{250, 1600}";
},
{
name = topright;
position = "{418, 1600}";
}
);
layerId = "3D06B89B-468F-44E0-A3D7-A5BC6911123E";
paths = (
{
closed = 1;
nodes = (
"160 0 LINE",
"160 1600 LINE",
"120 1600 LINE",
"120 0 LINE"
);
},
{
closed = 1;
nodes = (
"438 0 LINE",
"438 40 LINE",
"240 40 LINE",
"240 0 LINE"
);
}
);
width = 498;
},
{
anchors = (
{
name = bottom;
position = "{368, 0}";
},
{
name = center;
position = "{357, 800}";
},
{
name = top;
position = "{357, 1600}";
},
{
name = topright;
position = "{582, 1600}";
}
);
layerId = "EB6D3A46-95FC-4F29-8169-EF2A3FEDBD5C";
paths = (
{
closed = 1;
nodes = (
"260 0 LINE",
"260 1600 LINE",
"125 1600 LINE",
"125 0 LINE"
);
},
{
closed = 1;
nodes = (
"627 0 LINE",
"627 123 LINE",
"362 123 LINE",
"362 0 LINE"
);
}
);
width = 697;
},
{
anchors = (
{
name = bottom;
position = "{314, 0}";
},
{
name = center;
position = "{297, 800}";
},
{
name = top;
position = "{297, 1600}";
},
{
name = topright;
position = "{522, 1600}";
}
);
layerId = "C388322D-F001-4130-A10A-708FB59AF746";
paths = (
{
closed = 1;
nodes = (
"215 0 LINE",
"215 1600 LINE",
"110 1600 LINE",
"110 0 LINE"
);
},
{
closed = 1;
nodes = (
"522 0 LINE",
"522 96 LINE",
"300 96 LINE",
"300 0 LINE"
);
}
);
width = 577;
}
);
leftKerningGroup = H;
rightKerningGroup = L;
unicode = 004C;
},
{
glyphname = Lslash;
layers = (
{
components = (
{
name = L;
}
);
layerId = "3B122060-26E0-4730-9241-82784E6CB359";
paths = (
{
closed = 1;
nodes = (
"100 394 LINE",
"154 566 LINE",
"208 746 LINE",
"346 1200 LINE",
"266 1200 LINE",
"202 988 LINE",
"146 804 LINE",
"20 394 LINE"
);
}
);
width = 658;
},
{
components = (
{
name = L;
transform = "{1, 0, 0, 1, 158, 0}";
}
);
layerId = "1DFA7D5B-2E97-4B89-827F-FB43F8066DC1";
paths = (
{
closed = 1;
nodes = (
"206 360 LINE",
"268 492 LINE",
"518 750 LINE",
"800 1200 LINE",
"574 1200 LINE",
"486 1022 LINE",
"262 780 LINE",
"0 360 LINE"
);
}
);
width = 972;
},
{
components = (
{
name = L;
transform = "{1, 0, 0, 1, 164, 0}";
}
);
layerId = "5013C991-8699-46CB-BB1C-82E334DBD38B";
paths = (
{
closed = 1;
nodes = (
"206 360 LINE",
"268 492 LINE",
"518 750 LINE",
"800 1200 LINE",
"574 1200 LINE",
"486 1022 LINE",
"262 780 LINE",
"0 360 LINE"
);
}
);
width = 978;
},
{
components = (
{
name = L;
}
);
layerId = "3D06B89B-468F-44E0-A3D7-A5BC6911123E";
paths = (
{
closed = 1;
nodes = (
"80 400 LINE",
"126 634 LINE",
"154 774 LINE",
"240 1200 LINE",
"200 1200 LINE",
"152 958 LINE",
"126 826 LINE",
"40 400 LINE"
);
}
);
width = 498;
},
{
components = (
{
alignment = -1;
name = L;
transform = "{1, 0, 0, 1, 40, 0}";
}
);
layerId = "EB6D3A46-95FC-4F29-8169-EF2A3FEDBD5C";
paths = (
{
closed = 1;
nodes = (
"127 386 LINE",
"183 548 LINE",
"286 747 LINE",
"460 1200 LINE",
"343 1200 LINE",
"273 997 LINE",
"175 798 LINE",
"15 386 LINE"
);
}
);
width = 737;
},
{
components = (
{
alignment = -1;
name = L;
transform = "{1, 0, 0, 1, 41, 0}";
}
);
layerId = "C388322D-F001-4130-A10A-708FB59AF746";
paths = (
{
closed = 1;
nodes = (
"112 390 LINE",
"162 599 LINE",
"245 768 LINE",
"380 1200 LINE",
"294 1200 LINE",
"236 974 LINE",
"160 815 LINE",
"30 390 LINE"
);
}
);
width = 618;
}
);
leftKerningGroup = H;
rightKerningGroup = L;
rightMetricsKey = L;
unicode = 0141;
},
{
glyphname = M;
layers = (
{
anchors = (
{
name = bottom;
position = "{430, 0}";
},
{
name = top;
position = "{430, 1600}";
}
);
background = {
paths = (
{
closed = 1;
nodes = (
"200 0 LINE",
"200 460 LINE",
"136 940 LINE",
"120 940 LINE",
"120 0 LINE"
);
},
{
closed = 1;
nodes = (
"410 76 LINE",
"190 1600 LINE",
"110 1600 LINE",
"340 0 LINE",
"514 0 LINE",
"748 1600 LINE",
"668 1600 LINE",
"444 76 LINE"
);
},
{
closed = 1;
nodes = (
"746 940 LINE",
"730 940 LINE",
"666 460 LINE",
"666 0 LINE",
"746 0 LINE"
);
}
);
};
layerId = "3B122060-26E0-4730-9241-82784E6CB359";
paths = (
{
closed = 1;
nodes = (
"634 10 LINE",
"680 452 LINE",
"794 1524 LINE",
"954 1524 LINE",
"954 1600 LINE",
"722 1600 LINE",
"648 918 LINE",
"564 86 LINE",
"530 86 LINE",
"446 918 LINE",
"372 1600 LINE",
"140 1600 LINE",
"140 1524 LINE",
"300 1524 LINE",
"414 452 LINE",
"460 10 LINE"
);
},
{
closed = 1;
nodes = (
"220 0 LINE",
"220 450 LINE",
"220 1452 LINE",
"140 1452 LINE",
"140 0 LINE"
);
},
{
closed = 1;
nodes = (
"954 0 LINE",
"954 1452 LINE",
"874 1452 LINE",
"874 450 LINE",
"874 0 LINE"
);
}
);
width = 1094;
},
{
anchors = (
{
name = bottom;
position = "{826, 0}";
},
{
name = top;
position = "{826, 1600}";
}
);
background = {
paths = (
{
closed = 1;
nodes = (
"246 1118 LINE",
"172 1118 LINE",
"172 0 LINE",
"482 0 LINE",
"482 286 LINE"
);
},
{
closed = 1;
nodes = (
"838 264 LINE",
"814 614 LINE",
"544 1600 LINE",
"212 1600 LINE",
"662 0 LINE",
"1088 0 LINE",
"1538 1600 LINE",
"1206 1600 LINE",
"936 614 LINE",
"912 264 LINE"
);
},
{
closed = 1;
nodes = (
"1268 0 LINE",
"1578 0 LINE",
"1578 1118 LINE",
"1504 1118 LINE",
"1268 286 LINE"
);
}
);
};
layerId = "1DFA7D5B-2E97-4B89-827F-FB43F8066DC1";
paths = (
{
closed = 1;
nodes = (
"1006 0 LINE",
"1140 472 LINE",
"1224 1336 LINE",
"1570 1336 LINE",
"1570 1600 LINE",
"1030 1600 LINE",
"896 994 LINE",
"872 264 LINE",
"780 264 LINE",
"754 994 LINE",
"622 1600 LINE",
"80 1600 LINE",
"80 1336 LINE",
"426 1336 LINE",
"512 472 LINE",
"634 0 LINE"
);
},
{
closed = 1;
nodes = (
"390 0 LINE",
"390 492 LINE",
"342 1244 LINE",
"80 1244 LINE",
"80 0 LINE"
);
},
{
closed = 1;
nodes = (
"1570 0 LINE",
"1570 1244 LINE",
"1308 1244 LINE",
"1260 492 LINE",
"1260 0 LINE"
);
}
);
width = 1650;
},
{
anchors = (
{
name = bottom;
position = "{746, 0}";
},
{
name = top;
position = "{746, 1600}";
}
);
layerId = "5013C991-8699-46CB-BB1C-82E334DBD38B";
paths = (
{
closed = 1;
nodes = (
"906 0 LINE",
"1030 472 LINE",
"1114 1336 LINE",
"1410 1336 LINE",
"1410 1600 LINE",
"930 1600 LINE",
"796 994 LINE",
"772 264 LINE",
"720 264 LINE",
"694 994 LINE",
"562 1600 LINE",
"80 1600 LINE",
"80 1336 LINE",
"376 1336 LINE",
"462 472 LINE",
"584 0 LINE"
);
},
{
closed = 1;
nodes = (
"380 0 LINE",
"380 440 LINE",
"296 1236 LINE",
"80 1236 LINE",
"80 0 LINE"
);
},
{
closed = 1;
nodes = (
"1410 0 LINE",
"1410 1236 LINE",
"1196 1236 LINE",
"1110 440 LINE",
"1110 0 LINE"
);
}
);
width = 1490;
},
{
anchors = (
{
name = bottom;
position = "{408, 0}";
},
{
name = top;
position = "{408, 1600}";
}
);
layerId = "3D06B89B-468F-44E0-A3D7-A5BC6911123E";
paths = (
{
closed = 1;
nodes = (
"456 10 LINE",
"500 452 LINE",
"618 1560 LINE",
"694 1560 LINE",
"694 1600 LINE",
"582 1600 LINE",
"506 918 LINE",
"420 50 LINE",
"394 50 LINE",
"308 918 LINE",
"232 1600 LINE",
"120 1600 LINE",
"120 1560 LINE",
"196 1560 LINE",
"314 452 LINE",
"358 10 LINE"
);
},
{
closed = 1;
nodes = (
"160 0 LINE",
"160 456 LINE",
"160 1500 LINE",
"120 1500 LINE",
"120 0 LINE"
);
},
{
closed = 1;
nodes = (
"694 0 LINE",
"694 1500 LINE",
"654 1500 LINE",
"654 446 LINE",
"654 0 LINE"
);
}
);
width = 814;
},
{
anchors = (
{
name = bottom;
position = "{530, 0}";
},
{
name = top;
position = "{530, 1600}";
}
);
layerId = "EB6D3A46-95FC-4F29-8169-EF2A3FEDBD5C";
paths = (
{
closed = 1;
nodes = (
"756 8 LINE",
"806 478 LINE",
"902 1478 LINE",
"1108 1478 LINE",
"1108 1600 LINE",
"778 1600 LINE",
"718 918 LINE",
"642 130 LINE",
"592 130 LINE",
"514 920 LINE",
"454 1600 LINE",
"126 1600 LINE",
"126 1478 LINE",
"332 1478 LINE",
"430 466 LINE",
"480 8 LINE"
);
},
{
closed = 1;
nodes = (
"262 0 LINE",
"262 460 LINE",
"262 1406 LINE",
"126 1406 LINE",
"126 0 LINE"
);
},
{
closed = 1;
nodes = (
"1108 0 LINE",
"1108 1406 LINE",
"970 1406 LINE",
"970 460 LINE",
"970 0 LINE"
);
}
);
width = 1234;
},
{
anchors = (
{
name = bottom;
position = "{508, 0}";
},
{
name = top;
position = "{508, 1600}";
}
);
layerId = "C388322D-F001-4130-A10A-708FB59AF746";
paths = (
{
closed = 1;
nodes = (
"650 8 LINE",
"688 474 LINE",
"774 1504 LINE",
"946 1504 LINE",
"946 1600 LINE",
"672 1600 LINE",
"624 1016 LINE",
"550 104 LINE",
"518 104 LINE",
"444 1006 LINE",
"396 1600 LINE",
"126 1600 LINE",
"126 1504 LINE",
"298 1504 LINE",
"382 478 LINE",
"420 8 LINE"
);
},
{
closed = 1;
nodes = (
"232 0 LINE",
"232 466 LINE",
"232 1440 LINE",
"126 1440 LINE",
"126 0 LINE"
);
},
{
closed = 1;
nodes = (
"946 0 LINE",
"946 1440 LINE",
"840 1440 LINE",
"840 458 LINE",
"840 0 LINE"
);
}
);
width = 1072;
}
);
leftKerningGroup = H;
rightKerningGroup = H;
unicode = 004D;
},
{
glyphname = N;
layers = (
{
anchors = (
{
name = bottom;
position = "{462, 0}";
},
{
name = top;
position = "{476, 1600}";
}
);
layerId = "3B122060-26E0-4730-9241-82784E6CB359";
paths = (
{
closed = 1;
nodes = (
"750 0 LINE",
"750 76 LINE",
"588 76 LINE",
"442 1096 LINE",
"370 1600 LINE",
"140 1600 LINE",
"140 1524 LINE",
"302 1524 LINE",
"432 600 LINE",
"518 0 LINE"
);
},
{
closed = 1;
nodes = (
"220 0 LINE",
"220 606 LINE",
"220 1452 LINE",
"140 1452 LINE",
"140 0 LINE"
);
},
{
closed = 1;
nodes = (
"750 148 LINE",
"750 1600 LINE",
"670 1600 LINE",
"670 1098 LINE",
"670 148 LINE"
);
}
);
width = 890;
},
{
anchors = (
{
name = bottom;
position = "{594, 0}";
},
{
name = top;
position = "{594, 1600}";
}
);
background = {
paths = (
{
closed = 1;
nodes = (
"422 0 LINE",
"412 614 LINE",
"362 1336 LINE",
"418 1336 LINE",
"522 582 LINE",
"710 0 LINE",
"1188 0 LINE",
"1188 1600 LINE",
"868 1600 LINE",
"878 914 LINE",
"966 264 LINE",
"914 264 LINE",
"744 1070 LINE",
"584 1600 LINE",
"100 1600 LINE",
"100 0 LINE"
);
}
);
};
layerId = "1DFA7D5B-2E97-4B89-827F-FB43F8066DC1";
paths = (
{
closed = 1;
nodes = (
"1118 0 LINE",
"1118 264 LINE",
"804 264 LINE",
"694 1090 LINE",
"574 1600 LINE",
"80 1600 LINE",
"80 1338 LINE",
"398 1338 LINE",
"480 524 LINE",
"600 0 LINE"
);
},
{
closed = 1;
nodes = (
"380 0 LINE",
"354 614 LINE",
"312 1236 LINE",
"80 1236 LINE",
"80 0 LINE"
);
},
{
closed = 1;
nodes = (
"1118 366 LINE",
"1118 1600 LINE",
"816 1600 LINE",
"840 914 LINE",
"884 366 LINE"
);
}
);
width = 1198;
},
{
anchors = (
{
name = bottom;
position = "{544, 0}";
},
{
name = top;
position = "{544, 1600}";
}
);
background = {
paths = (
{
closed = 1;
nodes = (
"372 0 LINE",
"362 614 LINE",
"312 1336 LINE",
"368 1336 LINE",
"472 582 LINE",
"660 0 LINE",
"1138 0 LINE",
"1138 1600 LINE",
"818 1600 LINE",
"828 914 LINE",
"916 264 LINE",
"864 264 LINE",
"694 1070 LINE",
"534 1600 LINE",
"50 1600 LINE",
"50 0 LINE"
);
}
);
};
layerId = "5013C991-8699-46CB-BB1C-82E334DBD38B";
paths = (
{
closed = 1;
nodes = (
"1006 0 LINE",
"1006 264 LINE",
"744 264 LINE",
"634 1090 LINE",
"514 1600 LINE",
"80 1600 LINE",
"80 1338 LINE",
"348 1338 LINE",
"430 524 LINE",
"550 0 LINE"
);
},
{
closed = 1;
nodes = (
"370 0 LINE",
"344 516 LINE",
"266 1238 LINE",
"80 1238 LINE",
"80 0 LINE"
);
},
{
closed = 1;
nodes = (
"1006 364 LINE",
"1006 1600 LINE",
"716 1600 LINE",
"730 1090 LINE",
"822 364 LINE"
);
}
);
width = 1086;
},
{
anchors = (
{
name = bottom;
position = "{322, 0}";
},
{
name = top;
position = "{336, 1600}";
}
);
layerId = "3D06B89B-468F-44E0-A3D7-A5BC6911123E";
paths = (
{
closed = 1;
nodes = (
"530 0 LINE",
"530 40 LINE",
"454 40 LINE",
"302 1096 LINE",
"230 1600 LINE",
"120 1600 LINE",
"120 1560 LINE",
"196 1560 LINE",
"332 600 LINE",
"418 0 LINE"
);
},
{
closed = 1;
nodes = (
"160 0 LINE",
"160 594 LINE",
"160 1500 LINE",
"120 1500 LINE",
"120 0 LINE"
);
},
{
closed = 1;
nodes = (
"530 100 LINE",
"530 1600 LINE",
"490 1600 LINE",
"490 1104 LINE",
"490 100 LINE"
);
}
);
width = 650;
},
{
anchors = (
{
name = bottom;
position = "{496, 0}";
},
{
name = top;
position = "{506, 1600}";
}
);
layerId = "EB6D3A46-95FC-4F29-8169-EF2A3FEDBD5C";
paths = (
{
closed = 1;
nodes = (
"842 0 LINE",
"842 124 LINE",
"642 124 LINE",
"506 1068 LINE",
"432 1600 LINE",
"126 1600 LINE",
"126 1478 LINE",
"326 1478 LINE",
"452 582 LINE",
"538 0 LINE"
);
},
{
closed = 1;
nodes = (
"260 0 LINE",
"254 608 LINE",
"254 1406 LINE",
"126 1406 LINE",
"126 0 LINE"
);
},
{
closed = 1;
nodes = (
"842 196 LINE",
"842 1600 LINE",
"706 1600 LINE",
"712 1052 LINE",
"712 196 LINE"
);
}
);
width = 968;
},
{
anchors = (
{
name = bottom;
position = "{378, 0}";
},
{
name = top;
position = "{388, 1600}";
}
);
layerId = "C388322D-F001-4130-A10A-708FB59AF746";
paths = (
{
closed = 1;
nodes = (
"650 0 LINE",
"650 96 LINE",
"526 96 LINE",
"384 1094 LINE",
"320 1600 LINE",
"110 1600 LINE",
"110 1504 LINE",
"234 1504 LINE",
"358 582 LINE",
"436 0 LINE"
);
},
{
closed = 1;
nodes = (
"212 0 LINE",
"206 600 LINE",
"206 1440 LINE",
"110 1440 LINE",
"110 0 LINE"
);
},
{
closed = 1;
nodes = (
"650 162 LINE",
"650 1600 LINE",
"546 1600 LINE",
"552 1056 LINE",
"552 162 LINE"
);
}
);
width = 760;
}
);
leftKerningGroup = H;
rightKerningGroup = H;
unicode = 004E;
},
{
glyphname = Eng;
layers = (
{
components = (
{
name = N;
}
);
layerId = "3B122060-26E0-4730-9241-82784E6CB359";
paths = (
{
closed = 1;
nodes = (
"702 -404 OFFCURVE",
"750 -328 OFFCURVE",
"750 -196 CURVE SMOOTH",
"750 46 LINE",
"674 46 LINE",
"674 -200 LINE SMOOTH",
"674 -292 OFFCURVE",
"646 -334 OFFCURVE",
"522 -334 CURVE SMOOTH",
"468 -334 OFFCURVE",
"428 -332 OFFCURVE",
"398 -328 CURVE",
"398 -392 LINE",
"434 -400 OFFCURVE",
"494 -404 OFFCURVE",
"526 -404 CURVE SMOOTH"
);
}
);
width = 890;
},
{
components = (
{
name = N;
}
);
layerId = "1DFA7D5B-2E97-4B89-827F-FB43F8066DC1";
paths = (
{
closed = 1;
nodes = (
"974 -422 OFFCURVE",
"1118 -320 OFFCURVE",
"1118 -66 CURVE SMOOTH",
"1118 184 LINE",
"856 184 LINE",
"856 -94 LINE SMOOTH",
"856 -166 OFFCURVE",
"774 -194 OFFCURVE",
"668 -194 CURVE SMOOTH",
"630 -194 OFFCURVE",
"558 -192 OFFCURVE",
"522 -190 CURVE",
"522 -408 LINE",
"570 -416 OFFCURVE",
"622 -422 OFFCURVE",
"668 -422 CURVE SMOOTH"
);
}
);
width = 1198;
},
{
components = (
{
name = N;
}
);
layerId = "5013C991-8699-46CB-BB1C-82E334DBD38B";
paths = (
{
closed = 1;
nodes = (
"862 -422 OFFCURVE",
"1006 -320 OFFCURVE",
"1006 -66 CURVE SMOOTH",
"1006 184 LINE",
"744 184 LINE",
"744 -94 LINE SMOOTH",
"744 -166 OFFCURVE",
"662 -194 OFFCURVE",
"556 -194 CURVE SMOOTH",
"518 -194 OFFCURVE",
"446 -192 OFFCURVE",
"410 -190 CURVE",
"410 -408 LINE",
"458 -416 OFFCURVE",
"510 -422 OFFCURVE",
"556 -422 CURVE SMOOTH"
);
}
);
width = 1086;
},
{
components = (
{
name = N;
}
);
layerId = "3D06B89B-468F-44E0-A3D7-A5BC6911123E";
paths = (
{
closed = 1;
nodes = (
"488 -400 OFFCURVE",
"530 -348 OFFCURVE",
"530 -220 CURVE SMOOTH",
"530 22 LINE",
"490 22 LINE",
"490 -220 LINE SMOOTH",
"490 -330 OFFCURVE",
"460 -360 OFFCURVE",
"364 -360 CURVE SMOOTH",
"322 -360 OFFCURVE",
"290 -358 OFFCURVE",
"262 -352 CURVE",
"262 -390 LINE",
"288 -396 OFFCURVE",
"338 -400 OFFCURVE",
"368 -400 CURVE SMOOTH"
);
}
);
width = 650;
},
{
components = (
{
name = N;
}
);
layerId = "EB6D3A46-95FC-4F29-8169-EF2A3FEDBD5C";
paths = (
{
closed = 1;
nodes = (
"794 -404 OFFCURVE",
"842 -328 OFFCURVE",
"842 -196 CURVE SMOOTH",
"842 46 LINE",
"716 46 LINE",
"716 -200 LINE SMOOTH",
"716 -274 OFFCURVE",
"694 -294 OFFCURVE",
"614 -294 CURVE SMOOTH",
"560 -294 OFFCURVE",
"520 -292 OFFCURVE",
"490 -288 CURVE",
"490 -392 LINE",
"526 -400 OFFCURVE",
"586 -404 OFFCURVE",
"618 -404 CURVE SMOOTH"
);
}
);
width = 968;
},
{
components = (
{
name = N;
}
);
layerId = "C388322D-F001-4130-A10A-708FB59AF746";
paths = (
{
closed = 1;
nodes = (
"608 -400 OFFCURVE",
"650 -348 OFFCURVE",
"650 -220 CURVE SMOOTH",
"650 22 LINE",
"552 22 LINE",
"552 -220 LINE SMOOTH",
"552 -292 OFFCURVE",
"538 -312 OFFCURVE",
"484 -312 CURVE SMOOTH",
"442 -312 OFFCURVE",
"410 -310 OFFCURVE",
"382 -304 CURVE",
"382 -390 LINE",
"408 -396 OFFCURVE",
"458 -400 OFFCURVE",
"488 -400 CURVE SMOOTH"
);
}
);
width = 760;
}
);
leftKerningGroup = H;
leftMetricsKey = N;
rightKerningGroup = H;
rightMetricsKey = N;
unicode = 014A;
},
{
glyphname = O;
layers = (
{
anchors = (
{
name = bottom;
position = "{382, 0}";
},
{
name = center;
position = "{382, 800}";
},
{
name = ogonek;
position = "{308, 0}";
},
{
name = top;
position = "{382, 1600}";
},
{
name = topleft;
position = "{164, 1600}";
},
{
name = topright;
position = "{652, 1600}";
}
);
background = {
paths = (
{
closed = 1;
nodes = (
"470 -20 OFFCURVE",
"560 70 OFFCURVE",
"560 180 CURVE SMOOTH",
"560 1420 LINE SMOOTH",
"560 1530 OFFCURVE",
"470 1620 OFFCURVE",
"360 1620 CURVE SMOOTH",
"250 1620 OFFCURVE",
"160 1530 OFFCURVE",
"160 1420 CURVE SMOOTH",
"160 180 LINE SMOOTH",
"160 70 OFFCURVE",
"250 -20 OFFCURVE",
"360 -20 CURVE SMOOTH"
);
},
{
closed = 1;
nodes = (
"272 20 OFFCURVE",
"200 92 OFFCURVE",
"200 180 CURVE SMOOTH",
"200 1420 LINE SMOOTH",
"200 1508 OFFCURVE",
"272 1580 OFFCURVE",
"360 1580 CURVE SMOOTH",
"448 1580 OFFCURVE",
"520 1508 OFFCURVE",
"520 1420 CURVE SMOOTH",
"520 180 LINE SMOOTH",
"520 92 OFFCURVE",
"448 20 OFFCURVE",
"360 20 CURVE SMOOTH"
);
}
);
};
layerId = "3B122060-26E0-4730-9241-82784E6CB359";
paths = (
{
closed = 1;
nodes = (
"334 68 LINE",
"253 77 OFFCURVE",
"228 113 OFFCURVE",
"226 210 CURVE SMOOTH",
"218 702 OFFCURVE",
"218 922 OFFCURVE",
"226 1388 CURVE SMOOTH",
"228 1485 OFFCURVE",
"253 1523 OFFCURVE",
"334 1532 CURVE",
"334 1608 LINE",
"203 1596 OFFCURVE",
"148 1530 OFFCURVE",
"146 1388 CURVE SMOOTH",
"140 948 OFFCURVE",
"140 670 OFFCURVE",
"146 210 CURVE SMOOTH",
"148 68 OFFCURVE",
"203 4 OFFCURVE",
"334 -8 CURVE"
);
},
{
closed = 1;
nodes = (
"562 5 OFFCURVE",
"616 70 OFFCURVE",
"618 210 CURVE SMOOTH",
"624 670 OFFCURVE",
"624 948 OFFCURVE",
"618 1388 CURVE SMOOTH",
"616 1528 OFFCURVE",
"562 1595 OFFCURVE",
"434 1608 CURVE",
"434 1531 LINE",
"512 1521 OFFCURVE",
"536 1483 OFFCURVE",
"538 1388 CURVE SMOOTH",
"546 908 OFFCURVE",
"546 688 OFFCURVE",
"538 210 CURVE SMOOTH",
"536 115 OFFCURVE",
"512 78 OFFCURVE",
"434 69 CURVE",
"434 -8 LINE"
);
}
);
width = 760;
},
{
anchors = (
{
name = bottom;
position = "{528, 0}";
},
{
name = center;
position = "{528, 800}";
},
{
name = ogonek;
position = "{425, 0}";
},
{
name = top;
position = "{528, 1600}";
},
{
name = topleft;
position = "{60, 1600}";
},
{
name = topright;
position = "{994, 1600}";
}
);
background = {
paths = (
{
closed = 1;
nodes = (
"520 -10 OFFCURVE",
"654 108 OFFCURVE",
"654 254 CURVE SMOOTH",
"654 1350 LINE SMOOTH",
"654 1492 OFFCURVE",
"520 1610 OFFCURVE",
"340 1610 CURVE SMOOTH",
"162 1610 OFFCURVE",
"28 1492 OFFCURVE",
"28 1350 CURVE SMOOTH",
"28 254 LINE SMOOTH",
"28 108 OFFCURVE",
"162 -10 OFFCURVE",
"340 -10 CURVE SMOOTH"
);
},
{
closed = 1;
nodes = (
"288 204 OFFCURVE",
"248 236 OFFCURVE",
"248 280 CURVE SMOOTH",
"248 1322 LINE SMOOTH",
"248 1364 OFFCURVE",
"288 1396 OFFCURVE",
"340 1396 CURVE SMOOTH",
"394 1396 OFFCURVE",
"434 1364 OFFCURVE",
"434 1322 CURVE SMOOTH",
"434 280 LINE SMOOTH",
"434 236 OFFCURVE",
"394 204 OFFCURVE",
"340 204 CURVE SMOOTH"
);
}
);
};
layerId = "1DFA7D5B-2E97-4B89-827F-FB43F8066DC1";
paths = (
{
closed = 1;
nodes = (
"464 233 LINE",
"413 249 OFFCURVE",
"389 291 OFFCURVE",
"388 366 CURVE SMOOTH",
"374 658 OFFCURVE",
"374 944 OFFCURVE",
"388 1236 CURVE SMOOTH",
"389 1310 OFFCURVE",
"413 1351 OFFCURVE",
"464 1367 CURVE",
"464 1618 LINE",
"199 1603 OFFCURVE",
"90 1486 OFFCURVE",
"84 1220 CURVE SMOOTH",
"78 920 OFFCURVE",
"78 682 OFFCURVE",
"84 382 CURVE SMOOTH",
"90 114 OFFCURVE",
"199 -3 OFFCURVE",
"464 -18 CURVE"
);
},
{
closed = 1;
nodes = (
"849 -1 OFFCURVE",
"957 116 OFFCURVE",
"966 382 CURVE SMOOTH",
"978 680 OFFCURVE",
"978 918 OFFCURVE",
"966 1220 CURVE SMOOTH",
"957 1484 OFFCURVE",
"849 1601 OFFCURVE",
"594 1618 CURVE",
"594 1368 LINE",
"646 1352 OFFCURVE",
"669 1310 OFFCURVE",
"670 1236 CURVE SMOOTH",
"684 944 OFFCURVE",
"684 658 OFFCURVE",
"670 366 CURVE SMOOTH",
"669 290 OFFCURVE",
"646 248 OFFCURVE",
"594 232 CURVE",
"594 -18 LINE"
);
}
);
width = 1054;
},
{
anchors = (
{
name = bottom;
position = "{508, 0}";
},
{
name = center;
position = "{508, 800}";
},
{
name = ogonek;
position = "{396, 0}";
},
{
name = top;
position = "{508, 1600}";
},
{
name = topleft;
position = "{40, 1600}";
},
{
name = topright;
position = "{974, 1600}";
}
);
background = {
paths = (
{
closed = 1;
nodes = (
"500 -10 OFFCURVE",
"634 108 OFFCURVE",
"634 254 CURVE SMOOTH",
"634 1350 LINE SMOOTH",
"634 1492 OFFCURVE",
"500 1610 OFFCURVE",
"320 1610 CURVE SMOOTH",
"142 1610 OFFCURVE",
"8 1492 OFFCURVE",
"8 1350 CURVE SMOOTH",
"8 254 LINE SMOOTH",
"8 108 OFFCURVE",
"142 -10 OFFCURVE",
"320 -10 CURVE SMOOTH"
);
},
{
closed = 1;
nodes = (
"268 204 OFFCURVE",
"228 236 OFFCURVE",
"228 280 CURVE SMOOTH",
"228 1322 LINE SMOOTH",
"228 1364 OFFCURVE",
"268 1396 OFFCURVE",
"320 1396 CURVE SMOOTH",
"374 1396 OFFCURVE",
"414 1364 OFFCURVE",
"414 1322 CURVE SMOOTH",
"414 280 LINE SMOOTH",
"414 236 OFFCURVE",
"374 204 OFFCURVE",
"320 204 CURVE SMOOTH"
);
}
);
};
layerId = "5013C991-8699-46CB-BB1C-82E334DBD38B";
paths = (
{
closed = 1;
nodes = (
"458 230 LINE",
"413 243 OFFCURVE",
"388 276 OFFCURVE",
"386 326 CURVE SMOOTH",
"374 598 OFFCURVE",
"374 1004 OFFCURVE",
"386 1276 CURVE SMOOTH",
"388 1324 OFFCURVE",
"413 1357 OFFCURVE",
"458 1370 CURVE",
"458 1619 LINE",
"199 1607 OFFCURVE",
"90 1490 OFFCURVE",
"84 1220 CURVE SMOOTH",
"78 958 OFFCURVE",
"78 644 OFFCURVE",
"84 382 CURVE SMOOTH",
"90 110 OFFCURVE",
"199 -7 OFFCURVE",
"458 -19 CURVE"
);
},
{
closed = 1;
nodes = (
"814 -5 OFFCURVE",
"917 112 OFFCURVE",
"926 382 CURVE SMOOTH",
"936 644 OFFCURVE",
"936 954 OFFCURVE",
"926 1220 CURVE SMOOTH",
"917 1488 OFFCURVE",
"814 1605 OFFCURVE",
"558 1619 CURVE",
"558 1370 LINE",
"602 1357 OFFCURVE",
"626 1324 OFFCURVE",
"628 1276 CURVE SMOOTH",
"640 1004 OFFCURVE",
"640 598 OFFCURVE",
"628 326 CURVE SMOOTH",
"626 276 OFFCURVE",
"603 243 OFFCURVE",
"558 230 CURVE",
"558 -19 LINE"
);
}
);
width = 1014;
},
{
anchors = (
{
name = bottom;
position = "{300, 0}";
},
{
name = center;
position = "{302, 800}";
},
{
name = ogonek;
position = "{242, 0}";
},
{
name = top;
position = "{300, 1600}";
},
{
name = topleft;
position = "{132, 1600}";
},
{
name = topright;
position = "{516, 1600}";
}
);
background = {
paths = (
{
closed = 1;
nodes = (
"410 -20 OFFCURVE",
"500 70 OFFCURVE",
"500 180 CURVE SMOOTH",
"500 1420 LINE SMOOTH",
"500 1530 OFFCURVE",
"410 1620 OFFCURVE",
"300 1620 CURVE SMOOTH",
"190 1620 OFFCURVE",
"100 1530 OFFCURVE",
"100 1420 CURVE SMOOTH",
"100 180 LINE SMOOTH",
"100 70 OFFCURVE",
"190 -20 OFFCURVE",
"300 -20 CURVE SMOOTH"
);
},
{
closed = 1;
nodes = (
"212 20 OFFCURVE",
"140 92 OFFCURVE",
"140 180 CURVE SMOOTH",
"140 1420 LINE SMOOTH",
"140 1508 OFFCURVE",
"212 1580 OFFCURVE",
"300 1580 CURVE SMOOTH",
"388 1580 OFFCURVE",
"460 1508 OFFCURVE",
"460 1420 CURVE SMOOTH",
"460 180 LINE SMOOTH",
"460 92 OFFCURVE",
"388 20 OFFCURVE",
"300 20 CURVE SMOOTH"
);
}
);
};
layerId = "3D06B89B-468F-44E0-A3D7-A5BC6911123E";
paths = (
{
closed = 1;
nodes = (
"262 32 LINE",
"193 42 OFFCURVE",
"168 80 OFFCURVE",
"166 170 CURVE SMOOTH",
"158 628 OFFCURVE",
"156 988 OFFCURVE",
"166 1428 CURVE SMOOTH",
"168 1520 OFFCURVE",
"193 1558 OFFCURVE",
"262 1568 CURVE",
"262 1608 LINE",
"167 1596 OFFCURVE",
"130 1542 OFFCURVE",
"128 1428 CURVE SMOOTH",
"120 978 OFFCURVE",
"120 620 OFFCURVE",
"128 170 CURVE SMOOTH",
"130 57 OFFCURVE",
"167 4 OFFCURVE",
"262 -8 CURVE"
);
},
{
closed = 1;
nodes = (
"440 2 OFFCURVE",
"480 56 OFFCURVE",
"480 170 CURVE SMOOTH",
"484 620 OFFCURVE",
"484 978 OFFCURVE",
"480 1428 CURVE SMOOTH",
"480 1544 OFFCURVE",
"440 1598 OFFCURVE",
"342 1608 CURVE",
"342 1568 LINE",
"410 1556 OFFCURVE",
"436 1520 OFFCURVE",
"438 1428 CURVE SMOOTH",
"444 988 OFFCURVE",
"448 628 OFFCURVE",
"438 170 CURVE SMOOTH",
"436 80 OFFCURVE",
"411 42 OFFCURVE",
"342 32 CURVE",
"342 -8 LINE"
);
}
);
width = 600;
},
{
anchors = (
{
name = bottom;
position = "{419, 0}";
},
{
name = center;
position = "{419, 800}";
},
{
name = ogonek;
position = "{337, 0}";
},
{
name = top;
position = "{419, 1600}";
},
{
name = topleft;
position = "{138, 1600}";
},
{
name = topright;
position = "{738, 1600}";
}
);
layerId = "EB6D3A46-95FC-4F29-8169-EF2A3FEDBD5C";
paths = (
{
closed = 1;
nodes = (
"367 109 LINE",
"293 120 OFFCURVE",
"268 157 OFFCURVE",
"267 249 CURVE SMOOTH",
"257 691 OFFCURVE",
"257 928 OFFCURVE",
"267 1350 CURVE SMOOTH",
"268 1441 OFFCURVE",
"293 1480 OFFCURVE",
"367 1491 CURVE",
"367 1611 LINE",
"202 1598 OFFCURVE",
"133 1519 OFFCURVE",
"131 1346 CURVE SMOOTH",
"125 941 OFFCURVE",
"125 673 OFFCURVE",
"131 253 CURVE SMOOTH",
"133 80 OFFCURVE",
"202 2 OFFCURVE",
"367 -11 CURVE"
);
},
{
closed = 1;
nodes = (
"634 4 OFFCURVE",
"701 81 OFFCURVE",
"705 253 CURVE SMOOTH",
"713 673 OFFCURVE",
"713 941 OFFCURVE",
"705 1346 CURVE SMOOTH",
"701 1517 OFFCURVE",
"634 1596 OFFCURVE",
"474 1610 CURVE",
"474 1490 LINE",
"546 1479 OFFCURVE",
"569 1440 OFFCURVE",
"571 1350 CURVE SMOOTH",
"581 917 OFFCURVE",
"581 681 OFFCURVE",
"571 249 CURVE SMOOTH",
"569 158 OFFCURVE",
"546 121 OFFCURVE",
"474 110 CURVE",
"474 -10 LINE"
);
}
);
width = 834;
},
{
anchors = (
{
name = bottom;
position = "{352, 0}";
},
{
name = center;
position = "{354, 800}";
},
{
name = ogonek;
position = "{281, 0}";
},
{
name = top;
position = "{352, 1600}";
},
{
name = topleft;
position = "{109, 1600}";
},
{
name = topright;
position = "{631, 1600}";
}
);
layerId = "C388322D-F001-4130-A10A-708FB59AF746";
paths = (
{
closed = 1;
nodes = (
"311 82 LINE",
"248 92 OFFCURVE",
"223 129 OFFCURVE",
"221 209 CURVE SMOOTH",
"212 621 OFFCURVE",
"211 992 OFFCURVE",
"221 1390 CURVE SMOOTH",
"223 1471 OFFCURVE",
"248 1508 OFFCURVE",
"311 1518 CURVE",
"311 1611 LINE",
"175 1599 OFFCURVE",
"120 1529 OFFCURVE",
"117 1376 CURVE SMOOTH",
"110 973 OFFCURVE",
"110 626 OFFCURVE",
"117 223 CURVE SMOOTH",
"120 71 OFFCURVE",
"175 1 OFFCURVE",
"311 -11 CURVE"
);
},
{
closed = 1;
nodes = (
"534 0 OFFCURVE",
"589 70 OFFCURVE",
"592 223 CURVE SMOOTH",
"597 626 OFFCURVE",
"597 972 OFFCURVE",
"592 1376 CURVE SMOOTH",
"589 1530 OFFCURVE",
"534 1600 OFFCURVE",
"396 1611 CURVE",
"396 1518 LINE",
"458 1506 OFFCURVE",
"484 1471 OFFCURVE",
"486 1390 CURVE SMOOTH",
"493 992 OFFCURVE",
"496 621 OFFCURVE",
"486 209 CURVE SMOOTH",
"484 129 OFFCURVE",
"459 92 OFFCURVE",
"396 82 CURVE",
"396 -11 LINE"
);
}
);
width = 704;
}
);
leftKerningGroup = O;
rightKerningGroup = O;
unicode = 004F;
},
{
glyphname = Oslash;
layers = (
{
components = (
{
name = O;
}
);
layerId = "3B122060-26E0-4730-9241-82784E6CB359";
paths = (
{
closed = 1;
nodes = (
"450 796 LINE",
"450 976 LINE",
"314 682 LINE",
"314 502 LINE"
);
}
);
width = 760;
},
{
components = (
{
name = O;
}
);
layerId = "1DFA7D5B-2E97-4B89-827F-FB43F8066DC1";
paths = (
{
closed = 1;
nodes = (
"616 664 LINE",
"616 1036 LINE",
"440 796 LINE",
"440 424 LINE"
);
}
);
width = 1054;
},
{
components = (
{
name = O;
}
);
layerId = "5013C991-8699-46CB-BB1C-82E334DBD38B";
paths = (
{
closed = 1;
nodes = (
"580 676 LINE",
"580 1048 LINE",
"436 850 LINE",
"436 478 LINE"
);
}
);
width = 1014;
},
{
components = (
{
name = O;
}
);
layerId = "3D06B89B-468F-44E0-A3D7-A5BC6911123E";
paths = (
{
closed = 1;
nodes = (
"398 908 LINE",
"398 1000 LINE",
"206 626 LINE",
"206 534 LINE"
);
}
);
width = 600;
},
{
components = (
{
alignment = -1;
name = O;
}
);
layerId = "EB6D3A46-95FC-4F29-8169-EF2A3FEDBD5C";
paths = (
{
closed = 1;
nodes = (
"492 763 LINE",
"492 991 LINE",
"346 711 LINE",
"346 483 LINE"
);
}
);
width = 834;
},
{
components = (
{
alignment = -1;
name = O;
}
);
layerId = "C388322D-F001-4130-A10A-708FB59AF746";
paths = (
{
closed = 1;
nodes = (
"444 850 LINE",
"444 1012 LINE",
"264 682 LINE",
"264 520 LINE"
);
}
);
width = 704;
}
);
leftKerningGroup = O;
leftMetricsKey = O;
rightKerningGroup = O;
rightMetricsKey = O;
unicode = 00D8;
},
{
glyphname = P;
layers = (
{
layerId = "3B122060-26E0-4730-9241-82784E6CB359";
paths = (
{
closed = 1;
nodes = (
"220 0 LINE",
"220 1600 LINE",
"140 1600 LINE",
"140 0 LINE"
);
},
{
closed = 1;
nodes = (
"362 690 LINE SMOOTH",
"508 690 OFFCURVE",
"570 744 OFFCURVE",
"576 876 CURVE SMOOTH",
"584 1044 OFFCURVE",
"582 1198 OFFCURVE",
"576 1414 CURVE SMOOTH",
"572 1546 OFFCURVE",
"510 1600 OFFCURVE",
"364 1600 CURVE SMOOTH",
"312 1600 LINE",
"312 1524 LINE",
"364 1524 LINE SMOOTH",
"464 1524 OFFCURVE",
"494 1500 OFFCURVE",
"496 1414 CURVE SMOOTH",
"504 1178 OFFCURVE",
"504 1062 OFFCURVE",
"496 876 CURVE SMOOTH",
"492 790 OFFCURVE",
"466 766 OFFCURVE",
"362 766 CURVE SMOOTH",
"312 766 LINE",
"312 690 LINE"
);
}
);
width = 662;
},
{
layerId = "1DFA7D5B-2E97-4B89-827F-FB43F8066DC1";
paths = (
{
closed = 1;
nodes = (
"380 0 LINE",
"380 1600 LINE",
"80 1600 LINE",
"80 0 LINE"
);
},
{
closed = 1;
nodes = (
"514 508 LINE SMOOTH",
"812 508 OFFCURVE",
"934 620 OFFCURVE",
"944 898 CURVE SMOOTH",
"948 1010 OFFCURVE",
"948 1098 OFFCURVE",
"944 1210 CURVE SMOOTH",
"934 1488 OFFCURVE",
"812 1600 OFFCURVE",
"514 1600 CURVE SMOOTH",
"512 1600 LINE",
"512 1336 LINE",
"514 1336 LINE SMOOTH",
"598 1336 OFFCURVE",
"640 1296 OFFCURVE",
"644 1226 CURVE SMOOTH",
"650 1128 OFFCURVE",
"650 980 OFFCURVE",
"644 882 CURVE SMOOTH",
"640 812 OFFCURVE",
"598 772 OFFCURVE",
"514 772 CURVE SMOOTH",
"512 772 LINE",
"512 508 LINE"
);
}
);
width = 986;
},
{
layerId = "5013C991-8699-46CB-BB1C-82E334DBD38B";
paths = (
{
closed = 1;
nodes = (
"380 0 LINE",
"380 1600 LINE",
"80 1600 LINE",
"80 0 LINE"
);
},
{
closed = 1;
nodes = (
"482 508 LINE SMOOTH",
"780 508 OFFCURVE",
"902 620 OFFCURVE",
"912 898 CURVE SMOOTH",
"916 1010 OFFCURVE",
"916 1098 OFFCURVE",
"912 1210 CURVE SMOOTH",
"902 1488 OFFCURVE",
"780 1600 OFFCURVE",
"482 1600 CURVE SMOOTH",
"480 1600 LINE",
"480 1336 LINE",
"482 1336 LINE SMOOTH",
"566 1336 OFFCURVE",
"608 1296 OFFCURVE",
"612 1226 CURVE SMOOTH",
"618 1128 OFFCURVE",
"618 980 OFFCURVE",
"612 882 CURVE SMOOTH",
"608 812 OFFCURVE",
"566 772 OFFCURVE",
"482 772 CURVE SMOOTH",
"480 772 LINE",
"480 508 LINE"
);
}
);
width = 954;
},
{
layerId = "3D06B89B-468F-44E0-A3D7-A5BC6911123E";
paths = (
{
closed = 1;
nodes = (
"160 0 LINE",
"160 1600 LINE",
"120 1600 LINE",
"120 0 LINE"
);
},
{
closed = 1;
nodes = (
"282 690 LINE SMOOTH",
"400 690 OFFCURVE",
"450 744 OFFCURVE",
"456 876 CURVE SMOOTH",
"464 1044 OFFCURVE",
"464 1198 OFFCURVE",
"456 1414 CURVE SMOOTH",
"450 1546 OFFCURVE",
"400 1600 OFFCURVE",
"284 1600 CURVE SMOOTH",
"240 1600 LINE",
"240 1560 LINE",
"284 1560 LINE SMOOTH",
"376 1560 OFFCURVE",
"412 1518 OFFCURVE",
"416 1414 CURVE SMOOTH",
"422 1222 OFFCURVE",
"422 1068 OFFCURVE",
"416 876 CURVE SMOOTH",
"412 772 OFFCURVE",
"376 730 OFFCURVE",
"282 730 CURVE SMOOTH",
"240 730 LINE",
"240 690 LINE"
);
}
);
width = 522;
},
{
layerId = "EB6D3A46-95FC-4F29-8169-EF2A3FEDBD5C";
paths = (
{
closed = 1;
nodes = (
"260 0 LINE",
"260 1600 LINE",
"125 1600 LINE",
"125 0 LINE"
);
},
{
closed = 1;
nodes = (
"400 645 LINE SMOOTH",
"584 645 OFFCURVE",
"661 713 OFFCURVE",
"668 882 CURVE SMOOTH",
"675 1036 OFFCURVE",
"674 1173 OFFCURVE",
"668 1363 CURVE SMOOTH",
"663 1532 OFFCURVE",
"586 1600 OFFCURVE",
"402 1600 CURVE SMOOTH",
"362 1600 LINE",
"362 1477 LINE",
"402 1477 LINE SMOOTH",
"498 1477 OFFCURVE",
"531 1449 OFFCURVE",
"533 1367 CURVE SMOOTH",
"541 1166 OFFCURVE",
"541 1042 OFFCURVE",
"533 878 CURVE SMOOTH",
"529 796 OFFCURVE",
"499 768 OFFCURVE",
"400 768 CURVE SMOOTH",
"362 768 LINE",
"362 645 LINE"
);
}
);
width = 743;
},
{
layerId = "C388322D-F001-4130-A10A-708FB59AF746";
paths = (
{
closed = 1;
nodes = (
"215 0 LINE",
"215 1600 LINE",
"110 1600 LINE",
"110 0 LINE"
);
},
{
closed = 1;
nodes = (
"332 645 LINE SMOOTH",
"495 645 OFFCURVE",
"563 713 OFFCURVE",
"570 882 CURVE SMOOTH",
"577 1036 OFFCURVE",
"577 1173 OFFCURVE",
"570 1363 CURVE SMOOTH",
"563 1532 OFFCURVE",
"495 1600 OFFCURVE",
"334 1600 CURVE SMOOTH",
"300 1600 LINE",
"300 1504 LINE",
"334 1504 LINE SMOOTH",
"424 1504 OFFCURVE",
"461 1463 OFFCURVE",
"465 1367 CURVE SMOOTH",
"471 1199 OFFCURVE",
"471 1046 OFFCURVE",
"465 878 CURVE SMOOTH",
"461 782 OFFCURVE",
"424 741 OFFCURVE",
"332 741 CURVE SMOOTH",
"300 741 LINE",
"300 645 LINE"
);
}
);
width = 630;
}
);
leftKerningGroup = H;
rightKerningGroup = P;
unicode = 0050;
},
{
glyphname = Thorn;
layers = (
{
layerId = "3B122060-26E0-4730-9241-82784E6CB359";
paths = (
{
closed = 1;
nodes = (
"322 370 LINE SMOOTH",
"468 370 OFFCURVE",
"530 424 OFFCURVE",
"536 556 CURVE SMOOTH",
"544 724 OFFCURVE",
"542 878 OFFCURVE",
"536 1094 CURVE SMOOTH",
"532 1226 OFFCURVE",
"470 1280 OFFCURVE",
"324 1280 CURVE SMOOTH",
"292 1280 LINE",
"292 1204 LINE",
"324 1204 LINE SMOOTH",
"424 1204 OFFCURVE",
"452 1178 OFFCURVE",
"456 1094 CURVE SMOOTH",
"466 882 OFFCURVE",
"462 768 OFFCURVE",
"456 556 CURVE SMOOTH",
"454 472 OFFCURVE",
"424 446 OFFCURVE",
"322 446 CURVE SMOOTH",
"292 446 LINE",
"292 370 LINE"
);
},
{
closed = 1;
nodes = (
"200 0 LINE",
"200 1600 LINE",
"120 1600 LINE",
"120 0 LINE"
);
}
);
width = 602;
},
{
layerId = "1DFA7D5B-2E97-4B89-827F-FB43F8066DC1";
paths = (
{
closed = 1;
nodes = (
"526 268 LINE SMOOTH",
"824 268 OFFCURVE",
"946 380 OFFCURVE",
"956 658 CURVE SMOOTH",
"960 770 OFFCURVE",
"960 858 OFFCURVE",
"956 970 CURVE SMOOTH",
"946 1248 OFFCURVE",
"824 1360 OFFCURVE",
"526 1360 CURVE SMOOTH",
"512 1360 LINE",
"512 1096 LINE",
"526 1096 LINE SMOOTH",
"610 1096 OFFCURVE",
"652 1056 OFFCURVE",
"656 986 CURVE SMOOTH",
"662 888 OFFCURVE",
"662 740 OFFCURVE",
"656 642 CURVE SMOOTH",
"652 572 OFFCURVE",
"610 532 OFFCURVE",
"526 532 CURVE SMOOTH",
"512 532 LINE",
"512 268 LINE"
);
},
{
closed = 1;
nodes = (
"380 0 LINE",
"380 1600 LINE",
"80 1600 LINE",
"80 0 LINE"
);
}
);
width = 1000;
},
{
layerId = "5013C991-8699-46CB-BB1C-82E334DBD38B";
paths = (
{
closed = 1;
nodes = (
"486 268 LINE SMOOTH",
"784 268 OFFCURVE",
"906 380 OFFCURVE",
"916 658 CURVE SMOOTH",
"920 770 OFFCURVE",
"920 858 OFFCURVE",
"916 970 CURVE SMOOTH",
"906 1248 OFFCURVE",
"784 1360 OFFCURVE",
"486 1360 CURVE SMOOTH",
"480 1360 LINE",
"480 1096 LINE",
"486 1096 LINE SMOOTH",
"570 1096 OFFCURVE",
"612 1056 OFFCURVE",
"616 986 CURVE SMOOTH",
"622 888 OFFCURVE",
"622 740 OFFCURVE",
"616 642 CURVE SMOOTH",
"612 572 OFFCURVE",
"570 532 OFFCURVE",
"486 532 CURVE SMOOTH",
"480 532 LINE",
"480 268 LINE"
);
},
{
closed = 1;
nodes = (
"380 0 LINE",
"380 1600 LINE",
"80 1600 LINE",
"80 0 LINE"
);
}
);
width = 958;
},
{
layerId = "3D06B89B-468F-44E0-A3D7-A5BC6911123E";
paths = (
{
closed = 1;
nodes = (
"282 370 LINE SMOOTH",
"400 370 OFFCURVE",
"450 424 OFFCURVE",
"456 556 CURVE SMOOTH",
"464 724 OFFCURVE",
"462 878 OFFCURVE",
"456 1094 CURVE SMOOTH",
"452 1226 OFFCURVE",
"400 1280 OFFCURVE",
"284 1280 CURVE SMOOTH",
"240 1280 LINE",
"240 1240 LINE",
"284 1240 LINE SMOOTH",
"376 1240 OFFCURVE",
"412 1198 OFFCURVE",
"416 1094 CURVE SMOOTH",
"424 902 OFFCURVE",
"424 748 OFFCURVE",
"416 556 CURVE SMOOTH",
"412 452 OFFCURVE",
"376 410 OFFCURVE",
"282 410 CURVE SMOOTH",
"240 410 LINE",
"240 370 LINE"
);
},
{
closed = 1;
nodes = (
"160 0 LINE",
"160 1600 LINE",
"120 1600 LINE",
"120 0 LINE"
);
}
);
width = 522;
},
{
layerId = "EB6D3A46-95FC-4F29-8169-EF2A3FEDBD5C";
paths = (
{
closed = 1;
nodes = (
"373 345 LINE SMOOTH",
"557 345 OFFCURVE",
"634 413 OFFCURVE",
"641 582 CURVE SMOOTH",
"648 736 OFFCURVE",
"647 873 OFFCURVE",
"641 1063 CURVE SMOOTH",
"636 1232 OFFCURVE",
"559 1300 OFFCURVE",
"375 1300 CURVE SMOOTH",
"347 1300 LINE",
"347 1177 LINE",
"375 1177 LINE SMOOTH",
"471 1177 OFFCURVE",
"502 1148 OFFCURVE",
"506 1067 CURVE SMOOTH",
"515 884 OFFCURVE",
"512 761 OFFCURVE",
"506 578 CURVE SMOOTH",
"504 497 OFFCURVE",
"471 468 OFFCURVE",
"373 468 CURVE SMOOTH",
"347 468 LINE",
"347 345 LINE"
);
},
{
closed = 1;
nodes = (
"245 0 LINE",
"245 1600 LINE",
"110 1600 LINE",
"110 0 LINE"
);
}
);
width = 702;
},
{
layerId = "C388322D-F001-4130-A10A-708FB59AF746";
paths = (
{
closed = 1;
nodes = (
"333 345 LINE SMOOTH",
"496 345 OFFCURVE",
"564 413 OFFCURVE",
"571 582 CURVE SMOOTH",
"578 736 OFFCURVE",
"577 873 OFFCURVE",
"571 1063 CURVE SMOOTH",
"566 1232 OFFCURVE",
"496 1300 OFFCURVE",
"335 1300 CURVE SMOOTH",
"300 1300 LINE",
"300 1204 LINE",
"335 1204 LINE SMOOTH",
"425 1204 OFFCURVE",
"462 1163 OFFCURVE",
"466 1067 CURVE SMOOTH",
"474 899 OFFCURVE",
"474 746 OFFCURVE",
"466 578 CURVE SMOOTH",
"462 482 OFFCURVE",
"425 441 OFFCURVE",
"333 441 CURVE SMOOTH",
"300 441 LINE",
"300 345 LINE"
);
},
{
closed = 1;
nodes = (
"215 0 LINE",
"215 1600 LINE",
"110 1600 LINE",
"110 0 LINE"
);
}
);
width = 631;
}
);
leftKerningGroup = H;
rightKerningGroup = P;
unicode = 00DE;
},
{
glyphname = Q;
layers = (
{
background = {
paths = (
{
closed = 1;
nodes = (
"408 -10 OFFCURVE",
"458 42 OFFCURVE",
"458 170 CURVE SMOOTH",
"462 620 OFFCURVE",
"462 978 OFFCURVE",
"458 1428 CURVE SMOOTH",
"458 1558 OFFCURVE",
"408 1610 OFFCURVE",
"282 1610 CURVE SMOOTH",
"156 1610 OFFCURVE",
"106 1558 OFFCURVE",
"106 1428 CURVE SMOOTH",
"102 978 OFFCURVE",
"102 620 OFFCURVE",
"106 170 CURVE SMOOTH",
"106 42 OFFCURVE",
"156 -10 OFFCURVE",
"282 -10 CURVE SMOOTH"
);
},
{
closed = 1;
nodes = (
"188 30 OFFCURVE",
"148 70 OFFCURVE",
"146 170 CURVE SMOOTH",
"140 620 OFFCURVE",
"140 978 OFFCURVE",
"146 1428 CURVE SMOOTH",
"148 1530 OFFCURVE",
"188 1570 OFFCURVE",
"282 1570 CURVE SMOOTH",
"376 1570 OFFCURVE",
"416 1530 OFFCURVE",
"418 1428 CURVE SMOOTH",
"424 978 OFFCURVE",
"424 620 OFFCURVE",
"418 170 CURVE SMOOTH",
"416 70 OFFCURVE",
"376 30 OFFCURVE",
"282 30 CURVE SMOOTH"
);
}
);
};
layerId = "3B122060-26E0-4730-9241-82784E6CB359";
paths = (
{
closed = 1;
nodes = (
"148 68 OFFCURVE",
"203 4 OFFCURVE",
"334 -8 CURVE",
"334 68 LINE",
"253 77 OFFCURVE",
"228 113 OFFCURVE",
"226 210 CURVE SMOOTH",
"218 702 OFFCURVE",
"218 922 OFFCURVE",
"226 1388 CURVE SMOOTH",
"228 1485 OFFCURVE",
"253 1523 OFFCURVE",
"334 1532 CURVE",
"334 1608 LINE",
"203 1596 OFFCURVE",
"148 1530 OFFCURVE",
"146 1388 CURVE SMOOTH",
"140 948 OFFCURVE",
"140 670 OFFCURVE",
"146 210 CURVE SMOOTH"
);
},
{
closed = 1;
nodes = (
"356 -144 OFFCURVE",
"398 -180 OFFCURVE",
"488 -174 CURVE",
"488 -102 LINE",
"448 -106 OFFCURVE",
"432 -94 OFFCURVE",
"424 -50 CURVE",
"344 -50 LINE"
);
},
{
closed = 1;
nodes = (
"562 5 OFFCURVE",
"616 70 OFFCURVE",
"618 210 CURVE SMOOTH",
"624 670 OFFCURVE",
"624 948 OFFCURVE",
"618 1388 CURVE SMOOTH",
"616 1528 OFFCURVE",
"562 1595 OFFCURVE",
"434 1608 CURVE",
"434 1531 LINE",
"512 1521 OFFCURVE",
"536 1483 OFFCURVE",
"538 1388 CURVE SMOOTH",
"546 908 OFFCURVE",
"546 688 OFFCURVE",
"538 210 CURVE SMOOTH",
"536 115 OFFCURVE",
"512 78 OFFCURVE",
"434 69 CURVE",
"434 -8 LINE"
);
}
);
width = 762;
},
{
background = {
paths = (
{
closed = 1;
nodes = (
"780 -20 OFFCURVE",
"900 94 OFFCURVE",
"906 382 CURVE SMOOTH",
"912 680 OFFCURVE",
"912 918 OFFCURVE",
"906 1220 CURVE SMOOTH",
"900 1506 OFFCURVE",
"780 1620 OFFCURVE",
"486 1620 CURVE SMOOTH",
"192 1620 OFFCURVE",
"70 1506 OFFCURVE",
"64 1220 CURVE SMOOTH",
"58 920 OFFCURVE",
"58 682 OFFCURVE",
"64 382 CURVE SMOOTH",
"70 94 OFFCURVE",
"192 -20 OFFCURVE",
"486 -20 CURVE SMOOTH"
);
},
{
closed = 1;
nodes = (
"410 224 OFFCURVE",
"366 260 OFFCURVE",
"364 326 CURVE SMOOTH",
"352 598 OFFCURVE",
"352 1004 OFFCURVE",
"364 1276 CURVE SMOOTH",
"366 1340 OFFCURVE",
"410 1376 OFFCURVE",
"486 1376 CURVE SMOOTH",
"564 1376 OFFCURVE",
"604 1340 OFFCURVE",
"606 1276 CURVE SMOOTH",
"612 1004 OFFCURVE",
"612 598 OFFCURVE",
"606 326 CURVE SMOOTH",
"604 260 OFFCURVE",
"564 224 OFFCURVE",
"486 224 CURVE SMOOTH"
);
}
);
};
layerId = "1DFA7D5B-2E97-4B89-827F-FB43F8066DC1";
paths = (
{
closed = 1;
nodes = (
"90 114 OFFCURVE",
"199 -3 OFFCURVE",
"464 -18 CURVE",
"464 233 LINE",
"413 249 OFFCURVE",
"389 291 OFFCURVE",
"388 366 CURVE SMOOTH",
"374 658 OFFCURVE",
"374 944 OFFCURVE",
"388 1236 CURVE SMOOTH",
"389 1310 OFFCURVE",
"413 1351 OFFCURVE",
"464 1367 CURVE",
"464 1618 LINE",
"199 1603 OFFCURVE",
"90 1486 OFFCURVE",
"84 1220 CURVE SMOOTH",
"78 920 OFFCURVE",
"78 682 OFFCURVE",
"84 382 CURVE SMOOTH"
);
},
{
closed = 1;
nodes = (
"424 -264 OFFCURVE",
"548 -348 OFFCURVE",
"804 -328 CURVE",
"804 -88 LINE",
"740 -96 OFFCURVE",
"698 -78 OFFCURVE",
"680 -38 CURVE",
"392 -38 LINE"
);
},
{
closed = 1;
nodes = (
"849 -1 OFFCURVE",
"957 116 OFFCURVE",
"966 382 CURVE SMOOTH",
"978 680 OFFCURVE",
"978 918 OFFCURVE",
"966 1220 CURVE SMOOTH",
"957 1484 OFFCURVE",
"849 1601 OFFCURVE",
"594 1618 CURVE",
"594 1368 LINE",
"646 1352 OFFCURVE",
"669 1310 OFFCURVE",
"670 1236 CURVE SMOOTH",
"684 944 OFFCURVE",
"684 658 OFFCURVE",
"670 366 CURVE SMOOTH",
"669 290 OFFCURVE",
"646 248 OFFCURVE",
"594 232 CURVE",
"594 -18 LINE"
);
}
);
width = 1054;
},
{
background = {
paths = (
{
closed = 1;
nodes = (
"780 -20 OFFCURVE",
"900 94 OFFCURVE",
"906 382 CURVE SMOOTH",
"912 680 OFFCURVE",
"912 918 OFFCURVE",
"906 1220 CURVE SMOOTH",
"900 1506 OFFCURVE",
"780 1620 OFFCURVE",
"486 1620 CURVE SMOOTH",
"192 1620 OFFCURVE",
"70 1506 OFFCURVE",
"64 1220 CURVE SMOOTH",
"58 920 OFFCURVE",
"58 682 OFFCURVE",
"64 382 CURVE SMOOTH",
"70 94 OFFCURVE",
"192 -20 OFFCURVE",
"486 -20 CURVE SMOOTH"
);
},
{
closed = 1;
nodes = (
"410 224 OFFCURVE",
"366 260 OFFCURVE",
"364 326 CURVE SMOOTH",
"352 598 OFFCURVE",
"352 1004 OFFCURVE",
"364 1276 CURVE SMOOTH",
"366 1340 OFFCURVE",
"410 1376 OFFCURVE",
"486 1376 CURVE SMOOTH",
"564 1376 OFFCURVE",
"604 1340 OFFCURVE",
"606 1276 CURVE SMOOTH",
"612 1004 OFFCURVE",
"612 598 OFFCURVE",
"606 326 CURVE SMOOTH",
"604 260 OFFCURVE",
"564 224 OFFCURVE",
"486 224 CURVE SMOOTH"
);
}
);
};
layerId = "5013C991-8699-46CB-BB1C-82E334DBD38B";
paths = (
{
closed = 1;
nodes = (
"90 110 OFFCURVE",
"199 -7 OFFCURVE",
"458 -19 CURVE",
"458 230 LINE",
"413 243 OFFCURVE",
"388 276 OFFCURVE",
"386 326 CURVE SMOOTH",
"374 598 OFFCURVE",
"374 1004 OFFCURVE",
"386 1276 CURVE SMOOTH",
"388 1324 OFFCURVE",
"413 1357 OFFCURVE",
"458 1370 CURVE",
"458 1619 LINE",
"199 1607 OFFCURVE",
"90 1490 OFFCURVE",
"84 1220 CURVE SMOOTH",
"78 958 OFFCURVE",
"78 644 OFFCURVE",
"84 382 CURVE SMOOTH"
);
},
{
closed = 1;
nodes = (
"418 -256 OFFCURVE",
"542 -337 OFFCURVE",
"794 -318 CURVE",
"794 -78 LINE",
"735 -86 OFFCURVE",
"695 -72 OFFCURVE",
"676 -38 CURVE",
"383 -38 LINE"
);
},
{
closed = 1;
nodes = (
"814 -5 OFFCURVE",
"917 112 OFFCURVE",
"926 382 CURVE SMOOTH",
"936 644 OFFCURVE",
"936 954 OFFCURVE",
"926 1220 CURVE SMOOTH",
"917 1488 OFFCURVE",
"814 1605 OFFCURVE",
"558 1619 CURVE",
"558 1370 LINE",
"602 1357 OFFCURVE",
"626 1324 OFFCURVE",
"628 1276 CURVE SMOOTH",
"640 1004 OFFCURVE",
"640 598 OFFCURVE",
"628 326 CURVE SMOOTH",
"626 276 OFFCURVE",
"603 243 OFFCURVE",
"558 230 CURVE",
"558 -19 LINE"
);
}
);
width = 1014;
},
{
background = {
paths = (
{
closed = 1;
nodes = (
"408 -10 OFFCURVE",
"458 42 OFFCURVE",
"458 170 CURVE SMOOTH",
"462 620 OFFCURVE",
"462 978 OFFCURVE",
"458 1428 CURVE SMOOTH",
"458 1558 OFFCURVE",
"408 1610 OFFCURVE",
"282 1610 CURVE SMOOTH",
"156 1610 OFFCURVE",
"106 1558 OFFCURVE",
"106 1428 CURVE SMOOTH",
"102 978 OFFCURVE",
"102 620 OFFCURVE",
"106 170 CURVE SMOOTH",
"106 42 OFFCURVE",
"156 -10 OFFCURVE",
"282 -10 CURVE SMOOTH"
);
},
{
closed = 1;
nodes = (
"188 30 OFFCURVE",
"148 70 OFFCURVE",
"146 170 CURVE SMOOTH",
"140 620 OFFCURVE",
"140 978 OFFCURVE",
"146 1428 CURVE SMOOTH",
"148 1530 OFFCURVE",
"188 1570 OFFCURVE",
"282 1570 CURVE SMOOTH",
"376 1570 OFFCURVE",
"416 1530 OFFCURVE",
"418 1428 CURVE SMOOTH",
"424 978 OFFCURVE",
"424 620 OFFCURVE",
"418 170 CURVE SMOOTH",
"416 70 OFFCURVE",
"376 30 OFFCURVE",
"282 30 CURVE SMOOTH"
);
}
);
};
layerId = "3D06B89B-468F-44E0-A3D7-A5BC6911123E";
paths = (
{
closed = 1;
nodes = (
"130 57 OFFCURVE",
"167 4 OFFCURVE",
"262 -8 CURVE",
"262 32 LINE",
"193 42 OFFCURVE",
"168 80 OFFCURVE",
"166 170 CURVE SMOOTH",
"158 628 OFFCURVE",
"156 988 OFFCURVE",
"166 1428 CURVE SMOOTH",
"168 1520 OFFCURVE",
"193 1558 OFFCURVE",
"262 1568 CURVE",
"262 1608 LINE",
"167 1596 OFFCURVE",
"130 1542 OFFCURVE",
"128 1428 CURVE SMOOTH",
"120 978 OFFCURVE",
"120 620 OFFCURVE",
"128 170 CURVE SMOOTH"
);
},
{
closed = 1;
nodes = (
"296 -128 OFFCURVE",
"340 -158 OFFCURVE",
"422 -154 CURVE",
"422 -118 LINE",
"366 -122 OFFCURVE",
"336 -102 OFFCURVE",
"322 -50 CURVE",
"282 -50 LINE"
);
},
{
closed = 1;
nodes = (
"440 2 OFFCURVE",
"480 56 OFFCURVE",
"480 170 CURVE SMOOTH",
"484 620 OFFCURVE",
"484 978 OFFCURVE",
"480 1428 CURVE SMOOTH",
"480 1544 OFFCURVE",
"440 1598 OFFCURVE",
"342 1608 CURVE",
"342 1568 LINE",
"411 1558 OFFCURVE",
"436 1520 OFFCURVE",
"438 1428 CURVE SMOOTH",
"444 988 OFFCURVE",
"448 628 OFFCURVE",
"438 170 CURVE SMOOTH",
"436 80 OFFCURVE",
"411 42 OFFCURVE",
"342 32 CURVE",
"342 -8 LINE"
);
}
);
width = 600;
},
{
layerId = "EB6D3A46-95FC-4F29-8169-EF2A3FEDBD5C";
paths = (
{
closed = 1;
nodes = (
"133 80 OFFCURVE",
"202 2 OFFCURVE",
"367 -11 CURVE",
"367 109 LINE",
"293 120 OFFCURVE",
"268 157 OFFCURVE",
"267 249 CURVE SMOOTH",
"257 691 OFFCURVE",
"257 928 OFFCURVE",
"267 1350 CURVE SMOOTH",
"268 1441 OFFCURVE",
"293 1480 OFFCURVE",
"367 1491 CURVE",
"367 1611 LINE",
"202 1598 OFFCURVE",
"133 1519 OFFCURVE",
"131 1346 CURVE SMOOTH",
"125 941 OFFCURVE",
"125 673 OFFCURVE",
"131 253 CURVE SMOOTH"
);
},
{
closed = 1;
nodes = (
"373 -174 OFFCURVE",
"436 -222 OFFCURVE",
"567 -213 CURVE",
"567 -99 LINE",
"521 -104 OFFCURVE",
"499 -90 OFFCURVE",
"488 -47 CURVE",
"356 -47 LINE"
);
},
{
closed = 1;
nodes = (
"634 4 OFFCURVE",
"701 81 OFFCURVE",
"705 253 CURVE SMOOTH",
"713 673 OFFCURVE",
"713 941 OFFCURVE",
"705 1346 CURVE SMOOTH",
"701 1517 OFFCURVE",
"634 1596 OFFCURVE",
"474 1610 CURVE",
"474 1490 LINE",
"546 1479 OFFCURVE",
"569 1440 OFFCURVE",
"571 1350 CURVE SMOOTH",
"581 917 OFFCURVE",
"581 681 OFFCURVE",
"571 249 CURVE SMOOTH",
"569 158 OFFCURVE",
"546 121 OFFCURVE",
"474 110 CURVE",
"474 -10 LINE"
);
}
);
width = 835;
},
{
layerId = "C388322D-F001-4130-A10A-708FB59AF746";
paths = (
{
closed = 1;
nodes = (
"120 71 OFFCURVE",
"175 1 OFFCURVE",
"311 -11 CURVE",
"311 82 LINE",
"248 92 OFFCURVE",
"223 129 OFFCURVE",
"221 209 CURVE SMOOTH",
"212 621 OFFCURVE",
"211 992 OFFCURVE",
"221 1390 CURVE SMOOTH",
"223 1471 OFFCURVE",
"248 1508 OFFCURVE",
"311 1518 CURVE",
"311 1611 LINE",
"175 1599 OFFCURVE",
"120 1529 OFFCURVE",
"117 1376 CURVE SMOOTH",
"110 973 OFFCURVE",
"110 626 OFFCURVE",
"117 223 CURVE SMOOTH"
);
},
{
closed = 1;
nodes = (
"327 -160 OFFCURVE",
"391 -203 OFFCURVE",
"515 -195 CURVE",
"515 -108 LINE",
"458 -113 OFFCURVE",
"426 -94 OFFCURVE",
"410 -47 CURVE",
"307 -47 LINE"
);
},
{
closed = 1;
nodes = (
"534 0 OFFCURVE",
"589 70 OFFCURVE",
"592 223 CURVE SMOOTH",
"597 626 OFFCURVE",
"597 972 OFFCURVE",
"592 1376 CURVE SMOOTH",
"589 1530 OFFCURVE",
"534 1600 OFFCURVE",
"396 1611 CURVE",
"396 1518 LINE",
"459 1508 OFFCURVE",
"484 1471 OFFCURVE",
"486 1390 CURVE SMOOTH",
"493 992 OFFCURVE",
"496 621 OFFCURVE",
"486 209 CURVE SMOOTH",
"484 129 OFFCURVE",
"459 92 OFFCURVE",
"396 82 CURVE",
"396 -11 LINE"
);
}
);
width = 704;
}
);
leftKerningGroup = O;
rightKerningGroup = O;
unicode = 0051;
},
{
glyphname = R;
layers = (
{
anchors = (
{
name = bottom;
position = "{376, 0}";
},
{
name = top;
position = "{364, 1600}";
}
);
background = {
paths = (
{
closed = 1;
nodes = (
"318 756 LINE SMOOTH",
"438 756 OFFCURVE",
"488 800 OFFCURVE",
"492 924 CURVE SMOOTH",
"498 1066 OFFCURVE",
"498 1206 OFFCURVE",
"492 1414 CURVE SMOOTH",
"488 1546 OFFCURVE",
"438 1600 OFFCURVE",
"320 1600 CURVE SMOOTH",
"182 1600 LINE",
"182 1560 LINE",
"320 1560 LINE SMOOTH",
"410 1560 OFFCURVE",
"448 1518 OFFCURVE",
"452 1414 CURVE SMOOTH",
"458 1238 OFFCURVE",
"458 1096 OFFCURVE",
"452 920 CURVE SMOOTH",
"448 816 OFFCURVE",
"410 774 OFFCURVE",
"318 774 CURVE SMOOTH",
"190 774 LINE",
"190 756 LINE"
);
},
{
closed = 1;
nodes = (
"498 0 LINE",
"500 138 OFFCURVE",
"498 306 OFFCURVE",
"496 588 CURVE SMOOTH",
"494 710 OFFCURVE",
"444 754 OFFCURVE",
"324 754 CURVE SMOOTH",
"182 754 LINE",
"182 734 LINE",
"324 734 LINE SMOOTH",
"416 734 OFFCURVE",
"454 692 OFFCURVE",
"456 588 CURVE SMOOTH",
"460 400 OFFCURVE",
"460 232 OFFCURVE",
"458 0 CURVE"
);
},
{
closed = 1;
nodes = (
"200 0 LINE",
"200 1600 LINE",
"160 1600 LINE",
"160 0 LINE"
);
},
{
closed = 1;
nodes = (
"410 740 LINE",
"410 774 LINE",
"190 774 LINE",
"190 740 LINE"
);
}
);
};
layerId = "3B122060-26E0-4730-9241-82784E6CB359";
paths = (
{
closed = 1;
nodes = (
"630 0 LINE",
"482 664 LINE",
"556 686 OFFCURVE",
"590 740 OFFCURVE",
"594 836 CURVE SMOOTH",
"602 1016 OFFCURVE",
"602 1182 OFFCURVE",
"594 1414 CURVE SMOOTH",
"590 1546 OFFCURVE",
"528 1600 OFFCURVE",
"382 1600 CURVE SMOOTH",
"312 1600 LINE",
"312 1524 LINE",
"382 1524 LINE SMOOTH",
"482 1524 OFFCURVE",
"510 1500 OFFCURVE",
"514 1414 CURVE SMOOTH",
"524 1186 OFFCURVE",
"520 1064 OFFCURVE",
"514 836 CURVE SMOOTH",
"512 752 OFFCURVE",
"482 728 OFFCURVE",
"380 728 CURVE SMOOTH",
"320 728 LINE",
"320 652 LINE",
"400 652 LINE",
"546 0 LINE"
);
},
{
closed = 1;
nodes = (
"220 0 LINE",
"220 1600 LINE",
"140 1600 LINE",
"140 0 LINE"
);
}
);
width = 710;
},
{
anchors = (
{
name = bottom;
position = "{500, 0}";
},
{
name = top;
position = "{472, 1600}";
}
);
background = {
paths = (
{
closed = 1;
nodes = (
"466 736 LINE SMOOTH",
"766 740 OFFCURVE",
"888 824 OFFCURVE",
"896 1044 CURVE SMOOTH",
"898 1102 OFFCURVE",
"898 1150 OFFCURVE",
"896 1210 CURVE SMOOTH",
"886 1488 OFFCURVE",
"764 1600 OFFCURVE",
"466 1600 CURVE SMOOTH",
"314 1600 LINE",
"314 1336 LINE",
"466 1336 LINE SMOOTH",
"550 1336 OFFCURVE",
"596 1296 OFFCURVE",
"596 1226 CURVE SMOOTH",
"596 1162 OFFCURVE",
"596 1074 OFFCURVE",
"596 1010 CURVE SMOOTH",
"596 926 OFFCURVE",
"550 880 OFFCURVE",
"466 880 CURVE SMOOTH",
"306 880 LINE",
"306 734 LINE"
);
},
{
closed = 1;
nodes = (
"902 0 LINE",
"904 138 OFFCURVE",
"900 290 OFFCURVE",
"894 428 CURVE SMOOTH",
"884 654 OFFCURVE",
"766 734 OFFCURVE",
"474 734 CURVE SMOOTH",
"306 734 LINE",
"306 614 LINE",
"462 614 LINE SMOOTH",
"544 614 OFFCURVE",
"590 562 OFFCURVE",
"594 470 CURVE SMOOTH",
"600 322 OFFCURVE",
"604 148 OFFCURVE",
"602 0 CURVE"
);
},
{
closed = 1;
nodes = (
"380 0 LINE",
"380 1600 LINE",
"80 1600 LINE",
"80 0 LINE"
);
},
{
closed = 1;
nodes = (
"678 694 LINE",
"678 768 LINE",
"306 768 LINE",
"306 694 LINE"
);
}
);
};
layerId = "1DFA7D5B-2E97-4B89-827F-FB43F8066DC1";
paths = (
{
closed = 1;
nodes = (
"974 0 LINE",
"786 596 LINE",
"888 654 OFFCURVE",
"936 762 OFFCURVE",
"942 930 CURVE SMOOTH",
"946 1042 OFFCURVE",
"946 1098 OFFCURVE",
"942 1210 CURVE SMOOTH",
"932 1488 OFFCURVE",
"810 1600 OFFCURVE",
"512 1600 CURVE SMOOTH",
"510 1600 LINE",
"510 1336 LINE",
"512 1336 LINE SMOOTH",
"596 1336 OFFCURVE",
"638 1296 OFFCURVE",
"642 1226 CURVE SMOOTH",
"648 1128 OFFCURVE",
"648 1012 OFFCURVE",
"642 914 CURVE SMOOTH",
"638 844 OFFCURVE",
"596 804 OFFCURVE",
"512 804 CURVE SMOOTH",
"510 804 LINE",
"510 540 LINE",
"512 540 LINE",
"662 0 LINE"
);
},
{
closed = 1;
nodes = (
"380 0 LINE",
"380 1600 LINE",
"80 1600 LINE",
"80 0 LINE"
);
}
);
width = 1014;
},
{
anchors = (
{
name = bottom;
position = "{500, 0}";
},
{
name = top;
position = "{472, 1600}";
}
);
background = {
paths = (
{
closed = 1;
nodes = (
"466 736 LINE SMOOTH",
"766 740 OFFCURVE",
"888 824 OFFCURVE",
"896 1044 CURVE SMOOTH",
"898 1102 OFFCURVE",
"898 1150 OFFCURVE",
"896 1210 CURVE SMOOTH",
"886 1488 OFFCURVE",
"764 1600 OFFCURVE",
"466 1600 CURVE SMOOTH",
"314 1600 LINE",
"314 1336 LINE",
"466 1336 LINE SMOOTH",
"550 1336 OFFCURVE",
"596 1296 OFFCURVE",
"596 1226 CURVE SMOOTH",
"596 1162 OFFCURVE",
"596 1074 OFFCURVE",
"596 1010 CURVE SMOOTH",
"596 926 OFFCURVE",
"550 880 OFFCURVE",
"466 880 CURVE SMOOTH",
"306 880 LINE",
"306 734 LINE"
);
},
{
closed = 1;
nodes = (
"902 0 LINE",
"904 138 OFFCURVE",
"900 290 OFFCURVE",
"894 428 CURVE SMOOTH",
"884 654 OFFCURVE",
"766 734 OFFCURVE",
"474 734 CURVE SMOOTH",
"306 734 LINE",
"306 614 LINE",
"462 614 LINE SMOOTH",
"544 614 OFFCURVE",
"590 562 OFFCURVE",
"594 470 CURVE SMOOTH",
"600 322 OFFCURVE",
"604 148 OFFCURVE",
"602 0 CURVE"
);
},
{
closed = 1;
nodes = (
"380 0 LINE",
"380 1600 LINE",
"80 1600 LINE",
"80 0 LINE"
);
},
{
closed = 1;
nodes = (
"678 694 LINE",
"678 768 LINE",
"306 768 LINE",
"306 694 LINE"
);
}
);
};
layerId = "5013C991-8699-46CB-BB1C-82E334DBD38B";
paths = (
{
closed = 1;
nodes = (
"944 0 LINE",
"756 596 LINE",
"858 654 OFFCURVE",
"906 762 OFFCURVE",
"912 930 CURVE SMOOTH",
"916 1042 OFFCURVE",
"916 1098 OFFCURVE",
"912 1210 CURVE SMOOTH",
"902 1488 OFFCURVE",
"780 1600 OFFCURVE",
"482 1600 CURVE SMOOTH",
"480 1600 LINE",
"480 1336 LINE",
"482 1336 LINE SMOOTH",
"566 1336 OFFCURVE",
"608 1296 OFFCURVE",
"612 1226 CURVE SMOOTH",
"618 1128 OFFCURVE",
"618 1012 OFFCURVE",
"612 914 CURVE SMOOTH",
"608 844 OFFCURVE",
"566 804 OFFCURVE",
"482 804 CURVE SMOOTH",
"480 804 LINE",
"480 540 LINE",
"482 540 LINE",
"632 0 LINE"
);
},
{
closed = 1;
nodes = (
"380 0 LINE",
"380 1600 LINE",
"80 1600 LINE",
"80 0 LINE"
);
}
);
width = 984;
},
{
anchors = (
{
name = bottom;
position = "{294, 0}";
},
{
name = top;
position = "{264, 1600}";
}
);
background = {
paths = (
{
closed = 1;
nodes = (
"278 756 LINE SMOOTH",
"398 756 OFFCURVE",
"448 800 OFFCURVE",
"452 924 CURVE SMOOTH",
"458 1066 OFFCURVE",
"458 1206 OFFCURVE",
"452 1414 CURVE SMOOTH",
"448 1546 OFFCURVE",
"398 1600 OFFCURVE",
"280 1600 CURVE SMOOTH",
"142 1600 LINE",
"142 1560 LINE",
"280 1560 LINE SMOOTH",
"370 1560 OFFCURVE",
"408 1518 OFFCURVE",
"412 1414 CURVE SMOOTH",
"418 1238 OFFCURVE",
"418 1096 OFFCURVE",
"412 920 CURVE SMOOTH",
"408 816 OFFCURVE",
"370 774 OFFCURVE",
"278 774 CURVE SMOOTH",
"150 774 LINE",
"150 756 LINE"
);
},
{
closed = 1;
nodes = (
"458 0 LINE",
"460 138 OFFCURVE",
"458 306 OFFCURVE",
"456 588 CURVE SMOOTH",
"454 710 OFFCURVE",
"404 754 OFFCURVE",
"284 754 CURVE SMOOTH",
"142 754 LINE",
"142 734 LINE",
"284 734 LINE SMOOTH",
"376 734 OFFCURVE",
"414 692 OFFCURVE",
"416 588 CURVE SMOOTH",
"420 400 OFFCURVE",
"420 232 OFFCURVE",
"418 0 CURVE"
);
},
{
closed = 1;
nodes = (
"160 0 LINE",
"160 1600 LINE",
"120 1600 LINE",
"120 0 LINE"
);
},
{
closed = 1;
nodes = (
"370 740 LINE",
"370 774 LINE",
"150 774 LINE",
"150 740 LINE"
);
}
);
};
layerId = "3D06B89B-468F-44E0-A3D7-A5BC6911123E";
paths = (
{
closed = 1;
nodes = (
"492 0 LINE",
"346 658 LINE",
"418 676 OFFCURVE",
"452 732 OFFCURVE",
"456 836 CURVE SMOOTH",
"464 1004 OFFCURVE",
"464 1198 OFFCURVE",
"456 1414 CURVE SMOOTH",
"450 1546 OFFCURVE",
"400 1600 OFFCURVE",
"284 1600 CURVE SMOOTH",
"240 1600 LINE",
"240 1560 LINE",
"284 1560 LINE SMOOTH",
"376 1560 OFFCURVE",
"412 1518 OFFCURVE",
"416 1414 CURVE SMOOTH",
"422 1222 OFFCURVE",
"422 1028 OFFCURVE",
"416 836 CURVE SMOOTH",
"412 732 OFFCURVE",
"376 690 OFFCURVE",
"282 690 CURVE SMOOTH",
"220 690 LINE",
"220 650 LINE",
"304 650 LINE",
"448 0 LINE"
);
},
{
closed = 1;
nodes = (
"160 0 LINE",
"160 1600 LINE",
"120 1600 LINE",
"120 0 LINE"
);
}
);
width = 552;
},
{
anchors = (
{
name = bottom;
position = "{407, 0}";
},
{
name = top;
position = "{391, 1600}";
}
);
layerId = "EB6D3A46-95FC-4F29-8169-EF2A3FEDBD5C";
paths = (
{
closed = 1;
nodes = (
"716 0 LINE",
"558 647 LINE",
"639 678 OFFCURVE",
"677 746 OFFCURVE",
"681 860 CURVE SMOOTH",
"688 1023 OFFCURVE",
"688 1161 OFFCURVE",
"681 1363 CURVE SMOOTH",
"676 1532 OFFCURVE",
"599 1600 OFFCURVE",
"415 1600 CURVE SMOOTH",
"362 1600 LINE",
"362 1477 LINE",
"415 1477 LINE SMOOTH",
"511 1477 OFFCURVE",
"542 1449 OFFCURVE",
"546 1367 CURVE SMOOTH",
"555 1172 OFFCURVE",
"552 1051 OFFCURVE",
"546 856 CURVE SMOOTH",
"544 775 OFFCURVE",
"511 747 OFFCURVE",
"413 747 CURVE SMOOTH",
"368 747 LINE",
"368 624 LINE",
"428 624 LINE",
"575 0 LINE"
);
},
{
closed = 1;
nodes = (
"260 0 LINE",
"260 1600 LINE",
"125 1600 LINE",
"125 0 LINE"
);
}
);
width = 786;
},
{
anchors = (
{
name = bottom;
position = "{346, 0}";
},
{
name = top;
position = "{316, 1600}";
}
);
layerId = "C388322D-F001-4130-A10A-708FB59AF746";
paths = (
{
closed = 1;
nodes = (
"605 0 LINE",
"449 643 LINE",
"528 671 OFFCURVE",
"566 740 OFFCURVE",
"570 860 CURVE SMOOTH",
"577 1014 OFFCURVE",
"577 1173 OFFCURVE",
"570 1363 CURVE SMOOTH",
"563 1532 OFFCURVE",
"495 1600 OFFCURVE",
"334 1600 CURVE SMOOTH",
"300 1600 LINE",
"300 1504 LINE",
"334 1504 LINE SMOOTH",
"424 1504 OFFCURVE",
"461 1463 OFFCURVE",
"465 1367 CURVE SMOOTH",
"471 1199 OFFCURVE",
"471 1024 OFFCURVE",
"465 856 CURVE SMOOTH",
"461 760 OFFCURVE",
"424 719 OFFCURVE",
"332 719 CURVE SMOOTH",
"285 719 LINE",
"285 623 LINE",
"349 623 LINE",
"494 0 LINE"
);
},
{
closed = 1;
nodes = (
"215 0 LINE",
"215 1600 LINE",
"110 1600 LINE",
"110 0 LINE"
);
}
);
width = 660;
}
);
leftKerningGroup = H;
rightKerningGroup = R;
unicode = 0052;
},
{
glyphname = S;
layers = (
{
anchors = (
{
name = bottom;
position = "{378, 0}";
},
{
name = top;
position = "{378, 1600}";
}
);
layerId = "3B122060-26E0-4730-9241-82784E6CB359";
paths = (
{
closed = 1;
nodes = (
"334 68 LINE",
"251 75 OFFCURVE",
"225 108 OFFCURVE",
"222 196 CURVE SMOOTH",
"216 326 OFFCURVE",
"218 436 OFFCURVE",
"222 566 CURVE",
"142 566 LINE",
"138 420 OFFCURVE",
"138 336 OFFCURVE",
"142 196 CURVE SMOOTH",
"146 63 OFFCURVE",
"201 3 OFFCURVE",
"334 -8 CURVE"
);
},
{
closed = 1;
nodes = (
"556 2 OFFCURVE",
"609 62 OFFCURVE",
"614 196 CURVE SMOOTH",
"618 298 OFFCURVE",
"618 426 OFFCURVE",
"614 532 CURVE SMOOTH",
"608 722 OFFCURVE",
"562 784 OFFCURVE",
"398 824 CURVE SMOOTH",
"324 842 LINE SMOOTH",
"248 862 OFFCURVE",
"226 908 OFFCURVE",
"224 1058 CURVE SMOOTH",
"222 1180 OFFCURVE",
"220 1282 OFFCURVE",
"224 1404 CURVE SMOOTH",
"227 1492 OFFCURVE",
"253 1525 OFFCURVE",
"334 1532 CURVE",
"334 1608 LINE",
"200 1598 OFFCURVE",
"146 1538 OFFCURVE",
"144 1406 CURVE SMOOTH",
"142 1284 OFFCURVE",
"140 1160 OFFCURVE",
"142 1058 CURVE SMOOTH",
"146 858 OFFCURVE",
"186 794 OFFCURVE",
"324 758 CURVE SMOOTH",
"396 740 LINE SMOOTH",
"502 712 OFFCURVE",
"532 668 OFFCURVE",
"534 532 CURVE SMOOTH",
"536 434 OFFCURVE",
"540 294 OFFCURVE",
"534 196 CURVE SMOOTH",
"529 109 OFFCURVE",
"505 76 OFFCURVE",
"426 68 CURVE",
"426 -8 LINE"
);
},
{
closed = 1;
nodes = (
"608 1070 LINE",
"610 1200 OFFCURVE",
"610 1306 OFFCURVE",
"608 1404 CURVE SMOOTH",
"604 1537 OFFCURVE",
"551 1597 OFFCURVE",
"426 1608 CURVE",
"426 1532 LINE",
"501 1523 OFFCURVE",
"525 1490 OFFCURVE",
"528 1404 CURVE SMOOTH",
"532 1306 OFFCURVE",
"532 1208 OFFCURVE",
"528 1070 CURVE"
);
}
);
width = 756;
},
{
anchors = (
{
name = bottom;
position = "{524, 0}";
},
{
name = top;
position = "{524, 1600}";
}
);
background = {
paths = (
{
closed = 1;
nodes = (
"550 618 OFFCURVE",
"586 602 OFFCURVE",
"586 538 CURVE SMOOTH",
"586 382 LINE SMOOTH",
"586 316 OFFCURVE",
"550 280 OFFCURVE",
"484 280 CURVE SMOOTH",
"420 280 OFFCURVE",
"380 316 OFFCURVE",
"380 382 CURVE SMOOTH",
"380 600 LINE",
"80 600 LINE",
"78 536 OFFCURVE",
"78 456 OFFCURVE",
"80 392 CURVE SMOOTH",
"88 134 OFFCURVE",
"226 -10 OFFCURVE",
"484 -10 CURVE SMOOTH",
"742 -10 OFFCURVE",
"886 134 OFFCURVE",
"886 392 CURVE SMOOTH",
"888 438 OFFCURVE",
"888 484 OFFCURVE",
"888 530 CURVE SMOOTH",
"880 788 OFFCURVE",
"742 868 OFFCURVE",
"492 930 CURVE SMOOTH",
"484 932 LINE SMOOTH",
"422 948 OFFCURVE",
"382 968 OFFCURVE",
"382 1034 CURVE SMOOTH",
"382 1220 LINE SMOOTH",
"382 1284 OFFCURVE",
"418 1320 OFFCURVE",
"484 1320 CURVE SMOOTH",
"548 1320 OFFCURVE",
"580 1284 OFFCURVE",
"580 1220 CURVE SMOOTH",
"578 1000 LINE",
"878 1000 LINE",
"880 1066 OFFCURVE",
"882 1144 OFFCURVE",
"880 1210 CURVE SMOOTH",
"872 1468 OFFCURVE",
"742 1610 OFFCURVE",
"484 1610 CURVE SMOOTH",
"226 1610 OFFCURVE",
"88 1468 OFFCURVE",
"82 1210 CURVE SMOOTH",
"82 1160 OFFCURVE",
"80 1092 OFFCURVE",
"80 1042 CURVE SMOOTH",
"88 784 OFFCURVE",
"240 722 OFFCURVE",
"484 640 CURVE SMOOTH",
"490 638 LINE SMOOTH"
);
}
);
};
layerId = "1DFA7D5B-2E97-4B89-827F-FB43F8066DC1";
paths = (
{
closed = 1;
nodes = (
"460 233 LINE",
"412 247 OFFCURVE",
"384 279 OFFCURVE",
"380 326 CURVE SMOOTH",
"372 404 OFFCURVE",
"374 502 OFFCURVE",
"380 600 CURVE",
"98 600 LINE",
"88 536 OFFCURVE",
"88 446 OFFCURVE",
"90 382 CURVE SMOOTH",
"101 116 OFFCURVE",
"208 -1 OFFCURVE",
"460 -18 CURVE"
);
},
{
closed = 1;
nodes = (
"847 -2 OFFCURVE",
"955 116 OFFCURVE",
"966 382 CURVE SMOOTH",
"968 428 OFFCURVE",
"970 482 OFFCURVE",
"968 528 CURVE SMOOTH",
"960 734 OFFCURVE",
"872 870 OFFCURVE",
"646 918 CURVE SMOOTH",
"484 952 LINE SMOOTH",
"416 966 OFFCURVE",
"388 1016 OFFCURVE",
"382 1070 CURVE SMOOTH",
"374 1138 OFFCURVE",
"374 1208 OFFCURVE",
"382 1276 CURVE SMOOTH",
"388 1321 OFFCURVE",
"415 1352 OFFCURVE",
"460 1367 CURVE",
"460 1618 LINE",
"202 1602 OFFCURVE",
"93 1484 OFFCURVE",
"82 1220 CURVE SMOOTH",
"80 1170 OFFCURVE",
"80 1128 OFFCURVE",
"82 1070 CURVE SMOOTH",
"88 870 OFFCURVE",
"156 740 OFFCURVE",
"366 692 CURVE SMOOTH",
"550 650 LINE SMOOTH",
"614 636 OFFCURVE",
"660 584 OFFCURVE",
"666 528 CURVE SMOOTH",
"674 460 OFFCURVE",
"674 394 OFFCURVE",
"666 326 CURVE SMOOTH",
"660 280 OFFCURVE",
"635 249 OFFCURVE",
"592 234 CURVE",
"592 -18 LINE"
);
},
{
closed = 1;
nodes = (
"956 1000 LINE",
"960 1070 OFFCURVE",
"962 1162 OFFCURVE",
"960 1220 CURVE SMOOTH",
"949 1484 OFFCURVE",
"842 1601 OFFCURVE",
"592 1618 CURVE",
"592 1368 LINE",
"641 1354 OFFCURVE",
"669 1322 OFFCURVE",
"670 1276 CURVE SMOOTH",
"674 1184 OFFCURVE",
"672 1092 OFFCURVE",
"668 1000 CURVE"
);
}
);
width = 1048;
},
{
anchors = (
{
name = bottom;
position = "{504, 0}";
},
{
name = top;
position = "{504, 1600}";
}
);
background = {
paths = (
{
closed = 1;
nodes = (
"530 618 OFFCURVE",
"566 602 OFFCURVE",
"566 538 CURVE SMOOTH",
"566 382 LINE SMOOTH",
"566 316 OFFCURVE",
"530 280 OFFCURVE",
"464 280 CURVE SMOOTH",
"400 280 OFFCURVE",
"360 316 OFFCURVE",
"360 382 CURVE SMOOTH",
"360 600 LINE",
"60 600 LINE",
"58 536 OFFCURVE",
"58 456 OFFCURVE",
"60 392 CURVE SMOOTH",
"68 134 OFFCURVE",
"206 -10 OFFCURVE",
"464 -10 CURVE SMOOTH",
"722 -10 OFFCURVE",
"866 134 OFFCURVE",
"866 392 CURVE SMOOTH",
"868 438 OFFCURVE",
"868 484 OFFCURVE",
"868 530 CURVE SMOOTH",
"860 788 OFFCURVE",
"722 868 OFFCURVE",
"472 930 CURVE SMOOTH",
"464 932 LINE SMOOTH",
"402 948 OFFCURVE",
"362 968 OFFCURVE",
"362 1034 CURVE SMOOTH",
"362 1220 LINE SMOOTH",
"362 1284 OFFCURVE",
"398 1320 OFFCURVE",
"464 1320 CURVE SMOOTH",
"528 1320 OFFCURVE",
"560 1284 OFFCURVE",
"560 1220 CURVE SMOOTH",
"558 1000 LINE",
"858 1000 LINE",
"860 1066 OFFCURVE",
"862 1144 OFFCURVE",
"860 1210 CURVE SMOOTH",
"852 1468 OFFCURVE",
"722 1610 OFFCURVE",
"464 1610 CURVE SMOOTH",
"206 1610 OFFCURVE",
"68 1468 OFFCURVE",
"62 1210 CURVE SMOOTH",
"62 1160 OFFCURVE",
"60 1092 OFFCURVE",
"60 1042 CURVE SMOOTH",
"68 784 OFFCURVE",
"220 722 OFFCURVE",
"464 640 CURVE SMOOTH",
"470 638 LINE SMOOTH"
);
}
);
};
layerId = "5013C991-8699-46CB-BB1C-82E334DBD38B";
paths = (
{
closed = 1;
nodes = (
"456 230 LINE",
"409 243 OFFCURVE",
"385 276 OFFCURVE",
"380 326 CURVE SMOOTH",
"372 404 OFFCURVE",
"374 502 OFFCURVE",
"380 600 CURVE",
"98 600 LINE",
"88 536 OFFCURVE",
"88 446 OFFCURVE",
"90 382 CURVE SMOOTH",
"101 111 OFFCURVE",
"199 -6 OFFCURVE",
"456 -19 CURVE"
);
},
{
closed = 1;
nodes = (
"815 -6 OFFCURVE",
"915 111 OFFCURVE",
"926 382 CURVE SMOOTH",
"928 428 OFFCURVE",
"930 482 OFFCURVE",
"928 528 CURVE SMOOTH",
"920 734 OFFCURVE",
"850 864 OFFCURVE",
"626 918 CURVE SMOOTH",
"484 952 LINE SMOOTH",
"416 968 OFFCURVE",
"388 1016 OFFCURVE",
"382 1070 CURVE SMOOTH",
"374 1138 OFFCURVE",
"374 1208 OFFCURVE",
"382 1276 CURVE SMOOTH",
"388 1325 OFFCURVE",
"410 1357 OFFCURVE",
"456 1370 CURVE",
"456 1619 LINE",
"192 1606 OFFCURVE",
"93 1490 OFFCURVE",
"82 1220 CURVE SMOOTH",
"80 1170 OFFCURVE",
"80 1128 OFFCURVE",
"82 1070 CURVE SMOOTH",
"88 870 OFFCURVE",
"158 746 OFFCURVE",
"366 692 CURVE SMOOTH",
"530 650 LINE SMOOTH",
"594 634 OFFCURVE",
"620 584 OFFCURVE",
"626 528 CURVE SMOOTH",
"634 460 OFFCURVE",
"634 394 OFFCURVE",
"626 326 CURVE SMOOTH",
"620 276 OFFCURVE",
"599 244 OFFCURVE",
"556 230 CURVE",
"556 -19 LINE"
);
},
{
closed = 1;
nodes = (
"916 1000 LINE",
"920 1070 OFFCURVE",
"922 1162 OFFCURVE",
"920 1220 CURVE SMOOTH",
"909 1489 OFFCURVE",
"804 1605 OFFCURVE",
"556 1619 CURVE",
"556 1369 LINE",
"601 1356 OFFCURVE",
"628 1324 OFFCURVE",
"630 1276 CURVE SMOOTH",
"634 1184 OFFCURVE",
"632 1092 OFFCURVE",
"628 1000 CURVE"
);
}
);
width = 1008;
},
{
anchors = (
{
name = bottom;
position = "{298, 0}";
},
{
name = top;
position = "{298, 1600}";
}
);
layerId = "3D06B89B-468F-44E0-A3D7-A5BC6911123E";
paths = (
{
closed = 1;
nodes = (
"262 33 LINE",
"192 43 OFFCURVE",
"165 87 OFFCURVE",
"162 176 CURVE SMOOTH",
"158 306 OFFCURVE",
"158 436 OFFCURVE",
"162 566 CURVE",
"122 566 LINE",
"118 408 OFFCURVE",
"118 332 OFFCURVE",
"122 176 CURVE SMOOTH",
"126 59 OFFCURVE",
"167 3 OFFCURVE",
"262 -8 CURVE"
);
},
{
closed = 1;
nodes = (
"430 4 OFFCURVE",
"470 60 OFFCURVE",
"474 176 CURVE SMOOTH",
"478 318 OFFCURVE",
"478 366 OFFCURVE",
"474 532 CURVE SMOOTH",
"470 694 OFFCURVE",
"458 776 OFFCURVE",
"338 804 CURVE SMOOTH",
"264 822 LINE SMOOTH",
"176 844 OFFCURVE",
"166 902 OFFCURVE",
"164 1058 CURVE SMOOTH",
"162 1180 OFFCURVE",
"160 1302 OFFCURVE",
"164 1424 CURVE SMOOTH",
"167 1513 OFFCURVE",
"193 1556 OFFCURVE",
"260 1567 CURVE",
"260 1608 LINE",
"163 1597 OFFCURVE",
"124 1543 OFFCURVE",
"124 1426 CURVE SMOOTH",
"124 1304 OFFCURVE",
"120 1160 OFFCURVE",
"122 1058 CURVE SMOOTH",
"126 882 OFFCURVE",
"140 808 OFFCURVE",
"264 778 CURVE SMOOTH",
"336 760 LINE SMOOTH",
"420 738 OFFCURVE",
"432 656 OFFCURVE",
"434 532 CURVE SMOOTH",
"436 374 OFFCURVE",
"438 314 OFFCURVE",
"434 176 CURVE SMOOTH",
"431 89 OFFCURVE",
"406 45 OFFCURVE",
"342 33 CURVE",
"342 -7 LINE"
);
},
{
closed = 1;
nodes = (
"468 1070 LINE",
"470 1216 OFFCURVE",
"470 1342 OFFCURVE",
"468 1424 CURVE SMOOTH",
"464 1540 OFFCURVE",
"427 1595 OFFCURVE",
"340 1607 CURVE",
"340 1566 LINE",
"401 1554 OFFCURVE",
"425 1510 OFFCURVE",
"428 1424 CURVE SMOOTH",
"432 1306 OFFCURVE",
"432 1188 OFFCURVE",
"428 1070 CURVE"
);
}
);
width = 596;
},
{
anchors = (
{
name = bottom;
position = "{415, 0}";
},
{
name = top;
position = "{415, 1600}";
}
);
layerId = "EB6D3A46-95FC-4F29-8169-EF2A3FEDBD5C";
paths = (
{
closed = 1;
nodes = (
"366 109 LINE",
"291 118 OFFCURVE",
"265 151 OFFCURVE",
"262 229 CURVE SMOOTH",
"255 346 OFFCURVE",
"257 453 OFFCURVE",
"262 575 CURVE",
"131 575 LINE",
"126 449 OFFCURVE",
"126 364 OFFCURVE",
"129 243 CURVE SMOOTH",
"134 76 OFFCURVE",
"203 2 OFFCURVE",
"366 -11 CURVE"
);
},
{
closed = 1;
nodes = (
"628 1 OFFCURVE",
"695 76 OFFCURVE",
"702 243 CURVE SMOOTH",
"706 331 OFFCURVE",
"706 440 OFFCURVE",
"703 531 CURVE SMOOTH",
"696 725 OFFCURVE",
"640 806 OFFCURVE",
"460 848 CURVE SMOOTH",
"364 870 LINE SMOOTH",
"290 888 OFFCURVE",
"267 935 OFFCURVE",
"264 1061 CURVE SMOOTH",
"260 1170 OFFCURVE",
"259 1264 OFFCURVE",
"264 1372 CURVE SMOOTH",
"267 1449 OFFCURVE",
"294 1482 OFFCURVE",
"366 1491 CURVE",
"366 1611 LINE",
"200 1599 OFFCURVE",
"133 1525 OFFCURVE",
"129 1360 CURVE SMOOTH",
"127 1256 OFFCURVE",
"125 1152 OFFCURVE",
"127 1061 CURVE SMOOTH",
"132 861 OFFCURVE",
"179 781 OFFCURVE",
"335 742 CURVE SMOOTH",
"435 718 LINE SMOOTH",
"530 693 OFFCURVE",
"564 647 OFFCURVE",
"567 531 CURVE SMOOTH",
"571 441 OFFCURVE",
"574 319 OFFCURVE",
"567 229 CURVE SMOOTH",
"562 152 OFFCURVE",
"537 119 OFFCURVE",
"468 109 CURVE",
"468 -11 LINE"
);
},
{
closed = 1;
nodes = (
"695 1053 LINE",
"698 1168 OFFCURVE",
"698 1270 OFFCURVE",
"696 1358 CURVE SMOOTH",
"691 1524 OFFCURVE",
"624 1598 OFFCURVE",
"468 1611 CURVE",
"468 1491 LINE",
"536 1481 OFFCURVE",
"561 1448 OFFCURVE",
"564 1372 CURVE SMOOTH",
"568 1276 OFFCURVE",
"567 1179 OFFCURVE",
"563 1053 CURVE"
);
}
);
width = 829;
},
{
anchors = (
{
name = bottom;
position = "{350, 0}";
},
{
name = top;
position = "{350, 1600}";
}
);
layerId = "C388322D-F001-4130-A10A-708FB59AF746";
paths = (
{
closed = 1;
nodes = (
"311 82 LINE",
"247 93 OFFCURVE",
"220 134 OFFCURVE",
"217 214 CURVE SMOOTH",
"212 331 OFFCURVE",
"212 453 OFFCURVE",
"217 575 CURVE",
"116 575 LINE",
"111 440 OFFCURVE",
"111 361 OFFCURVE",
"114 228 CURVE SMOOTH",
"119 72 OFFCURVE",
"175 1 OFFCURVE",
"311 -11 CURVE"
);
},
{
closed = 1;
nodes = (
"526 2 OFFCURVE",
"582 73 OFFCURVE",
"587 228 CURVE SMOOTH",
"591 346 OFFCURVE",
"591 395 OFFCURVE",
"588 531 CURVE SMOOTH",
"583 704 OFFCURVE",
"556 798 OFFCURVE",
"410 833 CURVE SMOOTH",
"319 855 LINE SMOOTH",
"236 875 OFFCURVE",
"222 931 OFFCURVE",
"219 1061 CURVE SMOOTH",
"215 1170 OFFCURVE",
"214 1279 OFFCURVE",
"219 1387 CURVE SMOOTH",
"223 1466 OFFCURVE",
"247 1507 OFFCURVE",
"309 1518 CURVE",
"309 1611 LINE",
"170 1599 OFFCURVE",
"116 1530 OFFCURVE",
"114 1375 CURVE SMOOTH",
"113 1271 OFFCURVE",
"110 1152 OFFCURVE",
"112 1061 CURVE SMOOTH",
"117 879 OFFCURVE",
"145 793 OFFCURVE",
"290 757 CURVE SMOOTH",
"385 733 LINE SMOOTH",
"464 712 OFFCURVE",
"479 638 OFFCURVE",
"482 531 CURVE SMOOTH",
"486 396 OFFCURVE",
"487 334 OFFCURVE",
"482 214 CURVE SMOOTH",
"478 136 OFFCURVE",
"454 95 OFFCURVE",
"396 83 CURVE",
"396 -10 LINE"
);
},
{
closed = 1;
nodes = (
"580 1053 LINE",
"583 1180 OFFCURVE",
"583 1297 OFFCURVE",
"581 1373 CURVE SMOOTH",
"576 1527 OFFCURVE",
"521 1598 OFFCURVE",
"394 1610 CURVE",
"394 1517 LINE",
"451 1505 OFFCURVE",
"476 1464 OFFCURVE",
"479 1387 CURVE SMOOTH",
"483 1276 OFFCURVE",
"482 1164 OFFCURVE",
"478 1053 CURVE"
);
}
);
width = 699;
}
);
leftKerningGroup = O;
rightKerningGroup = O;
unicode = 0053;
},
{
glyphname = Germandbls;
layers = (
{
layerId = "3B122060-26E0-4730-9241-82784E6CB359";
paths = (
{
closed = 1;
nodes = (
"160 0 LINE",
"160 1420 LINE SMOOTH",
"160 1502 OFFCURVE",
"190 1526 OFFCURVE",
"296 1526 CURVE",
"538 1526 LINE",
"538 1602 LINE",
"296 1602 LINE SMOOTH",
"142 1602 OFFCURVE",
"80 1548 OFFCURVE",
"80 1420 CURVE SMOOTH",
"80 0 LINE"
);
},
{
closed = 1;
nodes = (
"316 0 LINE SMOOTH",
"478 0 OFFCURVE",
"544 78 OFFCURVE",
"548 226 CURVE SMOOTH",
"552 382 OFFCURVE",
"552 442 OFFCURVE",
"548 582 CURVE SMOOTH",
"544 740 OFFCURVE",
"482 826 OFFCURVE",
"358 820 CURVE",
"522 1452 LINE",
"436 1452 LINE",
"274 818 LINE",
"274 744 LINE",
"334 744 LINE SMOOTH",
"436 744 OFFCURVE",
"464 710 OFFCURVE",
"468 582 CURVE SMOOTH",
"472 448 OFFCURVE",
"472 362 OFFCURVE",
"468 226 CURVE SMOOTH",
"464 124 OFFCURVE",
"432 76 OFFCURVE",
"316 76 CURVE SMOOTH",
"252 76 LINE",
"252 0 LINE"
);
}
);
width = 630;
},
{
layerId = "1DFA7D5B-2E97-4B89-827F-FB43F8066DC1";
paths = (
{
closed = 1;
nodes = (
"380 0 LINE",
"380 1256 LINE SMOOTH",
"380 1320 OFFCURVE",
"426 1356 OFFCURVE",
"502 1356 CURVE SMOOTH",
"980 1356 LINE",
"980 1600 LINE",
"502 1600 LINE SMOOTH",
"208 1600 OFFCURVE",
"80 1486 OFFCURVE",
"80 1200 CURVE SMOOTH",
"80 0 LINE"
);
},
{
closed = 1;
nodes = (
"586 0 LINE SMOOTH",
"882 0 OFFCURVE",
"994 114 OFFCURVE",
"1006 402 CURVE SMOOTH",
"1008 448 OFFCURVE",
"1010 502 OFFCURVE",
"1008 548 CURVE SMOOTH",
"1000 734 OFFCURVE",
"944 858 OFFCURVE",
"770 920 CURVE",
"946 1264 LINE",
"640 1264 LINE",
"488 904 LINE",
"488 670 LINE",
"610 670 LINE SMOOTH",
"676 670 OFFCURVE",
"700 604 OFFCURVE",
"706 548 CURVE SMOOTH",
"714 480 OFFCURVE",
"714 414 OFFCURVE",
"706 346 CURVE SMOOTH",
"698 280 OFFCURVE",
"664 244 OFFCURVE",
"586 244 CURVE SMOOTH",
"514 244 LINE",
"514 0 LINE"
);
}
);
width = 1088;
},
{
layerId = "5013C991-8699-46CB-BB1C-82E334DBD38B";
paths = (
{
closed = 1;
nodes = (
"380 0 LINE",
"380 1256 LINE SMOOTH",
"380 1320 OFFCURVE",
"426 1356 OFFCURVE",
"502 1356 CURVE SMOOTH",
"960 1356 LINE",
"960 1600 LINE",
"502 1600 LINE SMOOTH",
"208 1600 OFFCURVE",
"80 1486 OFFCURVE",
"80 1200 CURVE SMOOTH",
"80 0 LINE"
);
},
{
closed = 1;
nodes = (
"566 0 LINE SMOOTH",
"862 0 OFFCURVE",
"974 114 OFFCURVE",
"986 402 CURVE SMOOTH",
"988 448 OFFCURVE",
"990 502 OFFCURVE",
"988 548 CURVE SMOOTH",
"980 734 OFFCURVE",
"924 858 OFFCURVE",
"750 920 CURVE",
"936 1270 LINE",
"654 1270 LINE",
"476 904 LINE",
"480 670 LINE",
"590 670 LINE SMOOTH",
"656 670 OFFCURVE",
"680 604 OFFCURVE",
"686 548 CURVE SMOOTH",
"694 480 OFFCURVE",
"694 414 OFFCURVE",
"686 346 CURVE SMOOTH",
"678 280 OFFCURVE",
"644 244 OFFCURVE",
"566 244 CURVE SMOOTH",
"478 244 LINE",
"478 0 LINE"
);
}
);
width = 1068;
},
{
background = {
paths = (
{
closed = 0;
nodes = (
"310 820 LINE"
);
}
);
};
layerId = "3D06B89B-468F-44E0-A3D7-A5BC6911123E";
paths = (
{
closed = 1;
nodes = (
"160 0 LINE",
"160 1418 LINE SMOOTH",
"160 1526 OFFCURVE",
"196 1560 OFFCURVE",
"296 1560 CURVE SMOOTH",
"478 1560 LINE",
"478 1600 LINE",
"296 1600 LINE SMOOTH",
"170 1600 OFFCURVE",
"120 1548 OFFCURVE",
"120 1418 CURVE SMOOTH",
"120 0 LINE"
);
},
{
closed = 1;
nodes = (
"296 0 LINE SMOOTH",
"428 0 OFFCURVE",
"484 58 OFFCURVE",
"488 206 CURVE SMOOTH",
"492 362 OFFCURVE",
"492 442 OFFCURVE",
"488 582 CURVE SMOOTH",
"484 754 OFFCURVE",
"436 820 OFFCURVE",
"312 820 CURVE",
"466 1500 LINE",
"424 1500 LINE",
"266 818 LINE",
"266 780 LINE",
"314 780 LINE SMOOTH",
"406 780 OFFCURVE",
"444 724 OFFCURVE",
"448 582 CURVE SMOOTH",
"452 448 OFFCURVE",
"452 342 OFFCURVE",
"448 206 CURVE SMOOTH",
"444 88 OFFCURVE",
"400 40 OFFCURVE",
"296 40 CURVE SMOOTH",
"240 40 LINE",
"240 0 LINE"
);
}
);
width = 618;
},
{
layerId = "EB6D3A46-95FC-4F29-8169-EF2A3FEDBD5C";
paths = (
{
closed = 1;
nodes = (
"215 0 LINE",
"215 1379 LINE SMOOTH",
"215 1457 OFFCURVE",
"249 1484 OFFCURVE",
"348 1484 CURVE",
"649 1484 LINE",
"649 1602 LINE",
"348 1602 LINE SMOOTH",
"159 1602 OFFCURVE",
"80 1533 OFFCURVE",
"80 1365 CURVE SMOOTH",
"80 0 LINE"
);
},
{
closed = 1;
nodes = (
"384 0 LINE SMOOTH",
"579 0 OFFCURVE",
"657 87 OFFCURVE",
"663 270 CURVE SMOOTH",
"666 399 OFFCURVE",
"667 457 OFFCURVE",
"663 574 CURVE SMOOTH",
"658 739 OFFCURVE",
"598 834 OFFCURVE",
"461 845 CURVE",
"628 1405 LINE",
"487 1405 LINE",
"328 840 LINE",
"328 726 LINE",
"403 726 LINE SMOOTH",
"496 726 OFFCURVE",
"523 684 OFFCURVE",
"528 574 CURVE SMOOTH",
"533 456 OFFCURVE",
"533 375 OFFCURVE",
"528 256 CURVE SMOOTH",
"523 163 OFFCURVE",
"490 118 OFFCURVE",
"384 118 CURVE SMOOTH",
"318 118 LINE",
"318 0 LINE"
);
}
);
width = 745;
},
{
layerId = "C388322D-F001-4130-A10A-708FB59AF746";
paths = (
{
closed = 1;
nodes = (
"215 0 LINE",
"215 1378 LINE SMOOTH",
"215 1475 OFFCURVE",
"254 1509 OFFCURVE",
"348 1509 CURVE SMOOTH",
"599 1509 LINE",
"599 1600 LINE",
"348 1600 LINE SMOOTH",
"180 1600 OFFCURVE",
"110 1533 OFFCURVE",
"110 1364 CURVE SMOOTH",
"110 0 LINE"
);
},
{
closed = 1;
nodes = (
"364 0 LINE SMOOTH",
"537 0 OFFCURVE",
"607 72 OFFCURVE",
"613 255 CURVE SMOOTH",
"616 384 OFFCURVE",
"617 457 OFFCURVE",
"613 574 CURVE SMOOTH",
"608 749 OFFCURVE",
"558 830 OFFCURVE",
"422 845 CURVE",
"584 1443 LINE",
"482 1443 LINE",
"319 840 LINE",
"320 753 LINE",
"383 753 LINE SMOOTH",
"469 753 OFFCURVE",
"503 694 OFFCURVE",
"508 574 CURVE SMOOTH",
"513 456 OFFCURVE",
"513 360 OFFCURVE",
"508 241 CURVE SMOOTH",
"503 136 OFFCURVE",
"461 91 OFFCURVE",
"364 91 CURVE SMOOTH",
"300 91 LINE",
"300 0 LINE"
);
}
);
width = 731;
}
);
leftKerningGroup = H;
rightKerningGroup = B;
unicode = 1E9E;
},
{
glyphname = Schwa;
layers = (
{
layerId = "3B122060-26E0-4730-9241-82784E6CB359";
paths = (
{
closed = 1;
nodes = (
"146 64 OFFCURVE",
"198 4 OFFCURVE",
"324 -8 CURVE",
"324 68 LINE",
"248 76 OFFCURVE",
"226 110 OFFCURVE",
"224 194 CURVE SMOOTH",
"218 424 OFFCURVE",
"222 548 OFFCURVE",
"224 740 CURVE",
"424 740 LINE",
"424 816 LINE",
"144 816 LINE",
"142 614 OFFCURVE",
"140 416 OFFCURVE",
"144 194 CURVE SMOOTH"
);
},
{
closed = 1;
nodes = (
"536 2 OFFCURVE",
"586 62 OFFCURVE",
"588 194 CURVE SMOOTH",
"594 638 OFFCURVE",
"594 956 OFFCURVE",
"588 1402 CURVE SMOOTH",
"586 1534 OFFCURVE",
"536 1594 OFFCURVE",
"414 1604 CURVE",
"414 1526 LINE",
"484 1518 OFFCURVE",
"506 1486 OFFCURVE",
"508 1402 CURVE SMOOTH",
"518 910 OFFCURVE",
"518 684 OFFCURVE",
"508 194 CURVE SMOOTH",
"506 110 OFFCURVE",
"484 76 OFFCURVE",
"414 68 CURVE",
"414 -8 LINE"
);
},
{
closed = 1;
nodes = (
"226 1032 LINE",
"224 1162 OFFCURVE",
"222 1272 OFFCURVE",
"224 1402 CURVE SMOOTH",
"226 1488 OFFCURVE",
"251 1519 OFFCURVE",
"332 1526 CURVE",
"332 1604 LINE",
"203 1593 OFFCURVE",
"148 1533 OFFCURVE",
"144 1402 CURVE SMOOTH",
"140 1262 OFFCURVE",
"142 1172 OFFCURVE",
"146 1032 CURVE"
);
}
);
width = 730;
},
{
layerId = "1DFA7D5B-2E97-4B89-827F-FB43F8066DC1";
paths = (
{
closed = 1;
nodes = (
"85 116 OFFCURVE",
"191 -2 OFFCURVE",
"451 -18 CURVE",
"451 234 LINE",
"407 248 OFFCURVE",
"383 278 OFFCURVE",
"381 324 CURVE SMOOTH",
"377 438 OFFCURVE",
"375 554 OFFCURVE",
"375 682 CURVE",
"533 682 LINE",
"533 888 LINE",
"81 888 LINE",
"79 682 OFFCURVE",
"79 546 OFFCURVE",
"81 380 CURVE SMOOTH"
);
},
{
closed = 1;
nodes = (
"847 -2 OFFCURVE",
"955 114 OFFCURVE",
"959 378 CURVE SMOOTH",
"965 680 OFFCURVE",
"965 920 OFFCURVE",
"959 1218 CURVE SMOOTH",
"953 1484 OFFCURVE",
"845 1602 OFFCURVE",
"583 1618 CURVE",
"583 1368 LINE",
"631 1354 OFFCURVE",
"657 1322 OFFCURVE",
"659 1274 CURVE SMOOTH",
"669 970 OFFCURVE",
"669 630 OFFCURVE",
"659 324 CURVE SMOOTH",
"657 278 OFFCURVE",
"631 246 OFFCURVE",
"583 232 CURVE",
"583 -18 LINE"
);
},
{
closed = 1;
nodes = (
"381 1000 LINE",
"379 1072 OFFCURVE",
"379 1202 OFFCURVE",
"381 1274 CURVE SMOOTH",
"382 1322 OFFCURVE",
"410 1354 OFFCURVE",
"459 1368 CURVE",
"459 1618 LINE",
"197 1602 OFFCURVE",
"88 1485 OFFCURVE",
"81 1218 CURVE SMOOTH",
"79 1140 OFFCURVE",
"79 1078 OFFCURVE",
"81 1000 CURVE"
);
}
);
width = 1042;
},
{
layerId = "5013C991-8699-46CB-BB1C-82E334DBD38B";
paths = (
{
closed = 1;
nodes = (
"85 112 OFFCURVE",
"195 -6 OFFCURVE",
"447 -18 CURVE",
"447 232 LINE",
"405 244 OFFCURVE",
"383 276 OFFCURVE",
"381 324 CURVE SMOOTH",
"377 438 OFFCURVE",
"375 554 OFFCURVE",
"375 682 CURVE",
"525 682 LINE",
"525 888 LINE",
"81 888 LINE",
"79 682 OFFCURVE",
"79 546 OFFCURVE",
"81 380 CURVE SMOOTH"
);
},
{
closed = 1;
nodes = (
"805 -2 OFFCURVE",
"915 148 OFFCURVE",
"919 378 CURVE SMOOTH",
"923 604 OFFCURVE",
"923 996 OFFCURVE",
"919 1218 CURVE SMOOTH",
"913 1490 OFFCURVE",
"811 1606 OFFCURVE",
"547 1618 CURVE",
"547 1370 LINE",
"593 1356 OFFCURVE",
"617 1324 OFFCURVE",
"619 1274 CURVE SMOOTH",
"629 996 OFFCURVE",
"629 604 OFFCURVE",
"619 324 CURVE SMOOTH",
"617 276 OFFCURVE",
"593 244 OFFCURVE",
"547 230 CURVE",
"547 -18 LINE"
);
},
{
closed = 1;
nodes = (
"381 1000 LINE",
"379 1072 OFFCURVE",
"379 1202 OFFCURVE",
"381 1274 CURVE SMOOTH",
"383 1324 OFFCURVE",
"408 1357 OFFCURVE",
"455 1370 CURVE",
"455 1619 LINE",
"197 1606 OFFCURVE",
"89 1489 OFFCURVE",
"81 1218 CURVE SMOOTH",
"79 1154 OFFCURVE",
"79 1064 OFFCURVE",
"81 1000 CURVE"
);
}
);
width = 1003;
},
{
layerId = "3D06B89B-468F-44E0-A3D7-A5BC6911123E";
paths = (
{
closed = 1;
nodes = (
"126 56 OFFCURVE",
"168 2 OFFCURVE",
"270 -10 CURVE",
"270 30 LINE",
"196 42 OFFCURVE",
"166 86 OFFCURVE",
"164 174 CURVE SMOOTH",
"162 398 OFFCURVE",
"162 574 OFFCURVE",
"164 776 CURVE",
"374 776 LINE",
"374 816 LINE",
"124 816 LINE",
"122 598 OFFCURVE",
"122 414 OFFCURVE",
"124 174 CURVE SMOOTH"
);
},
{
closed = 1;
nodes = (
"446 0 OFFCURVE",
"486 56 OFFCURVE",
"488 174 CURVE SMOOTH",
"496 618 OFFCURVE",
"496 976 OFFCURVE",
"488 1422 CURVE SMOOTH",
"486 1540 OFFCURVE",
"446 1594 OFFCURVE",
"350 1606 CURVE",
"350 1566 LINE",
"418 1554 OFFCURVE",
"446 1510 OFFCURVE",
"448 1422 CURVE SMOOTH",
"456 976 OFFCURVE",
"456 618 OFFCURVE",
"448 174 CURVE SMOOTH",
"446 86 OFFCURVE",
"418 42 OFFCURVE",
"350 30 CURVE",
"350 -10 LINE"
);
},
{
closed = 1;
nodes = (
"166 1032 LINE",
"164 1218 OFFCURVE",
"162 1330 OFFCURVE",
"164 1422 CURVE SMOOTH",
"166 1512 OFFCURVE",
"199 1556 OFFCURVE",
"278 1566 CURVE",
"278 1606 LINE",
"173 1596 OFFCURVE",
"128 1540 OFFCURVE",
"124 1422 CURVE SMOOTH",
"120 1308 OFFCURVE",
"122 1196 OFFCURVE",
"126 1032 CURVE"
);
}
);
width = 611;
},
{
layerId = "EB6D3A46-95FC-4F29-8169-EF2A3FEDBD5C";
paths = (
{
closed = 1;
nodes = (
"131 77 OFFCURVE",
"197 3 OFFCURVE",
"356 -11 CURVE",
"356 110 LINE",
"288 119 OFFCURVE",
"266 152 OFFCURVE",
"264 227 CURVE SMOOTH",
"258 428 OFFCURVE",
"261 550 OFFCURVE",
"262 726 CURVE",
"452 726 LINE",
"452 834 LINE",
"129 834 LINE",
"127 631 OFFCURVE",
"125 449 OFFCURVE",
"129 241 CURVE SMOOTH"
);
},
{
closed = 1;
nodes = (
"614 1 OFFCURVE",
"679 75 OFFCURVE",
"681 240 CURVE SMOOTH",
"687 649 OFFCURVE",
"687 947 OFFCURVE",
"681 1356 CURVE SMOOTH",
"678 1522 OFFCURVE",
"614 1596 OFFCURVE",
"457 1608 CURVE",
"457 1487 LINE",
"521 1477 OFFCURVE",
"544 1445 OFFCURVE",
"546 1370 CURVE SMOOTH",
"556 925 OFFCURVE",
"556 671 OFFCURVE",
"546 227 CURVE SMOOTH",
"544 152 OFFCURVE",
"521 119 OFFCURVE",
"457 109 CURVE",
"457 -11 LINE"
);
},
{
closed = 1;
nodes = (
"265 1024 LINE",
"263 1140 OFFCURVE",
"262 1255 OFFCURVE",
"264 1370 CURVE SMOOTH",
"265 1446 OFFCURVE",
"291 1478 OFFCURVE",
"364 1487 CURVE",
"364 1608 LINE",
"202 1596 OFFCURVE",
"133 1521 OFFCURVE",
"129 1356 CURVE SMOOTH",
"125 1232 OFFCURVE",
"127 1149 OFFCURVE",
"130 1024 CURVE"
);
}
);
width = 808;
},
{
layerId = "C388322D-F001-4130-A10A-708FB59AF746";
paths = (
{
closed = 1;
nodes = (
"116 70 OFFCURVE",
"175 0 OFFCURVE",
"315 -12 CURVE",
"315 81 LINE",
"249 93 OFFCURVE",
"221 134 OFFCURVE",
"219 212 CURVE SMOOTH",
"216 408 OFFCURVE",
"216 569 OFFCURVE",
"217 753 CURVE",
"412 753 LINE",
"412 834 LINE",
"114 834 LINE",
"112 619 OFFCURVE",
"112 447 OFFCURVE",
"114 226 CURVE SMOOTH"
);
},
{
closed = 1;
nodes = (
"536 -1 OFFCURVE",
"594 79 OFFCURVE",
"596 225 CURVE SMOOTH",
"603 615 OFFCURVE",
"603 981 OFFCURVE",
"596 1371 CURVE SMOOTH",
"593 1528 OFFCURVE",
"538 1597 OFFCURVE",
"400 1609 CURVE",
"400 1517 LINE",
"462 1505 OFFCURVE",
"489 1464 OFFCURVE",
"491 1385 CURVE SMOOTH",
"500 981 OFFCURVE",
"500 615 OFFCURVE",
"491 212 CURVE SMOOTH",
"489 134 OFFCURVE",
"462 93 OFFCURVE",
"400 80 CURVE",
"400 -12 LINE"
);
},
{
closed = 1;
nodes = (
"220 1024 LINE",
"218 1182 OFFCURVE",
"217 1298 OFFCURVE",
"219 1385 CURVE SMOOTH",
"220 1465 OFFCURVE",
"252 1506 OFFCURVE",
"323 1517 CURVE",
"323 1609 LINE",
"179 1598 OFFCURVE",
"118 1527 OFFCURVE",
"114 1371 CURVE SMOOTH",
"110 1270 OFFCURVE",
"112 1163 OFFCURVE",
"115 1024 CURVE"
);
}
);
width = 709;
}
);
leftKerningGroup = O;
leftMetricsKey = O;
rightKerningGroup = O;
rightMetricsKey = O;
unicode = 018F;
},
{
glyphname = T;
layers = (
{
anchors = (
{
name = bottom;
position = "{344, 0}";
},
{
name = center;
position = "{344, 800}";
},
{
name = top;
position = "{344, 1600}";
}
);
layerId = "3B122060-26E0-4730-9241-82784E6CB359";
paths = (
{
closed = 1;
nodes = (
"384 0 LINE",
"384 1462 LINE",
"304 1462 LINE",
"304 0 LINE"
);
},
{
closed = 1;
nodes = (
"608 1524 LINE",
"608 1600 LINE",
"80 1600 LINE",
"80 1524 LINE"
);
}
);
width = 688;
},
{
anchors = (
{
name = bottom;
position = "{468, 0}";
},
{
name = center;
position = "{468, 800}";
},
{
name = top;
position = "{468, 1600}";
}
);
layerId = "1DFA7D5B-2E97-4B89-827F-FB43F8066DC1";
paths = (
{
closed = 1;
nodes = (
"618 0 LINE",
"618 1244 LINE",
"318 1244 LINE",
"318 0 LINE"
);
},
{
closed = 1;
nodes = (
"894 1336 LINE",
"894 1600 LINE",
"40 1600 LINE",
"40 1336 LINE"
);
}
);
width = 934;
},
{
anchors = (
{
name = bottom;
position = "{448, 0}";
},
{
name = center;
position = "{448, 800}";
},
{
name = top;
position = "{448, 1600}";
}
);
layerId = "5013C991-8699-46CB-BB1C-82E334DBD38B";
paths = (
{
closed = 1;
nodes = (
"598 0 LINE",
"598 1236 LINE",
"298 1236 LINE",
"298 0 LINE"
);
},
{
closed = 1;
nodes = (
"854 1336 LINE",
"854 1600 LINE",
"40 1600 LINE",
"40 1336 LINE"
);
}
);
width = 894;
},
{
anchors = (
{
name = bottom;
position = "{254, 0}";
},
{
name = center;
position = "{254, 800}";
},
{
name = top;
position = "{254, 1600}";
}
);
layerId = "3D06B89B-468F-44E0-A3D7-A5BC6911123E";
paths = (
{
closed = 1;
nodes = (
"274 0 LINE",
"274 1520 LINE",
"234 1520 LINE",
"234 0 LINE"
);
},
{
closed = 1;
nodes = (
"448 1560 LINE",
"448 1600 LINE",
"60 1600 LINE",
"60 1560 LINE"
);
}
);
width = 508;
},
{
anchors = (
{
name = bottom;
position = "{375, 0}";
},
{
name = center;
position = "{375, 800}";
},
{
name = top;
position = "{375, 1600}";
}
);
layerId = "EB6D3A46-95FC-4F29-8169-EF2A3FEDBD5C";
paths = (
{
closed = 1;
nodes = (
"443 0 LINE",
"443 1408 LINE",
"308 1408 LINE",
"308 0 LINE"
);
},
{
closed = 1;
nodes = (
"680 1477 LINE",
"680 1600 LINE",
"70 1600 LINE",
"70 1477 LINE"
);
}
);
width = 750;
},
{
anchors = (
{
name = bottom;
position = "{303, 0}";
},
{
name = center;
position = "{303, 800}";
},
{
name = top;
position = "{303, 1600}";
}
);
layerId = "C388322D-F001-4130-A10A-708FB59AF746";
paths = (
{
closed = 1;
nodes = (
"355 0 LINE",
"355 1449 LINE",
"250 1449 LINE",
"250 0 LINE"
);
},
{
closed = 1;
nodes = (
"550 1504 LINE",
"550 1600 LINE",
"55 1600 LINE",
"55 1504 LINE"
);
}
);
width = 605;
}
);
leftKerningGroup = V;
rightKerningGroup = V;
unicode = 0054;
},
{
glyphname = Tbar;
layers = (
{
components = (
{
name = T;
}
);
layerId = "3B122060-26E0-4730-9241-82784E6CB359";
paths = (
{
closed = 1;
nodes = (
"340 678 LINE",
"340 746 LINE",
"224 746 LINE",
"224 678 LINE"
);
},
{
closed = 1;
nodes = (
"504 678 LINE",
"504 746 LINE",
"438 746 LINE",
"438 678 LINE"
);
}
);
width = 688;
},
{
components = (
{
name = T;
}
);
layerId = "1DFA7D5B-2E97-4B89-827F-FB43F8066DC1";
paths = (
{
closed = 1;
nodes = (
"422 528 LINE",
"422 754 LINE",
"188 754 LINE",
"188 528 LINE"
);
},
{
closed = 1;
nodes = (
"832 528 LINE",
"832 754 LINE",
"698 754 LINE",
"698 528 LINE"
);
}
);
width = 934;
},
{
components = (
{
name = T;
}
);
layerId = "5013C991-8699-46CB-BB1C-82E334DBD38B";
paths = (
{
closed = 1;
nodes = (
"412 528 LINE",
"412 754 LINE",
"188 754 LINE",
"188 528 LINE"
);
},
{
closed = 1;
nodes = (
"806 528 LINE",
"806 754 LINE",
"682 754 LINE",
"682 528 LINE"
);
}
);
width = 894;
},
{
components = (
{
name = T;
}
);
layerId = "3D06B89B-468F-44E0-A3D7-A5BC6911123E";
paths = (
{
closed = 1;
nodes = (
"262 688 LINE",
"262 728 LINE",
"142 728 LINE",
"142 688 LINE"
);
},
{
closed = 1;
nodes = (
"402 688 LINE",
"402 728 LINE",
"342 728 LINE",
"342 688 LINE"
);
}
);
width = 508;
},
{
components = (
{
alignment = -1;
name = T;
}
);
layerId = "EB6D3A46-95FC-4F29-8169-EF2A3FEDBD5C";
paths = (
{
closed = 1;
nodes = (
"361 641 LINE",
"361 748 LINE",
"215 748 LINE",
"215 641 LINE"
);
},
{
closed = 1;
nodes = (
"586 641 LINE",
"586 748 LINE",
"503 748 LINE",
"503 641 LINE"
);
}
);
width = 750;
},
{
components = (
{
alignment = -1;
name = T;
}
);
layerId = "C388322D-F001-4130-A10A-708FB59AF746";
paths = (
{
closed = 1;
nodes = (
"300 648 LINE",
"300 735 LINE",
"154 735 LINE",
"154 648 LINE"
);
},
{
closed = 1;
nodes = (
"503 648 LINE",
"503 735 LINE",
"427 735 LINE",
"427 648 LINE"
);
}
);
width = 605;
}
);
leftKerningGroup = V;
leftMetricsKey = T;
rightKerningGroup = V;
rightMetricsKey = T;
unicode = 0166;
},
{
glyphname = U;
layers = (
{
anchors = (
{
name = bottom;
position = "{374, 0}";
},
{
name = ogonek;
position = "{308, 0}";
},
{
name = top;
position = "{374, 1600}";
},
{
name = topright;
position = "{648, 1600}";
}
);
layerId = "3B122060-26E0-4730-9241-82784E6CB359";
paths = (
{
closed = 1;
nodes = (
"144 62 OFFCURVE",
"198 2 OFFCURVE",
"328 -8 CURVE",
"328 72 LINE",
"245 79 OFFCURVE",
"220 109 OFFCURVE",
"220 190 CURVE SMOOTH",
"220 668 OFFCURVE",
"218 1122 OFFCURVE",
"222 1600 CURVE",
"142 1600 LINE",
"138 1122 OFFCURVE",
"136 668 OFFCURVE",
"142 190 CURVE SMOOTH"
);
},
{
closed = 1;
nodes = (
"550 2 OFFCURVE",
"604 62 OFFCURVE",
"606 190 CURVE SMOOTH",
"612 668 OFFCURVE",
"610 1122 OFFCURVE",
"606 1600 CURVE",
"526 1600 LINE",
"530 1122 OFFCURVE",
"526 668 OFFCURVE",
"526 190 CURVE SMOOTH",
"526 109 OFFCURVE",
"502 79 OFFCURVE",
"420 72 CURVE",
"420 -8 LINE"
);
}
);
width = 748;
},
{
anchors = (
{
name = bottom;
position = "{526, 0}";
},
{
name = ogonek;
position = "{411, 0}";
},
{
name = top;
position = "{526, 1600}";
},
{
name = topright;
position = "{988, 1600}";
}
);
layerId = "1DFA7D5B-2E97-4B89-827F-FB43F8066DC1";
paths = (
{
closed = 1;
nodes = (
"88 115 OFFCURVE",
"196 -2 OFFCURVE",
"460 -18 CURVE",
"460 234 LINE",
"410 251 OFFCURVE",
"384 289 OFFCURVE",
"384 346 CURVE SMOOTH",
"380 748 OFFCURVE",
"376 1198 OFFCURVE",
"384 1600 CURVE",
"84 1600 LINE",
"78 1198 OFFCURVE",
"78 784 OFFCURVE",
"84 382 CURVE SMOOTH"
);
},
{
closed = 1;
nodes = (
"854 -2 OFFCURVE",
"962 115 OFFCURVE",
"966 382 CURVE SMOOTH",
"972 784 OFFCURVE",
"972 1198 OFFCURVE",
"966 1600 CURVE",
"666 1600 LINE",
"674 1198 OFFCURVE",
"670 748 OFFCURVE",
"666 346 CURVE SMOOTH",
"666 290 OFFCURVE",
"640 251 OFFCURVE",
"592 234 CURVE",
"592 -18 LINE"
);
}
);
width = 1050;
},
{
anchors = (
{
name = bottom;
position = "{506, 0}";
},
{
name = ogonek;
position = "{373, 0}";
},
{
name = top;
position = "{506, 1600}";
},
{
name = topright;
position = "{968, 1600}";
}
);
layerId = "5013C991-8699-46CB-BB1C-82E334DBD38B";
paths = (
{
closed = 1;
nodes = (
"88 111 OFFCURVE",
"193 -6 OFFCURVE",
"456 -19 CURVE",
"456 230 LINE",
"409 243 OFFCURVE",
"384 276 OFFCURVE",
"384 326 CURVE SMOOTH",
"380 728 OFFCURVE",
"376 1198 OFFCURVE",
"384 1600 CURVE",
"84 1600 LINE",
"78 1198 OFFCURVE",
"78 784 OFFCURVE",
"84 382 CURVE SMOOTH"
);
},
{
closed = 1;
nodes = (
"817 -6 OFFCURVE",
"922 111 OFFCURVE",
"926 382 CURVE SMOOTH",
"932 784 OFFCURVE",
"932 1198 OFFCURVE",
"926 1600 CURVE",
"626 1600 LINE",
"634 1198 OFFCURVE",
"630 728 OFFCURVE",
"626 326 CURVE SMOOTH",
"626 276 OFFCURVE",
"602 243 OFFCURVE",
"556 230 CURVE",
"556 -19 LINE"
);
}
);
width = 1010;
},
{
anchors = (
{
name = bottom;
position = "{294, 0}";
},
{
name = ogonek;
position = "{210, -10}";
},
{
name = top;
position = "{294, 1600}";
},
{
name = topright;
position = "{508, 1600}";
}
);
layerId = "3D06B89B-468F-44E0-A3D7-A5BC6911123E";
paths = (
{
closed = 1;
nodes = (
"124 57 OFFCURVE",
"163 3 OFFCURVE",
"254 -8 CURVE",
"254 33 LINE",
"189 44 OFFCURVE",
"160 86 OFFCURVE",
"160 170 CURVE SMOOTH",
"156 648 OFFCURVE",
"158 1122 OFFCURVE",
"162 1600 CURVE",
"122 1600 LINE",
"118 1122 OFFCURVE",
"118 648 OFFCURVE",
"122 170 CURVE SMOOTH"
);
},
{
closed = 1;
nodes = (
"425 3 OFFCURVE",
"464 57 OFFCURVE",
"466 170 CURVE SMOOTH",
"470 648 OFFCURVE",
"470 1122 OFFCURVE",
"466 1600 CURVE",
"426 1600 LINE",
"430 1122 OFFCURVE",
"430 648 OFFCURVE",
"426 170 CURVE SMOOTH",
"426 86 OFFCURVE",
"399 44 OFFCURVE",
"334 33 CURVE",
"334 -8 LINE"
);
}
);
width = 588;
},
{
anchors = (
{
name = bottom;
position = "{412, 0}";
},
{
name = ogonek;
position = "{334, 0}";
},
{
name = top;
position = "{412, 1600}";
},
{
name = topright;
position = "{733, 1600}";
}
);
layerId = "EB6D3A46-95FC-4F29-8169-EF2A3FEDBD5C";
paths = (
{
closed = 1;
nodes = (
"130 75 OFFCURVE",
"197 1 OFFCURVE",
"361 -11 CURVE",
"361 112 LINE",
"286 122 OFFCURVE",
"261 154 OFFCURVE",
"261 229 CURVE SMOOTH",
"260 688 OFFCURVE",
"258 1141 OFFCURVE",
"263 1600 CURVE",
"128 1600 LINE",
"123 1141 OFFCURVE",
"122 697 OFFCURVE",
"128 238 CURVE SMOOTH"
);
},
{
closed = 1;
nodes = (
"626 1 OFFCURVE",
"694 75 OFFCURVE",
"696 238 CURVE SMOOTH",
"702 697 OFFCURVE",
"701 1141 OFFCURVE",
"696 1600 CURVE",
"561 1600 LINE",
"566 1141 OFFCURVE",
"562 688 OFFCURVE",
"561 229 CURVE SMOOTH",
"561 154 OFFCURVE",
"537 122 OFFCURVE",
"463 112 CURVE",
"463 -11 LINE"
);
}
);
width = 824;
},
{
anchors = (
{
name = bottom;
position = "{347, 0}";
},
{
name = ogonek;
position = "{251, -8}";
},
{
name = top;
position = "{347, 1600}";
},
{
name = topright;
position = "{623, 1600}";
}
);
layerId = "C388322D-F001-4130-A10A-708FB59AF746";
paths = (
{
closed = 1;
nodes = (
"115 71 OFFCURVE",
"170 1 OFFCURVE",
"305 -11 CURVE",
"305 82 LINE",
"244 94 OFFCURVE",
"216 133 OFFCURVE",
"216 209 CURVE SMOOTH",
"212 668 OFFCURVE",
"213 1141 OFFCURVE",
"218 1600 CURVE",
"113 1600 LINE",
"108 1141 OFFCURVE",
"108 682 OFFCURVE",
"113 223 CURVE SMOOTH"
);
},
{
closed = 1;
nodes = (
"523 1 OFFCURVE",
"579 71 OFFCURVE",
"581 223 CURVE SMOOTH",
"586 682 OFFCURVE",
"586 1141 OFFCURVE",
"581 1600 CURVE",
"476 1600 LINE",
"481 1141 OFFCURVE",
"480 668 OFFCURVE",
"476 209 CURVE SMOOTH",
"476 133 OFFCURVE",
"450 94 OFFCURVE",
"390 82 CURVE",
"390 -11 LINE"
);
}
);
width = 694;
}
);
leftKerningGroup = H;
rightKerningGroup = H;
unicode = 0055;
},
{
glyphname = V;
layers = (
{
layerId = "3B122060-26E0-4730-9241-82784E6CB359";
paths = (
{
closed = 1;
nodes = (
"216 138 LINE",
"296 138 LINE",
"248 660 LINE",
"164 1600 LINE",
"80 1600 LINE"
);
},
{
closed = 1;
nodes = (
"228 0 LINE",
"440 0 LINE",
"588 1600 LINE",
"504 1600 LINE",
"420 660 LINE",
"368 76 LINE",
"221 76 LINE"
);
}
);
width = 668;
},
{
layerId = "1DFA7D5B-2E97-4B89-827F-FB43F8066DC1";
paths = (
{
closed = 1;
nodes = (
"228 356 LINE",
"482 356 LINE",
"468 798 LINE",
"350 1600 LINE",
"40 1600 LINE"
);
},
{
closed = 1;
nodes = (
"282 0 LINE",
"806 0 LINE",
"1038 1600 LINE",
"728 1600 LINE",
"610 798 LINE",
"592 264 LINE",
"244 264 LINE"
);
}
);
width = 1078;
},
{
layerId = "5013C991-8699-46CB-BB1C-82E334DBD38B";
paths = (
{
closed = 1;
nodes = (
"228 334 LINE",
"490 334 LINE",
"468 798 LINE",
"350 1600 LINE",
"40 1600 LINE"
);
},
{
closed = 1;
nodes = (
"282 0 LINE",
"766 0 LINE",
"998 1600 LINE",
"688 1600 LINE",
"570 798 LINE",
"552 264 LINE",
"244 264 LINE"
);
}
);
width = 1038;
},
{
layerId = "3D06B89B-468F-44E0-A3D7-A5BC6911123E";
paths = (
{
closed = 1;
nodes = (
"200 80 LINE",
"240 80 LINE",
"188 660 LINE",
"104 1600 LINE",
"60 1600 LINE"
);
},
{
closed = 1;
nodes = (
"208 0 LINE",
"300 0 LINE",
"448 1600 LINE",
"404 1600 LINE",
"320 660 LINE",
"266 40 LINE",
"204 40 LINE"
);
}
);
width = 508;
},
{
layerId = "EB6D3A46-95FC-4F29-8169-EF2A3FEDBD5C";
paths = (
{
closed = 1;
nodes = (
"218 196 LINE",
"346 196 LINE",
"294 694 LINE",
"210 1600 LINE",
"70 1600 LINE"
);
},
{
closed = 1;
nodes = (
"240 0 LINE",
"530 0 LINE",
"698 1600 LINE",
"558 1600 LINE",
"480 694 LINE",
"422 124 LINE",
"224 124 LINE"
);
}
);
width = 768;
},
{
layerId = "C388322D-F001-4130-A10A-708FB59AF746";
paths = (
{
closed = 1;
nodes = (
"202 162 LINE",
"296 162 LINE",
"246 694 LINE",
"166 1600 LINE",
"56 1600 LINE"
);
},
{
closed = 1;
nodes = (
"224 0 LINE",
"414 0 LINE",
"584 1600 LINE",
"472 1600 LINE",
"394 694 LINE",
"336 96 LINE",
"212 96 LINE"
);
}
);
width = 638;
}
);
leftKerningGroup = V;
rightKerningGroup = V;
unicode = 0056;
},
{
glyphname = W;
layers = (
{
anchors = (
{
name = bottom;
position = "{538, 0}";
},
{
name = top;
position = "{538, 1600}";
}
);
layerId = "3B122060-26E0-4730-9241-82784E6CB359";
paths = (
{
closed = 1;
nodes = (
"894 0 LINE",
"898 76 LINE",
"754 76 LINE",
"682 1070 LINE",
"646 1590 LINE",
"432 1590 LINE",
"394 1070 LINE",
"332 138 LINE",
"408 138 LINE",
"436 568 LINE",
"506 1514 LINE",
"574 1514 LINE",
"642 568 LINE",
"682 0 LINE"
);
},
{
closed = 1;
nodes = (
"396 0 LINE",
"401 76 LINE",
"256 76 LINE",
"206 1070 LINE",
"180 1600 LINE",
"100 1600 LINE",
"184 0 LINE"
);
},
{
closed = 1;
nodes = (
"900 138 LINE",
"982 1600 LINE",
"902 1600 LINE",
"876 1070 LINE",
"824 138 LINE"
);
}
);
width = 1082;
},
{
anchors = (
{
name = bottom;
position = "{806, 0}";
},
{
name = top;
position = "{806, 1600}";
}
);
background = {
paths = (
{
closed = 1;
nodes = (
"712 0 LINE",
"784 562 LINE",
"802 1292 LINE",
"852 1292 LINE",
"870 562 LINE",
"942 0 LINE",
"1464 0 LINE",
"1580 1600 LINE",
"1254 1600 LINE",
"1228 1144 LINE",
"1222 264 LINE",
"1162 264 LINE",
"1142 1144 LINE",
"1082 1590 LINE",
"572 1590 LINE",
"512 1144 LINE",
"500 264 LINE",
"440 264 LINE",
"426 1144 LINE",
"400 1600 LINE",
"74 1600 LINE",
"190 0 LINE"
);
}
);
};
layerId = "1DFA7D5B-2E97-4B89-827F-FB43F8066DC1";
paths = (
{
closed = 1;
nodes = (
"1550 0 LINE",
"1576 264 LINE",
"1224 264 LINE",
"1228 868 LINE",
"1088 1590 LINE",
"664 1590 LINE",
"524 868 LINE",
"528 356 LINE",
"790 356 LINE",
"806 446 LINE",
"830 1336 LINE",
"922 1336 LINE",
"946 446 LINE",
"1020 0 LINE"
);
},
{
closed = 1;
nodes = (
"722 0 LINE",
"766 264 LINE",
"424 264 LINE",
"394 868 LINE",
"342 1600 LINE",
"40 1600 LINE",
"192 0 LINE"
);
},
{
closed = 1;
nodes = (
"1584 356 LINE",
"1712 1600 LINE",
"1410 1600 LINE",
"1358 868 LINE",
"1326 356 LINE"
);
}
);
width = 1752;
},
{
anchors = (
{
name = bottom;
position = "{806, 0}";
},
{
name = top;
position = "{806, 1600}";
}
);
background = {
paths = (
{
closed = 1;
nodes = (
"712 0 LINE",
"784 562 LINE",
"802 1292 LINE",
"852 1292 LINE",
"870 562 LINE",
"942 0 LINE",
"1464 0 LINE",
"1580 1600 LINE",
"1254 1600 LINE",
"1228 1144 LINE",
"1222 264 LINE",
"1162 264 LINE",
"1142 1144 LINE",
"1082 1590 LINE",
"572 1590 LINE",
"512 1144 LINE",
"500 264 LINE",
"440 264 LINE",
"426 1144 LINE",
"400 1600 LINE",
"74 1600 LINE",
"190 0 LINE"
);
}
);
};
layerId = "5013C991-8699-46CB-BB1C-82E334DBD38B";
paths = (
{
closed = 1;
nodes = (
"1432 0 LINE",
"1458 264 LINE",
"1146 264 LINE",
"1150 868 LINE",
"1010 1590 LINE",
"626 1590 LINE",
"486 868 LINE",
"478 334 LINE",
"750 334 LINE",
"768 446 LINE",
"792 1336 LINE",
"844 1336 LINE",
"868 446 LINE",
"942 0 LINE"
);
},
{
closed = 1;
nodes = (
"682 0 LINE",
"726 264 LINE",
"424 264 LINE",
"394 868 LINE",
"342 1600 LINE",
"40 1600 LINE",
"192 0 LINE"
);
},
{
closed = 1;
nodes = (
"1466 334 LINE",
"1592 1600 LINE",
"1290 1600 LINE",
"1238 868 LINE",
"1204 334 LINE"
);
}
);
width = 1632;
},
{
anchors = (
{
name = bottom;
position = "{382, 0}";
},
{
name = top;
position = "{382, 1600}";
}
);
layerId = "3D06B89B-468F-44E0-A3D7-A5BC6911123E";
paths = (
{
closed = 1;
nodes = (
"594 0 LINE",
"596 40 LINE",
"536 40 LINE",
"462 1070 LINE",
"426 1590 LINE",
"332 1590 LINE",
"294 1070 LINE",
"226 80 LINE",
"262 80 LINE",
"296 568 LINE",
"368 1550 LINE",
"392 1550 LINE",
"462 568 LINE",
"502 0 LINE"
);
},
{
closed = 1;
nodes = (
"256 0 LINE",
"259 40 LINE",
"198 40 LINE",
"146 1070 LINE",
"120 1600 LINE",
"80 1600 LINE",
"164 0 LINE"
);
},
{
closed = 1;
nodes = (
"598 80 LINE",
"682 1600 LINE",
"642 1600 LINE",
"616 1070 LINE",
"562 80 LINE"
);
}
);
width = 762;
},
{
anchors = (
{
name = bottom;
position = "{606, 0}";
},
{
name = top;
position = "{606, 1600}";
}
);
layerId = "EB6D3A46-95FC-4F29-8169-EF2A3FEDBD5C";
paths = (
{
closed = 1;
nodes = (
"1056 0 LINE",
"1064 124 LINE",
"878 124 LINE",
"812 1020 LINE",
"770 1590 LINE",
"468 1590 LINE",
"430 1020 LINE",
"376 196 LINE",
"496 196 LINE",
"526 538 LINE",
"584 1470 LINE",
"658 1470 LINE",
"724 538 LINE",
"764 0 LINE"
);
},
{
closed = 1;
nodes = (
"480 0 LINE",
"492 124 LINE",
"298 124 LINE",
"254 1020 LINE",
"220 1600 LINE",
"86 1600 LINE",
"186 0 LINE"
);
},
{
closed = 1;
nodes = (
"1070 196 LINE",
"1160 1600 LINE",
"1024 1600 LINE",
"992 1020 LINE",
"950 196 LINE"
);
}
);
width = 1244;
},
{
anchors = (
{
name = bottom;
position = "{506, 0}";
},
{
name = top;
position = "{506, 1600}";
}
);
layerId = "C388322D-F001-4130-A10A-708FB59AF746";
paths = (
{
closed = 1;
nodes = (
"834 0 LINE",
"842 96 LINE",
"720 96 LINE",
"652 1020 LINE",
"618 1590 LINE",
"402 1590 LINE",
"366 1020 LINE",
"306 168 LINE",
"404 168 LINE",
"434 538 LINE",
"494 1496 LINE",
"524 1496 LINE",
"584 538 LINE",
"618 0 LINE"
);
},
{
closed = 1;
nodes = (
"390 0 LINE",
"398 96 LINE",
"254 96 LINE",
"208 1020 LINE",
"176 1600 LINE",
"70 1600 LINE",
"172 0 LINE"
);
},
{
closed = 1;
nodes = (
"854 168 LINE",
"942 1600 LINE",
"838 1600 LINE",
"808 1020 LINE",
"764 168 LINE"
);
}
);
width = 1008;
}
);
leftKerningGroup = W;
rightKerningGroup = W;
unicode = 0057;
},
{
glyphname = X;
layers = (
{
background = {
paths = (
{
closed = 1;
nodes = (
"164 0 LINE",
"226 386 LINE",
"290 800 LINE",
"314 800 LINE",
"382 396 LINE",
"444 0 LINE",
"488 0 LINE",
"346 848 LINE",
"346 798 LINE",
"478 1600 LINE",
"434 1600 LINE",
"384 1272 LINE",
"314 846 LINE",
"290 846 LINE",
"224 1266 LINE",
"174 1600 LINE",
"130 1600 LINE",
"258 798 LINE",
"258 848 LINE",
"120 0 LINE"
);
}
);
};
layerId = "3B122060-26E0-4730-9241-82784E6CB359";
paths = (
{
closed = 1;
nodes = (
"158 0 LINE",
"238 396 LINE",
"304 704 LINE",
"232 704 LINE",
"80 0 LINE"
);
},
{
closed = 1;
nodes = (
"242 766 LINE",
"360 766 LINE",
"432 396 LINE",
"506 0 LINE",
"584 0 LINE",
"424 842 LINE",
"304 842 LINE",
"236 1220 LINE",
"168 1600 LINE",
"90 1600 LINE"
);
},
{
closed = 1;
nodes = (
"438 904 LINE",
"574 1600 LINE",
"496 1600 LINE",
"422 1220 LINE",
"362 904 LINE"
);
}
);
width = 664;
},
{
background = {
paths = (
{
closed = 1;
nodes = (
"346 0 LINE",
"440 394 LINE",
"468 702 LINE",
"522 702 LINE",
"554 394 LINE",
"650 0 LINE",
"952 0 LINE",
"714 896 LINE",
"708 726 LINE",
"944 1600 LINE",
"632 1600 LINE",
"556 1228 LINE",
"528 926 LINE",
"472 926 LINE",
"442 1228 LINE",
"366 1600 LINE",
"54 1600 LINE",
"290 786 LINE",
"280 932 LINE",
"40 0 LINE"
);
}
);
};
guideLines = (
{
position = "{178, 405}";
},
{
angle = 90;
position = "{178, 405}";
}
);
layerId = "1DFA7D5B-2E97-4B89-827F-FB43F8066DC1";
paths = (
{
closed = 1;
nodes = (
"334 0 LINE",
"444 394 LINE",
"458 596 LINE",
"238 596 LINE",
"40 0 LINE"
);
},
{
closed = 1;
nodes = (
"338 688 LINE",
"550 688 LINE",
"576 394 LINE",
"682 0 LINE",
"976 0 LINE",
"698 952 LINE",
"470 952 LINE",
"444 1226 LINE",
"340 1600 LINE",
"46 1600 LINE"
);
},
{
closed = 1;
nodes = (
"794 1044 LINE",
"970 1600 LINE",
"676 1600 LINE",
"576 1226 LINE",
"562 1044 LINE"
);
}
);
width = 1016;
},
{
background = {
paths = (
{
closed = 1;
nodes = (
"326 0 LINE",
"420 394 LINE",
"448 702 LINE",
"502 702 LINE",
"534 394 LINE",
"630 0 LINE",
"932 0 LINE",
"694 896 LINE",
"688 726 LINE",
"924 1600 LINE",
"612 1600 LINE",
"536 1228 LINE",
"508 926 LINE",
"452 926 LINE",
"422 1228 LINE",
"346 1600 LINE",
"34 1600 LINE",
"270 786 LINE",
"260 932 LINE",
"20 0 LINE"
);
}
);
};
guideLines = (
{
position = "{168, 405}";
},
{
angle = 90;
position = "{168, 405}";
}
);
layerId = "5013C991-8699-46CB-BB1C-82E334DBD38B";
paths = (
{
closed = 1;
nodes = (
"334 0 LINE",
"444 394 LINE",
"462 618 LINE",
"232 618 LINE",
"40 0 LINE"
);
},
{
closed = 1;
nodes = (
"356 688 LINE",
"530 688 LINE",
"556 394 LINE",
"662 0 LINE",
"956 0 LINE",
"680 952 LINE",
"490 952 LINE",
"464 1226 LINE",
"360 1600 LINE",
"66 1600 LINE"
);
},
{
closed = 1;
nodes = (
"802 1022 LINE",
"970 1600 LINE",
"676 1600 LINE",
"576 1226 LINE",
"560 1022 LINE"
);
}
);
width = 1010;
},
{
background = {
paths = (
{
closed = 1;
nodes = (
"84 0 LINE",
"146 386 LINE",
"210 800 LINE",
"234 800 LINE",
"302 396 LINE",
"364 0 LINE",
"408 0 LINE",
"266 848 LINE",
"266 798 LINE",
"398 1600 LINE",
"354 1600 LINE",
"304 1272 LINE",
"234 846 LINE",
"210 846 LINE",
"144 1266 LINE",
"94 1600 LINE",
"50 1600 LINE",
"178 798 LINE",
"178 848 LINE",
"40 0 LINE"
);
}
);
};
layerId = "3D06B89B-468F-44E0-A3D7-A5BC6911123E";
paths = (
{
closed = 1;
nodes = (
"98 0 LINE",
"172 396 LINE",
"236 744 LINE",
"204 744 LINE",
"60 0 LINE"
);
},
{
closed = 1;
nodes = (
"218 784 LINE",
"258 784 LINE",
"332 396 LINE",
"406 0 LINE",
"444 0 LINE",
"286 824 LINE",
"246 824 LINE",
"176 1220 LINE",
"108 1600 LINE",
"70 1600 LINE"
);
},
{
closed = 1;
nodes = (
"302 864 LINE",
"434 1600 LINE",
"396 1600 LINE",
"328 1220 LINE",
"268 864 LINE"
);
}
);
width = 504;
},
{
layerId = "EB6D3A46-95FC-4F29-8169-EF2A3FEDBD5C";
paths = (
{
closed = 1;
nodes = (
"202 0 LINE",
"290 396 LINE",
"343 677 LINE",
"234 677 LINE",
"70 0 LINE"
);
},
{
closed = 1;
nodes = (
"266 747 LINE",
"408 747 LINE",
"468 396 LINE",
"550 0 LINE",
"682 0 LINE",
"493 870 LINE",
"346 870 LINE",
"288 1222 LINE",
"211 1600 LINE",
"79 1600 LINE"
);
},
{
closed = 1;
nodes = (
"527 939 LINE",
"673 1600 LINE",
"541 1600 LINE",
"461 1222 LINE",
"412 939 LINE"
);
}
);
width = 752;
},
{
layerId = "C388322D-F001-4130-A10A-708FB59AF746";
paths = (
{
closed = 1;
nodes = (
"157 0 LINE",
"240 396 LINE",
"293 713 LINE",
"211 713 LINE",
"55 0 LINE"
);
},
{
closed = 1;
nodes = (
"253 760 LINE",
"326 760 LINE",
"388 396 LINE",
"470 0 LINE",
"572 0 LINE",
"385 856 LINE",
"307 856 LINE",
"248 1222 LINE",
"171 1600 LINE",
"69 1600 LINE"
);
},
{
closed = 1;
nodes = (
"427 904 LINE",
"568 1600 LINE",
"466 1600 LINE",
"390 1222 LINE",
"341 904 LINE"
);
}
);
width = 631;
}
);
leftKerningGroup = X;
rightKerningGroup = X;
unicode = 0058;
},
{
glyphname = Y;
layers = (
{
anchors = (
{
name = bottom;
position = "{334, 0}";
},
{
name = top;
position = "{334, 1600}";
},
{
name = topleft;
position = "{100, 1600}";
}
);
layerId = "3B122060-26E0-4730-9241-82784E6CB359";
paths = (
{
closed = 1;
nodes = (
"374 0 LINE",
"374 580 LINE",
"436 580 LINE",
"448 662 LINE",
"302 662 LINE",
"236 1112 LINE",
"164 1600 LINE",
"80 1600 LINE",
"232 580 LINE",
"294 580 LINE",
"294 0 LINE"
);
},
{
closed = 1;
nodes = (
"460 724 LINE",
"592 1600 LINE",
"508 1600 LINE",
"436 1112 LINE",
"378 724 LINE"
);
}
);
width = 668;
},
{
anchors = (
{
name = bottom;
position = "{492, 0}";
},
{
name = top;
position = "{492, 1600}";
},
{
name = topleft;
position = "{40, 1600}";
}
);
layerId = "1DFA7D5B-2E97-4B89-827F-FB43F8066DC1";
paths = (
{
closed = 1;
nodes = (
"640 0 LINE",
"640 510 LINE",
"670 510 LINE",
"727 742 LINE",
"462 742 LINE",
"432 1212 LINE",
"346 1600 LINE",
"40 1600 LINE",
"308 510 LINE",
"340 510 LINE",
"340 0 LINE"
);
},
{
closed = 1;
nodes = (
"766 834 LINE",
"980 1600 LINE",
"674 1600 LINE",
"588 1212 LINE",
"566 834 LINE"
);
}
);
width = 1020;
},
{
anchors = (
{
name = bottom;
position = "{492, 0}";
},
{
name = top;
position = "{480, 1600}";
},
{
name = topleft;
position = "{40, 1600}";
}
);
layerId = "5013C991-8699-46CB-BB1C-82E334DBD38B";
paths = (
{
closed = 1;
nodes = (
"640 0 LINE",
"640 382 LINE",
"640 384 LINE",
"728 742 LINE",
"462 742 LINE",
"432 1212 LINE",
"346 1600 LINE",
"40 1600 LINE",
"340 384 LINE",
"340 382 LINE",
"340 0 LINE"
);
},
{
closed = 1;
nodes = (
"752 812 LINE",
"952 1600 LINE",
"646 1600 LINE",
"560 1212 LINE",
"524 812 LINE"
);
}
);
width = 1020;
},
{
anchors = (
{
name = bottom;
position = "{254, 0}";
},
{
name = top;
position = "{254, 1600}";
},
{
name = topleft;
position = "{60, 1600}";
}
);
layerId = "3D06B89B-468F-44E0-A3D7-A5BC6911123E";
paths = (
{
closed = 1;
nodes = (
"274 0 LINE",
"274 438 LINE",
"274 440 LINE",
"307 662 LINE",
"240 662 LINE",
"174 1112 LINE",
"102 1600 LINE",
"60 1600 LINE",
"234 440 LINE",
"234 438 LINE",
"234 0 LINE"
);
},
{
closed = 1;
nodes = (
"318 702 LINE",
"452 1600 LINE",
"412 1600 LINE",
"340 1112 LINE",
"280 702 LINE"
);
}
);
width = 508;
},
{
anchors = (
{
name = bottom;
position = "{374, 0}";
},
{
name = top;
position = "{374, 1600}";
},
{
name = topleft;
position = "{86, 1600}";
}
);
layerId = "EB6D3A46-95FC-4F29-8169-EF2A3FEDBD5C";
paths = (
{
closed = 1;
nodes = (
"440 0 LINE",
"440 562 LINE",
"494 562 LINE",
"518 682 LINE",
"350 682 LINE",
"278 1138 LINE",
"210 1600 LINE",
"70 1600 LINE",
"252 562 LINE",
"306 562 LINE",
"306 0 LINE"
);
},
{
closed = 1;
nodes = (
"532 754 LINE",
"676 1600 LINE",
"536 1600 LINE",
"470 1138 LINE",
"412 754 LINE"
);
}
);
width = 746;
},
{
anchors = (
{
name = bottom;
position = "{314, 0}";
},
{
name = top;
position = "{310, 1600}";
},
{
name = topleft;
position = "{56, 1600}";
}
);
layerId = "C388322D-F001-4130-A10A-708FB59AF746";
paths = (
{
closed = 1;
nodes = (
"366 0 LINE",
"366 424 LINE",
"366 426 LINE",
"412 682 LINE",
"308 682 LINE",
"234 1138 LINE",
"164 1600 LINE",
"56 1600 LINE",
"260 426 LINE",
"260 424 LINE",
"260 0 LINE"
);
},
{
closed = 1;
nodes = (
"440 746 LINE",
"592 1600 LINE",
"482 1600 LINE",
"412 1138 LINE",
"352 748 LINE"
);
}
);
width = 626;
}
);
leftKerningGroup = V;
rightKerningGroup = V;
unicode = 0059;
},
{
glyphname = Z;
layers = (
{
anchors = (
{
name = bottom;
position = "{280, 0}";
},
{
name = center;
position = "{280, 800}";
},
{
name = top;
position = "{306, 1600}";
}
);
layerId = "3B122060-26E0-4730-9241-82784E6CB359";
paths = (
{
closed = 1;
nodes = (
"478 0 LINE",
"478 76 LINE",
"80 76 LINE",
"80 0 LINE"
);
},
{
closed = 1;
nodes = (
"518 1524 LINE",
"518 1600 LINE",
"102 1600 LINE",
"102 1524 LINE"
);
},
{
closed = 1;
nodes = (
"182 138 LINE",
"498 1462 LINE",
"416 1462 LINE",
"100 138 LINE"
);
}
);
width = 598;
},
{
anchors = (
{
name = bottom;
position = "{418, 0}";
},
{
name = center;
position = "{418, 800}";
},
{
name = top;
position = "{450, 1600}";
}
);
layerId = "1DFA7D5B-2E97-4B89-827F-FB43F8066DC1";
paths = (
{
closed = 1;
nodes = (
"816 0 LINE",
"816 264 LINE",
"40 264 LINE",
"40 0 LINE"
);
},
{
closed = 1;
nodes = (
"846 1336 LINE",
"846 1600 LINE",
"64 1600 LINE",
"64 1336 LINE"
);
},
{
closed = 1;
nodes = (
"386 356 LINE",
"800 1244 LINE",
"486 1244 LINE",
"86 356 LINE"
);
}
);
width = 886;
},
{
anchors = (
{
name = bottom;
position = "{418, 0}";
},
{
name = center;
position = "{418, 800}";
},
{
name = top;
position = "{418, 1600}";
}
);
layerId = "5013C991-8699-46CB-BB1C-82E334DBD38B";
paths = (
{
closed = 1;
nodes = (
"776 0 LINE",
"776 264 LINE",
"40 264 LINE",
"40 0 LINE"
);
},
{
closed = 1;
nodes = (
"806 1336 LINE",
"806 1600 LINE",
"64 1600 LINE",
"64 1336 LINE"
);
},
{
closed = 1;
nodes = (
"374 334 LINE",
"770 1266 LINE",
"454 1266 LINE",
"76 334 LINE"
);
}
);
width = 846;
},
{
anchors = (
{
name = bottom;
position = "{260, 0}";
},
{
name = center;
position = "{260, 800}";
},
{
name = top;
position = "{260, 1600}";
}
);
layerId = "3D06B89B-468F-44E0-A3D7-A5BC6911123E";
paths = (
{
closed = 1;
nodes = (
"418 0 LINE",
"418 40 LINE",
"60 40 LINE",
"60 0 LINE"
);
},
{
closed = 1;
nodes = (
"458 1560 LINE",
"458 1600 LINE",
"82 1600 LINE",
"82 1560 LINE"
);
},
{
closed = 1;
nodes = (
"118 80 LINE",
"442 1520 LINE",
"398 1520 LINE",
"76 80 LINE"
);
}
);
width = 518;
},
{
anchors = (
{
name = bottom;
position = "{315, 0}";
},
{
name = center;
position = "{315, 800}";
},
{
name = top;
position = "{342, 1600}";
}
);
layerId = "EB6D3A46-95FC-4F29-8169-EF2A3FEDBD5C";
paths = (
{
closed = 1;
nodes = (
"563 0 LINE",
"563 123 LINE",
"70 123 LINE",
"70 0 LINE"
);
},
{
closed = 1;
nodes = (
"600 1477 LINE",
"600 1600 LINE",
"93 1600 LINE",
"93 1477 LINE"
);
},
{
closed = 1;
nodes = (
"233 193 LINE",
"574 1408 LINE",
"434 1408 LINE",
"97 193 LINE"
);
}
);
width = 670;
},
{
anchors = (
{
name = bottom;
position = "{300, 0}";
},
{
name = center;
position = "{300, 800}";
},
{
name = top;
position = "{300, 1600}";
}
);
layerId = "C388322D-F001-4130-A10A-708FB59AF746";
paths = (
{
closed = 1;
nodes = (
"508 0 LINE",
"508 96 LINE",
"55 96 LINE",
"55 0 LINE"
);
},
{
closed = 1;
nodes = (
"545 1504 LINE",
"545 1600 LINE",
"78 1600 LINE",
"78 1504 LINE"
);
},
{
closed = 1;
nodes = (
"182 144 LINE",
"524 1457 LINE",
"412 1457 LINE",
"76 144 LINE"
);
}
);
width = 600;
}
);
leftKerningGroup = Z;
rightKerningGroup = Z;
unicode = 005A;
},
{
glyphname = R.ss01;
layers = (
{
anchors = (
{
name = bottom;
position = "{350, 0}";
},
{
name = top;
position = "{330, 1600}";
}
);
layerId = "3B122060-26E0-4730-9241-82784E6CB359";
paths = (
{
closed = 1;
nodes = (
"220 0 LINE",
"220 1600 LINE",
"140 1600 LINE",
"140 0 LINE"
);
},
{
closed = 1;
nodes = (
"558 0 LINE",
"560 230 OFFCURVE",
"558 398 OFFCURVE",
"556 588 CURVE SMOOTH",
"554 690 OFFCURVE",
"516 740 OFFCURVE",
"430 752 CURVE",
"430 760 LINE",
"512 774 OFFCURVE",
"548 824 OFFCURVE",
"552 924 CURVE SMOOTH",
"558 1066 OFFCURVE",
"558 1206 OFFCURVE",
"552 1414 CURVE SMOOTH",
"548 1546 OFFCURVE",
"482 1600 OFFCURVE",
"320 1600 CURVE SMOOTH",
"312 1600 LINE",
"312 1520 LINE",
"320 1520 LINE SMOOTH",
"436 1520 OFFCURVE",
"468 1498 OFFCURVE",
"472 1414 CURVE SMOOTH",
"478 1238 OFFCURVE",
"478 1096 OFFCURVE",
"472 920 CURVE SMOOTH",
"468 820 OFFCURVE",
"438 792 OFFCURVE",
"338 792 CURVE SMOOTH",
"312 792 LINE",
"312 716 LINE",
"344 716 LINE SMOOTH",
"446 716 OFFCURVE",
"474 688 OFFCURVE",
"476 588 CURVE SMOOTH",
"480 400 OFFCURVE",
"480 232 OFFCURVE",
"478 0 CURVE"
);
}
);
width = 698;
},
{
anchors = (
{
name = bottom;
position = "{508, 0}";
},
{
name = top;
position = "{492, 1600}";
}
);
background = {
paths = (
{
closed = 1;
nodes = (
"530 1310 OFFCURVE",
"576 1270 OFFCURVE",
"576 1200 CURVE SMOOTH",
"576 1010 LINE SMOOTH",
"576 926 OFFCURVE",
"530 880 OFFCURVE",
"446 880 CURVE SMOOTH",
"266 880 LINE",
"266 726 LINE",
"446 728 LINE SMOOTH",
"746 732 OFFCURVE",
"868 822 OFFCURVE",
"876 1066 CURVE SMOOTH",
"878 1124 OFFCURVE",
"878 1150 OFFCURVE",
"876 1210 CURVE SMOOTH",
"866 1488 OFFCURVE",
"742 1600 OFFCURVE",
"446 1600 CURVE SMOOTH",
"274 1600 LINE",
"274 1310 LINE",
"446 1310 LINE SMOOTH"
);
},
{
closed = 1;
nodes = (
"360 0 LINE",
"360 1600 LINE",
"60 1600 LINE",
"60 0 LINE"
);
},
{
closed = 1;
nodes = (
"924 18 LINE",
"898 54 OFFCURVE",
"876 130 OFFCURVE",
"874 176 CURVE SMOOTH",
"868 430 LINE SMOOTH",
"862 686 OFFCURVE",
"744 788 OFFCURVE",
"454 788 CURVE SMOOTH",
"266 788 LINE",
"266 620 LINE",
"442 620 LINE SMOOTH",
"524 620 OFFCURVE",
"566 568 OFFCURVE",
"568 476 CURVE SMOOTH",
"574 176 LINE SMOOTH",
"576 106 OFFCURVE",
"602 44 OFFCURVE",
"646 0 CURVE",
"924 0 LINE"
);
},
{
closed = 1;
nodes = (
"614 734 LINE",
"678 734 LINE",
"678 782 LINE",
"614 782 LINE"
);
}
);
};
layerId = "1DFA7D5B-2E97-4B89-827F-FB43F8066DC1";
paths = (
{
closed = 1;
nodes = (
"380 0 LINE",
"380 1600 LINE",
"80 1600 LINE",
"80 0 LINE"
);
},
{
closed = 1;
nodes = (
"950 0 LINE",
"952 138 OFFCURVE",
"948 290 OFFCURVE",
"942 428 CURVE SMOOTH",
"934 592 OFFCURVE",
"872 678 OFFCURVE",
"726 714 CURVE",
"726 760 LINE",
"874 798 OFFCURVE",
"938 886 OFFCURVE",
"944 1044 CURVE SMOOTH",
"946 1102 OFFCURVE",
"946 1150 OFFCURVE",
"944 1210 CURVE SMOOTH",
"934 1488 OFFCURVE",
"812 1600 OFFCURVE",
"514 1600 CURVE SMOOTH",
"512 1600 LINE",
"512 1336 LINE",
"514 1336 LINE SMOOTH",
"598 1336 OFFCURVE",
"644 1296 OFFCURVE",
"644 1226 CURVE SMOOTH",
"644 1154 OFFCURVE",
"644 1082 OFFCURVE",
"644 1010 CURVE SMOOTH",
"644 926 OFFCURVE",
"598 880 OFFCURVE",
"514 880 CURVE SMOOTH",
"512 880 LINE",
"512 614 LINE",
"514 614 LINE SMOOTH",
"596 614 OFFCURVE",
"638 562 OFFCURVE",
"642 470 CURVE SMOOTH",
"648 322 OFFCURVE",
"652 148 OFFCURVE",
"650 0 CURVE"
);
}
);
width = 1030;
},
{
anchors = (
{
name = bottom;
position = "{512, 0}";
},
{
name = top;
position = "{472, 1600}";
}
);
background = {
paths = (
{
closed = 1;
nodes = (
"530 1310 OFFCURVE",
"576 1270 OFFCURVE",
"576 1200 CURVE SMOOTH",
"576 1010 LINE SMOOTH",
"576 926 OFFCURVE",
"530 880 OFFCURVE",
"446 880 CURVE SMOOTH",
"266 880 LINE",
"266 726 LINE",
"446 728 LINE SMOOTH",
"746 732 OFFCURVE",
"868 822 OFFCURVE",
"876 1066 CURVE SMOOTH",
"878 1124 OFFCURVE",
"878 1150 OFFCURVE",
"876 1210 CURVE SMOOTH",
"866 1488 OFFCURVE",
"742 1600 OFFCURVE",
"446 1600 CURVE SMOOTH",
"274 1600 LINE",
"274 1310 LINE",
"446 1310 LINE SMOOTH"
);
},
{
closed = 1;
nodes = (
"360 0 LINE",
"360 1600 LINE",
"60 1600 LINE",
"60 0 LINE"
);
},
{
closed = 1;
nodes = (
"924 18 LINE",
"898 54 OFFCURVE",
"876 130 OFFCURVE",
"874 176 CURVE SMOOTH",
"868 430 LINE SMOOTH",
"862 686 OFFCURVE",
"744 788 OFFCURVE",
"454 788 CURVE SMOOTH",
"266 788 LINE",
"266 620 LINE",
"442 620 LINE SMOOTH",
"524 620 OFFCURVE",
"566 568 OFFCURVE",
"568 476 CURVE SMOOTH",
"574 176 LINE SMOOTH",
"576 106 OFFCURVE",
"602 44 OFFCURVE",
"646 0 CURVE",
"924 0 LINE"
);
},
{
closed = 1;
nodes = (
"614 734 LINE",
"678 734 LINE",
"678 782 LINE",
"614 782 LINE"
);
}
);
};
layerId = "5013C991-8699-46CB-BB1C-82E334DBD38B";
paths = (
{
closed = 1;
nodes = (
"380 0 LINE",
"380 1600 LINE",
"80 1600 LINE",
"80 0 LINE"
);
},
{
closed = 1;
nodes = (
"922 0 LINE",
"924 138 OFFCURVE",
"920 290 OFFCURVE",
"914 428 CURVE SMOOTH",
"906 592 OFFCURVE",
"844 678 OFFCURVE",
"698 714 CURVE",
"698 760 LINE",
"846 798 OFFCURVE",
"910 886 OFFCURVE",
"916 1044 CURVE SMOOTH",
"918 1102 OFFCURVE",
"918 1150 OFFCURVE",
"916 1210 CURVE SMOOTH",
"906 1488 OFFCURVE",
"784 1600 OFFCURVE",
"486 1600 CURVE SMOOTH",
"480 1600 LINE",
"480 1336 LINE",
"486 1336 LINE SMOOTH",
"570 1336 OFFCURVE",
"616 1296 OFFCURVE",
"616 1226 CURVE SMOOTH",
"616 1154 OFFCURVE",
"616 1082 OFFCURVE",
"616 1010 CURVE SMOOTH",
"616 926 OFFCURVE",
"570 880 OFFCURVE",
"486 880 CURVE SMOOTH",
"480 880 LINE",
"480 614 LINE",
"482 614 LINE SMOOTH",
"564 614 OFFCURVE",
"610 562 OFFCURVE",
"614 470 CURVE SMOOTH",
"620 322 OFFCURVE",
"624 148 OFFCURVE",
"622 0 CURVE"
);
}
);
width = 1002;
},
{
anchors = (
{
name = bottom;
position = "{294, 0}";
},
{
name = top;
position = "{280, 1600}";
}
);
layerId = "3D06B89B-468F-44E0-A3D7-A5BC6911123E";
paths = (
{
closed = 1;
nodes = (
"160 0 LINE",
"160 1600 LINE",
"120 1600 LINE",
"120 0 LINE"
);
},
{
closed = 1;
nodes = (
"458 0 LINE",
"460 138 OFFCURVE",
"458 306 OFFCURVE",
"456 588 CURVE SMOOTH",
"454 676 OFFCURVE",
"428 722 OFFCURVE",
"370 742 CURVE",
"370 770 LINE",
"424 790 OFFCURVE",
"450 838 OFFCURVE",
"452 924 CURVE SMOOTH",
"458 1066 OFFCURVE",
"458 1206 OFFCURVE",
"452 1414 CURVE SMOOTH",
"448 1546 OFFCURVE",
"398 1600 OFFCURVE",
"280 1600 CURVE SMOOTH",
"240 1600 LINE",
"240 1560 LINE",
"280 1560 LINE SMOOTH",
"370 1560 OFFCURVE",
"408 1518 OFFCURVE",
"412 1414 CURVE SMOOTH",
"418 1238 OFFCURVE",
"418 1096 OFFCURVE",
"412 920 CURVE SMOOTH",
"408 816 OFFCURVE",
"370 774 OFFCURVE",
"278 774 CURVE SMOOTH",
"240 774 LINE",
"240 734 LINE",
"284 734 LINE SMOOTH",
"376 734 OFFCURVE",
"414 692 OFFCURVE",
"416 588 CURVE SMOOTH",
"420 400 OFFCURVE",
"420 232 OFFCURVE",
"418 0 CURVE"
);
}
);
width = 578;
},
{
anchors = (
{
name = bottom;
position = "{390, 0}";
},
{
name = top;
position = "{371, 1600}";
}
);
layerId = "EB6D3A46-95FC-4F29-8169-EF2A3FEDBD5C";
paths = (
{
closed = 1;
nodes = (
"260 0 LINE",
"260 1600 LINE",
"125 1600 LINE",
"125 0 LINE"
);
},
{
closed = 1;
nodes = (
"656 0 LINE",
"658 207 OFFCURVE",
"656 371 OFFCURVE",
"653 548 CURVE SMOOTH",
"649 666 OFFCURVE",
"605 725 OFFCURVE",
"504 743 CURVE",
"504 760 LINE",
"603 780 OFFCURVE",
"646 840 OFFCURVE",
"650 954 CURVE SMOOTH",
"655 1075 OFFCURVE",
"655 1192 OFFCURVE",
"650 1363 CURVE SMOOTH",
"645 1532 OFFCURVE",
"565 1600 OFFCURVE",
"369 1600 CURVE SMOOTH",
"362 1600 LINE",
"362 1474 LINE",
"369 1474 LINE SMOOTH",
"477 1474 OFFCURVE",
"512 1448 OFFCURVE",
"515 1367 CURVE SMOOTH",
"520 1217 OFFCURVE",
"520 1093 OFFCURVE",
"515 943 CURVE SMOOTH",
"512 847 OFFCURVE",
"478 814 OFFCURVE",
"382 814 CURVE SMOOTH",
"362 814 LINE",
"362 691 LINE",
"387 691 LINE SMOOTH",
"484 691 OFFCURVE",
"515 657 OFFCURVE",
"518 559 CURVE SMOOTH",
"522 381 OFFCURVE",
"523 211 OFFCURVE",
"521 0 CURVE"
);
}
);
width = 781;
},
{
anchors = (
{
name = bottom;
position = "{349, 0}";
},
{
name = top;
position = "{328, 1600}";
}
);
layerId = "C388322D-F001-4130-A10A-708FB59AF746";
paths = (
{
closed = 1;
nodes = (
"215 0 LINE",
"215 1600 LINE",
"110 1600 LINE",
"110 0 LINE"
);
},
{
closed = 1;
nodes = (
"574 0 LINE",
"576 138 OFFCURVE",
"574 302 OFFCURVE",
"571 548 CURVE SMOOTH",
"567 655 OFFCURVE",
"532 711 OFFCURVE",
"452 735 CURVE",
"452 768 LINE",
"530 792 OFFCURVE",
"565 850 OFFCURVE",
"568 954 CURVE SMOOTH",
"573 1075 OFFCURVE",
"573 1192 OFFCURVE",
"568 1363 CURVE SMOOTH",
"563 1532 OFFCURVE",
"495 1600 OFFCURVE",
"332 1600 CURVE SMOOTH",
"300 1600 LINE",
"300 1504 LINE",
"332 1504 LINE SMOOTH",
"420 1504 OFFCURVE",
"460 1463 OFFCURVE",
"463 1367 CURVE SMOOTH",
"468 1217 OFFCURVE",
"468 1093 OFFCURVE",
"463 943 CURVE SMOOTH",
"460 844 OFFCURVE",
"420 801 OFFCURVE",
"330 801 CURVE SMOOTH",
"300 801 LINE",
"300 704 LINE",
"334 704 LINE SMOOTH",
"423 704 OFFCURVE",
"463 660 OFFCURVE",
"466 559 CURVE SMOOTH",
"470 381 OFFCURVE",
"471 211 OFFCURVE",
"469 0 CURVE"
);
}
);
width = 684;
}
);
leftKerningGroup = H;
rightKerningGroup = R;
},
{
glyphname = a;
layers = (
{
anchors = (
{
name = bottom;
position = "{350, 0}";
},
{
name = ogonek;
position = "{494, 0}";
},
{
name = top;
position = "{326, 1200}";
}
);
background = {
paths = (
{
closed = 1;
nodes = (
"366 -10 LINE",
"458 8 LINE",
"458 252 LINE",
"366 252 LINE"
);
}
);
};
layerId = "3B122060-26E0-4730-9241-82784E6CB359";
paths = (
{
closed = 1;
nodes = (
"90 64 OFFCURVE",
"158 -10 OFFCURVE",
"284 -10 CURVE SMOOTH",
"318 -10 OFFCURVE",
"344 -4 OFFCURVE",
"366 6 CURVE",
"366 70 LINE",
"344 60 OFFCURVE",
"320 56 OFFCURVE",
"292 56 CURVE SMOOTH",
"216 56 OFFCURVE",
"168 112 OFFCURVE",
"162 198 CURVE SMOOTH",
"160 224 OFFCURVE",
"160 262 OFFCURVE",
"160 300 CURVE SMOOTH",
"160 394 OFFCURVE",
"184 488 OFFCURVE",
"272 550 CURVE SMOOTH",
"308 576 OFFCURVE",
"338 596 OFFCURVE",
"366 610 CURVE",
"366 678 LINE",
"330 660 OFFCURVE",
"294 640 OFFCURVE",
"266 622 CURVE SMOOTH",
"122 534 OFFCURVE",
"86 434 OFFCURVE",
"80 302 CURVE SMOOTH",
"78 260 OFFCURVE",
"80 234 OFFCURVE",
"82 194 CURVE SMOOTH"
);
},
{
closed = 1;
nodes = (
"176 808 LINE",
"174 860 OFFCURVE",
"172 938 OFFCURVE",
"176 1018 CURVE SMOOTH",
"179 1098 OFFCURVE",
"220 1132 OFFCURVE",
"282 1141 CURVE",
"282 1210 LINE",
"151 1198 OFFCURVE",
"101 1132 OFFCURVE",
"96 1004 CURVE SMOOTH",
"94 948 OFFCURVE",
"94 886 OFFCURVE",
"98 808 CURVE"
);
},
{
closed = 1;
nodes = (
"538 0 LINE",
"538 998 LINE SMOOTH",
"538 1132 OFFCURVE",
"498 1198 OFFCURVE",
"374 1210 CURVE",
"374 1140 LINE",
"436 1126 OFFCURVE",
"458 1086 OFFCURVE",
"458 1008 CURVE SMOOTH",
"458 0 LINE"
);
}
);
width = 660;
},
{
anchors = (
{
name = bottom;
position = "{474, 0}";
},
{
name = ogonek;
position = "{709, 0}";
},
{
name = top;
position = "{496, 1200}";
}
);
background = {
paths = (
{
closed = 1;
nodes = (
"838 0 LINE",
"840 262 OFFCURVE",
"844 666 OFFCURVE",
"834 824 CURVE SMOOTH",
"818 1110 OFFCURVE",
"724 1220 OFFCURVE",
"422 1220 CURVE SMOOTH",
"314 1220 OFFCURVE",
"124 1206 OFFCURVE",
"92 1200 CURVE",
"92 974 LINE",
"168 974 OFFCURVE",
"350 974 OFFCURVE",
"426 974 CURVE SMOOTH",
"504 974 OFFCURVE",
"534 938 OFFCURVE",
"536 874 CURVE SMOOTH",
"546 562 OFFCURVE",
"540 292 OFFCURVE",
"538 0 CURVE"
);
},
{
closed = 1;
nodes = (
"394 -16 OFFCURVE",
"438 22 OFFCURVE",
"500 130 CURVE",
"560 130 LINE",
"560 284 LINE",
"540 284 LINE",
"516 232 OFFCURVE",
"464 198 OFFCURVE",
"410 198 CURVE SMOOTH",
"348 198 OFFCURVE",
"318 232 OFFCURVE",
"318 296 CURVE SMOOTH",
"318 328 OFFCURVE",
"318 442 OFFCURVE",
"318 464 CURVE SMOOTH",
"318 518 OFFCURVE",
"324 564 OFFCURVE",
"400 584 CURVE SMOOTH",
"462 600 OFFCURVE",
"566 602 OFFCURVE",
"590 602 CURVE",
"582 792 LINE",
"492 788 OFFCURVE",
"408 780 OFFCURVE",
"322 764 CURVE SMOOTH",
"92 720 OFFCURVE",
"18 620 OFFCURVE",
"18 420 CURVE SMOOTH",
"18 392 OFFCURVE",
"18 346 OFFCURVE",
"18 318 CURVE SMOOTH",
"18 96 OFFCURVE",
"126 -16 OFFCURVE",
"294 -16 CURVE SMOOTH"
);
}
);
};
layerId = "1DFA7D5B-2E97-4B89-827F-FB43F8066DC1";
paths = (
{
closed = 1;
nodes = (
"60 60 OFFCURVE",
"144 -16 OFFCURVE",
"332 -16 CURVE SMOOTH",
"394 -16 OFFCURVE",
"439 -4 OFFCURVE",
"474 23 CURVE",
"474 199 LINE",
"469 198 OFFCURVE",
"463 198 OFFCURVE",
"458 198 CURVE SMOOTH",
"388 198 OFFCURVE",
"350 232 OFFCURVE",
"344 296 CURVE SMOOTH",
"342 324 OFFCURVE",
"342 326 OFFCURVE",
"344 360 CURVE SMOOTH",
"348 420 OFFCURVE",
"362 478 OFFCURVE",
"446 510 CURVE SMOOTH",
"455 513 OFFCURVE",
"464 517 OFFCURVE",
"474 520 CURVE",
"474 712 LINE",
"440 703 OFFCURVE",
"407 694 OFFCURVE",
"370 682 CURVE SMOOTH",
"138 604 OFFCURVE",
"56 524 OFFCURVE",
"42 360 CURVE SMOOTH",
"40 340 OFFCURVE",
"40 296 OFFCURVE",
"42 274 CURVE SMOOTH"
);
},
{
closed = 1;
nodes = (
"374 738 LINE",
"372 750 OFFCURVE",
"372 884 OFFCURVE",
"374 906 CURVE SMOOTH",
"377 950 OFFCURVE",
"394 976 OFFCURVE",
"428 988 CURVE",
"428 1218 LINE",
"176 1203 OFFCURVE",
"91 1096 OFFCURVE",
"82 872 CURVE SMOOTH",
"80 818 OFFCURVE",
"82 754 OFFCURVE",
"84 738 CURVE"
);
},
{
closed = 1;
nodes = (
"898 0 LINE",
"900 824 LINE SMOOTH",
"900 1084 OFFCURVE",
"818 1202 OFFCURVE",
"560 1218 CURVE",
"560 981 LINE",
"591 966 OFFCURVE",
"606 936 OFFCURVE",
"606 892 CURVE SMOOTH",
"606 0 LINE"
);
}
);
width = 982;
},
{
anchors = (
{
name = bottom;
position = "{450, 0}";
},
{
name = ogonek;
position = "{665, 0}";
},
{
name = top;
position = "{470, 1200}";
}
);
background = {
paths = (
{
closed = 1;
nodes = (
"838 0 LINE",
"840 262 OFFCURVE",
"844 666 OFFCURVE",
"834 824 CURVE SMOOTH",
"818 1110 OFFCURVE",
"724 1220 OFFCURVE",
"422 1220 CURVE SMOOTH",
"314 1220 OFFCURVE",
"124 1206 OFFCURVE",
"92 1200 CURVE",
"92 974 LINE",
"168 974 OFFCURVE",
"350 974 OFFCURVE",
"426 974 CURVE SMOOTH",
"504 974 OFFCURVE",
"534 938 OFFCURVE",
"536 874 CURVE SMOOTH",
"546 562 OFFCURVE",
"540 292 OFFCURVE",
"538 0 CURVE"
);
},
{
closed = 1;
nodes = (
"394 -16 OFFCURVE",
"438 22 OFFCURVE",
"500 130 CURVE",
"560 130 LINE",
"560 284 LINE",
"540 284 LINE",
"516 232 OFFCURVE",
"464 198 OFFCURVE",
"410 198 CURVE SMOOTH",
"348 198 OFFCURVE",
"318 232 OFFCURVE",
"318 296 CURVE SMOOTH",
"318 328 OFFCURVE",
"318 442 OFFCURVE",
"318 464 CURVE SMOOTH",
"318 518 OFFCURVE",
"324 564 OFFCURVE",
"400 584 CURVE SMOOTH",
"462 600 OFFCURVE",
"566 602 OFFCURVE",
"590 602 CURVE",
"582 792 LINE",
"492 788 OFFCURVE",
"408 780 OFFCURVE",
"322 764 CURVE SMOOTH",
"92 720 OFFCURVE",
"18 620 OFFCURVE",
"18 420 CURVE SMOOTH",
"18 392 OFFCURVE",
"18 346 OFFCURVE",
"18 318 CURVE SMOOTH",
"18 96 OFFCURVE",
"126 -16 OFFCURVE",
"294 -16 CURVE SMOOTH"
);
}
);
};
layerId = "5013C991-8699-46CB-BB1C-82E334DBD38B";
paths = (
{
closed = 1;
nodes = (
"60 60 OFFCURVE",
"136 -16 OFFCURVE",
"314 -16 CURVE SMOOTH",
"380 -16 OFFCURVE",
"426 1 OFFCURVE",
"462 39 CURVE",
"462 200 LINE",
"455 199 OFFCURVE",
"448 198 OFFCURVE",
"440 198 CURVE SMOOTH",
"378 198 OFFCURVE",
"344 232 OFFCURVE",
"338 296 CURVE SMOOTH",
"336 316 OFFCURVE",
"336 334 OFFCURVE",
"338 360 CURVE SMOOTH",
"342 424 OFFCURVE",
"360 478 OFFCURVE",
"430 510 CURVE SMOOTH",
"440 514 OFFCURVE",
"451 519 OFFCURVE",
"462 523 CURVE",
"462 717 LINE",
"426 707 OFFCURVE",
"390 696 OFFCURVE",
"352 682 CURVE SMOOTH",
"136 604 OFFCURVE",
"56 524 OFFCURVE",
"42 360 CURVE SMOOTH",
"40 336 OFFCURVE",
"40 296 OFFCURVE",
"42 272 CURVE SMOOTH"
);
},
{
closed = 1;
nodes = (
"374 738 LINE",
"372 774 OFFCURVE",
"372 878 OFFCURVE",
"374 906 CURVE SMOOTH",
"377 954 OFFCURVE",
"389 980 OFFCURVE",
"422 991 CURVE",
"422 1219 LINE",
"175 1207 OFFCURVE",
"89 1099 OFFCURVE",
"80 872 CURVE SMOOTH",
"78 828 OFFCURVE",
"80 752 OFFCURVE",
"82 738 CURVE"
);
},
{
closed = 1;
nodes = (
"858 0 LINE",
"860 824 LINE SMOOTH",
"860 1088 OFFCURVE",
"779 1206 OFFCURVE",
"522 1219 CURVE",
"522 985 LINE",
"552 970 OFFCURVE",
"562 940 OFFCURVE",
"562 896 CURVE SMOOTH",
"562 0 LINE"
);
}
);
width = 942;
},
{
anchors = (
{
name = bottom;
position = "{264, 0}";
},
{
name = ogonek;
position = "{403, 0}";
},
{
name = top;
position = "{264, 1200}";
}
);
background = {
paths = (
{
closed = 0;
nodes = (
"56 358 LINE SMOOTH",
"56 518 OFFCURVE",
"96 586 OFFCURVE",
"192 622 CURVE SMOOTH"
);
},
{
closed = 0;
nodes = (
"196 578 LINE SMOOTH",
"108 544 OFFCURVE",
"102 442 OFFCURVE",
"98 358 CURVE SMOOTH"
);
},
{
closed = 0;
nodes = (
"60 170 LINE SMOOTH",
"62 42 OFFCURVE",
"110 -10 OFFCURVE",
"236 -10 CURVE SMOOTH"
);
},
{
closed = 0;
nodes = (
"236 30 LINE SMOOTH",
"140 30 OFFCURVE",
"102 60 OFFCURVE",
"100 170 CURVE SMOOTH"
);
}
);
};
layerId = "3D06B89B-468F-44E0-A3D7-A5BC6911123E";
paths = (
{
closed = 1;
nodes = (
"88 64 OFFCURVE",
"136 -10 OFFCURVE",
"238 -10 CURVE SMOOTH",
"265 -10 OFFCURVE",
"288 -5 OFFCURVE",
"306 5 CURVE",
"306 46 LINE",
"287 35 OFFCURVE",
"264 30 OFFCURVE",
"238 30 CURVE SMOOTH",
"172 30 OFFCURVE",
"128 84 OFFCURVE",
"122 180 CURVE SMOOTH",
"120 222 OFFCURVE",
"120 268 OFFCURVE",
"120 290 CURVE SMOOTH",
"124 396 OFFCURVE",
"140 490 OFFCURVE",
"222 560 CURVE SMOOTH",
"255 587 OFFCURVE",
"282 608 OFFCURVE",
"306 625 CURVE",
"306 670 LINE",
"276 650 OFFCURVE",
"248 629 OFFCURVE",
"222 610 CURVE SMOOTH",
"110 522 OFFCURVE",
"84 418 OFFCURVE",
"80 290 CURVE SMOOTH",
"78 252 OFFCURVE",
"80 220 OFFCURVE",
"82 180 CURVE SMOOTH"
);
},
{
closed = 1;
nodes = (
"130 820 LINE",
"128 892 OFFCURVE",
"128 970 OFFCURVE",
"130 1028 CURVE SMOOTH",
"134 1122 OFFCURVE",
"166 1158 OFFCURVE",
"224 1168 CURVE",
"224 1208 LINE",
"136 1196 OFFCURVE",
"94 1142 OFFCURVE",
"90 1028 CURVE SMOOTH",
"88 970 OFFCURVE",
"90 892 OFFCURVE",
"92 820 CURVE"
);
},
{
closed = 1;
nodes = (
"426 0 LINE",
"426 1028 LINE SMOOTH",
"426 1140 OFFCURVE",
"394 1196 OFFCURVE",
"304 1208 CURVE",
"304 1166 LINE",
"364 1154 OFFCURVE",
"386 1112 OFFCURVE",
"386 1028 CURVE SMOOTH",
"386 0 LINE"
);
}
);
width = 548;
},
{
anchors = (
{
name = bottom;
position = "{381, 0}";
},
{
name = ogonek;
position = "{548, 0}";
},
{
name = top;
position = "{369, 1200}";
}
);
layerId = "EB6D3A46-95FC-4F29-8169-EF2A3FEDBD5C";
paths = (
{
closed = 1;
nodes = (
"83 63 OFFCURVE",
"155 -12 OFFCURVE",
"296 -12 CURVE SMOOTH",
"337 -12 OFFCURVE",
"368 -4 OFFCURVE",
"393 10 CURVE",
"393 102 LINE",
"375 95 OFFCURVE",
"356 92 OFFCURVE",
"334 92 CURVE SMOOTH",
"259 92 OFFCURVE",
"214 142 OFFCURVE",
"208 223 CURVE SMOOTH",
"206 249 OFFCURVE",
"206 278 OFFCURVE",
"206 315 CURVE SMOOTH",
"207 401 OFFCURVE",
"229 486 OFFCURVE",
"316 540 CURVE SMOOTH",
"345 560 OFFCURVE",
"370 576 OFFCURVE",
"393 588 CURVE",
"393 687 LINE",
"357 671 OFFCURVE",
"322 653 OFFCURVE",
"292 637 CURVE SMOOTH",
"126 552 OFFCURVE",
"79 457 OFFCURVE",
"71 317 CURVE SMOOTH",
"69 280 OFFCURVE",
"70 250 OFFCURVE",
"72 214 CURVE SMOOTH"
);
},
{
closed = 1;
nodes = (
"226 791 LINE",
"224 833 OFFCURVE",
"222 925 OFFCURVE",
"226 990 CURVE SMOOTH",
"229 1061 OFFCURVE",
"263 1093 OFFCURVE",
"319 1103 CURVE",
"319 1212 LINE",
"157 1199 OFFCURVE",
"99 1123 OFFCURVE",
"93 971 CURVE SMOOTH",
"91 916 OFFCURVE",
"91 853 OFFCURVE",
"95 791 CURVE"
);
},
{
closed = 1;
nodes = (
"628 0 LINE",
"629 955 LINE SMOOTH",
"629 1120 OFFCURVE",
"578 1199 OFFCURVE",
"421 1212 CURVE",
"421 1100 LINE",
"475 1086 OFFCURVE",
"495 1049 OFFCURVE",
"495 979 CURVE SMOOTH",
"495 0 LINE"
);
}
);
width = 741;
},
{
anchors = (
{
name = bottom;
position = "{311, 0}";
},
{
name = ogonek;
position = "{469, 0}";
},
{
name = top;
position = "{316, 1200}";
}
);
layerId = "C388322D-F001-4130-A10A-708FB59AF746";
paths = (
{
closed = 1;
nodes = (
"81 63 OFFCURVE",
"136 -12 OFFCURVE",
"257 -12 CURVE SMOOTH",
"294 -12 OFFCURVE",
"322 -3 OFFCURVE",
"345 14 CURVE",
"345 84 LINE",
"329 76 OFFCURVE",
"310 72 OFFCURVE",
"289 72 CURVE SMOOTH",
"224 72 OFFCURVE",
"182 121 OFFCURVE",
"176 209 CURVE SMOOTH",
"174 246 OFFCURVE",
"174 285 OFFCURVE",
"175 308 CURVE SMOOTH",
"179 403 OFFCURVE",
"195 487 OFFCURVE",
"274 548 CURVE SMOOTH",
"301 569 OFFCURVE",
"324 586 OFFCURVE",
"345 599 CURVE",
"345 681 LINE",
"314 664 OFFCURVE",
"283 646 OFFCURVE",
"255 628 CURVE SMOOTH",
"117 543 OFFCURVE",
"77 445 OFFCURVE",
"71 308 CURVE SMOOTH",
"69 273 OFFCURVE",
"70 239 OFFCURVE",
"72 203 CURVE SMOOTH"
);
},
{
closed = 1;
nodes = (
"191 800 LINE",
"189 863 OFFCURVE",
"189 947 OFFCURVE",
"191 998 CURVE SMOOTH",
"195 1080 OFFCURVE",
"222 1114 OFFCURVE",
"274 1124 CURVE",
"274 1211 LINE",
"146 1199 OFFCURVE",
"93 1131 OFFCURVE",
"88 989 CURVE SMOOTH",
"86 935 OFFCURVE",
"88 857 OFFCURVE",
"90 800 CURVE"
);
},
{
closed = 1;
nodes = (
"534 0 LINE",
"535 977 LINE SMOOTH",
"535 1127 OFFCURVE",
"490 1198 OFFCURVE",
"359 1211 CURVE",
"359 1121 LINE",
"411 1108 OFFCURVE",
"430 1069 OFFCURVE",
"430 995 CURVE SMOOTH",
"430 0 LINE"
);
}
);
width = 647;
}
);
leftKerningGroup = a;
rightKerningGroup = n;
unicode = 0061;
},
